<?xml version="1.0" encoding="us-ascii" standalone="no"?><svg xmlns="http://www.w3.org/2000/svg" xmlns:xlink="http://www.w3.org/1999/xlink" contentStyleType="text/css" height="893px" preserveAspectRatio="none" style="width:1644px;height:893px;background:#1B1B1B;" version="1.1" viewBox="0 0 1644 893" width="1644px" zoomAndPan="magnify"><defs/><g><rect fill="#1B1B1B" height="893" style="stroke:none;stroke-width:1.0;" width="1644" x="0" y="0"/><!--class Account--><g id="elem_Account"><rect codeLine="1" fill="#313139" height="178.375" id="Account" rx="2.5" ry="2.5" style="stroke:#E7E7E7;stroke-width:0.5;" width="230" x="1242.5" y="229.5"/><ellipse cx="1323.75" cy="245.5" fill="#2E5233" rx="11" ry="11" style="stroke:#E7E7E7;stroke-width:1.0;"/><path d="M1326.0938,241.1719 C1325.1563,240.7344 1324.5625,240.5938 1323.6875,240.5938 C1321.0625,240.5938 1319.0625,242.6719 1319.0625,245.3906 L1319.0625,246.5156 C1319.0625,249.0938 1321.1719,250.9844 1324.0625,250.9844 C1325.2813,250.9844 1326.4375,250.6875 1327.1875,250.1406 C1327.7656,249.7344 1328.0938,249.2813 1328.0938,248.8906 C1328.0938,248.4375 1327.7031,248.0469 1327.2344,248.0469 C1327.0156,248.0469 1326.8125,248.125 1326.625,248.3125 C1326.1719,248.7969 1326.1719,248.7969 1325.9844,248.8906 C1325.5625,249.1563 1324.875,249.2813 1324.1094,249.2813 C1322.0625,249.2813 1320.7656,248.1875 1320.7656,246.4844 L1320.7656,245.3906 C1320.7656,243.6094 1322.0156,242.2969 1323.75,242.2969 C1324.3281,242.2969 1324.9375,242.4531 1325.4063,242.7031 C1325.8906,242.9844 1326.0625,243.2031 1326.1563,243.6094 C1326.2188,244.0156 1326.25,244.1406 1326.3906,244.2656 C1326.5313,244.4063 1326.7656,244.5156 1326.9844,244.5156 C1327.25,244.5156 1327.5156,244.375 1327.6875,244.1563 C1327.7969,244 1327.8281,243.8125 1327.8281,243.3906 L1327.8281,241.9688 C1327.8281,241.5313 1327.8125,241.4063 1327.7188,241.25 C1327.5625,240.9844 1327.2813,240.8438 1326.9844,240.8438 C1326.6875,240.8438 1326.4844,240.9375 1326.2656,241.25 L1326.0938,241.1719 Z " fill="#FFFFFF"/><text fill="#FFFFFF" font-family="sans-serif" font-size="14" lengthAdjust="spacing" textLength="59" x="1344.25" y="250.3467">Account</text><line style="stroke:#E7E7E7;stroke-width:0.5;" x1="1243.5" x2="1471.5" y1="261.5" y2="261.5"/><rect fill="none" height="6" style="stroke:#C82930;stroke-width:1.0;" width="6" x="1250.5" y="272.1484"/><text fill="#FFFFFF" font-family="sans-serif" font-size="14" lengthAdjust="spacing" textLength="167" x="1262.5" y="278.4951">accountNumber: String</text><rect fill="none" height="6" style="stroke:#C82930;stroke-width:1.0;" width="6" x="1250.5" y="288.4453"/><text fill="#FFFFFF" font-family="sans-serif" font-size="14" lengthAdjust="spacing" textLength="114" x="1262.5" y="294.792">balance: double</text><rect fill="none" height="6" style="stroke:#C82930;stroke-width:1.0;" width="6" x="1250.5" y="304.7422"/><text fill="#FFFFFF" font-family="sans-serif" font-size="14" lengthAdjust="spacing" textLength="139" x="1262.5" y="311.0889">creationDate: Date</text><rect fill="none" height="6" style="stroke:#C82930;stroke-width:1.0;" width="6" x="1250.5" y="321.0391"/><text fill="#FFFFFF" font-family="sans-serif" font-size="14" lengthAdjust="spacing" textLength="108" x="1262.5" y="327.3857">status: STATUS</text><line style="stroke:#E7E7E7;stroke-width:0.5;" x1="1243.5" x2="1471.5" y1="334.6875" y2="334.6875"/><ellipse cx="1253.5" cy="348.3359" fill="#84BE84" rx="3" ry="3" style="stroke:#038048;stroke-width:1.0;"/><text fill="#FFFFFF" font-family="sans-serif" font-size="14" lengthAdjust="spacing" textLength="204" x="1262.5" y="351.6826">getAccountNumber(): String</text><ellipse cx="1253.5" cy="364.6328" fill="#84BE84" rx="3" ry="3" style="stroke:#038048;stroke-width:1.0;"/><text fill="#FFFFFF" font-family="sans-serif" font-size="14" lengthAdjust="spacing" textLength="149" x="1262.5" y="367.9795">getBalance(): double</text><ellipse cx="1253.5" cy="380.9297" fill="#84BE84" rx="3" ry="3" style="stroke:#038048;stroke-width:1.0;"/><text fill="#FFFFFF" font-family="sans-serif" font-size="14" lengthAdjust="spacing" textLength="176" x="1262.5" y="384.2764">getCreationDate(): Date</text><ellipse cx="1253.5" cy="397.2266" fill="#84BE84" rx="3" ry="3" style="stroke:#038048;stroke-width:1.0;"/><text fill="#FFFFFF" font-family="sans-serif" font-size="14" lengthAdjust="spacing" textLength="145" x="1262.5" y="400.5732">getStatus(): STATUS</text></g><!--class CurrentAccount--><g id="elem_CurrentAccount"><rect codeLine="12" fill="#313139" height="80.5938" id="CurrentAccount" rx="2.5" ry="2.5" style="stroke:#E7E7E7;stroke-width:0.5;" width="189" x="1448" y="533.5"/><ellipse cx="1482.35" cy="549.5" fill="#2E5233" rx="11" ry="11" style="stroke:#E7E7E7;stroke-width:1.0;"/><path d="M1484.6938,545.1719 C1483.7563,544.7344 1483.1625,544.5938 1482.2875,544.5938 C1479.6625,544.5938 1477.6625,546.6719 1477.6625,549.3906 L1477.6625,550.5156 C1477.6625,553.0938 1479.7719,554.9844 1482.6625,554.9844 C1483.8813,554.9844 1485.0375,554.6875 1485.7875,554.1406 C1486.3656,553.7344 1486.6938,553.2813 1486.6938,552.8906 C1486.6938,552.4375 1486.3031,552.0469 1485.8344,552.0469 C1485.6156,552.0469 1485.4125,552.125 1485.225,552.3125 C1484.7719,552.7969 1484.7719,552.7969 1484.5844,552.8906 C1484.1625,553.1563 1483.475,553.2813 1482.7094,553.2813 C1480.6625,553.2813 1479.3656,552.1875 1479.3656,550.4844 L1479.3656,549.3906 C1479.3656,547.6094 1480.6156,546.2969 1482.35,546.2969 C1482.9281,546.2969 1483.5375,546.4531 1484.0063,546.7031 C1484.4906,546.9844 1484.6625,547.2031 1484.7563,547.6094 C1484.8188,548.0156 1484.85,548.1406 1484.9906,548.2656 C1485.1313,548.4063 1485.3656,548.5156 1485.5844,548.5156 C1485.85,548.5156 1486.1156,548.375 1486.2875,548.1563 C1486.3969,548 1486.4281,547.8125 1486.4281,547.3906 L1486.4281,545.9688 C1486.4281,545.5313 1486.4125,545.4063 1486.3188,545.25 C1486.1625,544.9844 1485.8813,544.8438 1485.5844,544.8438 C1485.2875,544.8438 1485.0844,544.9375 1484.8656,545.25 L1484.6938,545.1719 Z " fill="#FFFFFF"/><text fill="#FFFFFF" font-family="sans-serif" font-size="14" lengthAdjust="spacing" textLength="114" x="1500.65" y="554.3467">CurrentAccount</text><line style="stroke:#E7E7E7;stroke-width:0.5;" x1="1449" x2="1636" y1="565.5" y2="565.5"/><rect fill="none" height="6" style="stroke:#C82930;stroke-width:1.0;" width="6" x="1456" y="576.1484"/><text fill="#FFFFFF" font-family="sans-serif" font-size="14" lengthAdjust="spacing" textLength="126" x="1468" y="582.4951">overdraft: double</text><line style="stroke:#E7E7E7;stroke-width:0.5;" x1="1449" x2="1636" y1="589.7969" y2="589.7969"/><ellipse cx="1459" cy="603.4453" fill="#84BE84" rx="3" ry="3" style="stroke:#038048;stroke-width:1.0;"/><text fill="#FFFFFF" font-family="sans-serif" font-size="14" lengthAdjust="spacing" textLength="163" x="1468" y="606.792">getOverdraft(): double</text></g><!--class SavingsAccount--><g id="elem_SavingsAccount"><rect codeLine="17" fill="#313139" height="80.5938" id="SavingsAccount" rx="2.5" ry="2.5" style="stroke:#E7E7E7;stroke-width:0.5;" width="211" x="1130" y="533.5"/><ellipse cx="1174.75" cy="549.5" fill="#2E5233" rx="11" ry="11" style="stroke:#E7E7E7;stroke-width:1.0;"/><path d="M1177.0938,545.1719 C1176.1563,544.7344 1175.5625,544.5938 1174.6875,544.5938 C1172.0625,544.5938 1170.0625,546.6719 1170.0625,549.3906 L1170.0625,550.5156 C1170.0625,553.0938 1172.1719,554.9844 1175.0625,554.9844 C1176.2813,554.9844 1177.4375,554.6875 1178.1875,554.1406 C1178.7656,553.7344 1179.0938,553.2813 1179.0938,552.8906 C1179.0938,552.4375 1178.7031,552.0469 1178.2344,552.0469 C1178.0156,552.0469 1177.8125,552.125 1177.625,552.3125 C1177.1719,552.7969 1177.1719,552.7969 1176.9844,552.8906 C1176.5625,553.1563 1175.875,553.2813 1175.1094,553.2813 C1173.0625,553.2813 1171.7656,552.1875 1171.7656,550.4844 L1171.7656,549.3906 C1171.7656,547.6094 1173.0156,546.2969 1174.75,546.2969 C1175.3281,546.2969 1175.9375,546.4531 1176.4063,546.7031 C1176.8906,546.9844 1177.0625,547.2031 1177.1563,547.6094 C1177.2188,548.0156 1177.25,548.1406 1177.3906,548.2656 C1177.5313,548.4063 1177.7656,548.5156 1177.9844,548.5156 C1178.25,548.5156 1178.5156,548.375 1178.6875,548.1563 C1178.7969,548 1178.8281,547.8125 1178.8281,547.3906 L1178.8281,545.9688 C1178.8281,545.5313 1178.8125,545.4063 1178.7188,545.25 C1178.5625,544.9844 1178.2813,544.8438 1177.9844,544.8438 C1177.6875,544.8438 1177.4844,544.9375 1177.2656,545.25 L1177.0938,545.1719 Z " fill="#FFFFFF"/><text fill="#FFFFFF" font-family="sans-serif" font-size="14" lengthAdjust="spacing" textLength="113" x="1195.25" y="554.3467">SavingsAccount</text><line style="stroke:#E7E7E7;stroke-width:0.5;" x1="1131" x2="1340" y1="565.5" y2="565.5"/><rect fill="none" height="6" style="stroke:#C82930;stroke-width:1.0;" width="6" x="1138" y="576.1484"/><text fill="#FFFFFF" font-family="sans-serif" font-size="14" lengthAdjust="spacing" textLength="150" x="1150" y="582.4951">interestRate: double</text><line style="stroke:#E7E7E7;stroke-width:0.5;" x1="1131" x2="1340" y1="589.7969" y2="589.7969"/><ellipse cx="1141" cy="603.4453" fill="#84BE84" rx="3" ry="3" style="stroke:#038048;stroke-width:1.0;"/><text fill="#FFFFFF" font-family="sans-serif" font-size="14" lengthAdjust="spacing" textLength="185" x="1150" y="606.792">getInterestRate(): double</text></g><!--class Person--><g id="elem_Person"><rect codeLine="22" fill="#313139" height="210.9688" id="Person" rx="2.5" ry="2.5" style="stroke:#E7E7E7;stroke-width:0.5;" width="210" x="926.5" y="213"/><ellipse cx="1002.75" cy="229" fill="#2E5233" rx="11" ry="11" style="stroke:#E7E7E7;stroke-width:1.0;"/><path d="M1005.0938,224.6719 C1004.1563,224.2344 1003.5625,224.0938 1002.6875,224.0938 C1000.0625,224.0938 998.0625,226.1719 998.0625,228.8906 L998.0625,230.0156 C998.0625,232.5938 1000.1719,234.4844 1003.0625,234.4844 C1004.2813,234.4844 1005.4375,234.1875 1006.1875,233.6406 C1006.7656,233.2344 1007.0938,232.7813 1007.0938,232.3906 C1007.0938,231.9375 1006.7031,231.5469 1006.2344,231.5469 C1006.0156,231.5469 1005.8125,231.625 1005.625,231.8125 C1005.1719,232.2969 1005.1719,232.2969 1004.9844,232.3906 C1004.5625,232.6563 1003.875,232.7813 1003.1094,232.7813 C1001.0625,232.7813 999.7656,231.6875 999.7656,229.9844 L999.7656,228.8906 C999.7656,227.1094 1001.0156,225.7969 1002.75,225.7969 C1003.3281,225.7969 1003.9375,225.9531 1004.4063,226.2031 C1004.8906,226.4844 1005.0625,226.7031 1005.1563,227.1094 C1005.2188,227.5156 1005.25,227.6406 1005.3906,227.7656 C1005.5313,227.9063 1005.7656,228.0156 1005.9844,228.0156 C1006.25,228.0156 1006.5156,227.875 1006.6875,227.6563 C1006.7969,227.5 1006.8281,227.3125 1006.8281,226.8906 L1006.8281,225.4688 C1006.8281,225.0313 1006.8125,224.9063 1006.7188,224.75 C1006.5625,224.4844 1006.2813,224.3438 1005.9844,224.3438 C1005.6875,224.3438 1005.4844,224.4375 1005.2656,224.75 L1005.0938,224.6719 Z " fill="#FFFFFF"/><text fill="#FFFFFF" font-family="sans-serif" font-size="14" lengthAdjust="spacing" textLength="49" x="1023.25" y="233.8467">Person</text><line style="stroke:#E7E7E7;stroke-width:0.5;" x1="927.5" x2="1135.5" y1="245" y2="245"/><rect fill="none" height="6" style="stroke:#C82930;stroke-width:1.0;" width="6" x="934.5" y="255.6484"/><text fill="#FFFFFF" font-family="sans-serif" font-size="14" lengthAdjust="spacing" textLength="85" x="946.5" y="261.9951">nom: String</text><rect fill="none" height="6" style="stroke:#C82930;stroke-width:1.0;" width="6" x="934.5" y="271.9453"/><text fill="#FFFFFF" font-family="sans-serif" font-size="14" lengthAdjust="spacing" textLength="110" x="946.5" y="278.292">prenom: String</text><rect fill="none" height="6" style="stroke:#C82930;stroke-width:1.0;" width="6" x="934.5" y="288.2422"/><text fill="#FFFFFF" font-family="sans-serif" font-size="14" lengthAdjust="spacing" textLength="147" x="946.5" y="294.5889">dateNaissance: Date</text><rect fill="none" height="6" style="stroke:#C82930;stroke-width:1.0;" width="6" x="934.5" y="304.5391"/><text fill="#FFFFFF" font-family="sans-serif" font-size="14" lengthAdjust="spacing" textLength="128" x="946.5" y="310.8857">telephone: String</text><rect fill="none" height="6" style="stroke:#C82930;stroke-width:1.0;" width="6" x="934.5" y="320.8359"/><text fill="#FFFFFF" font-family="sans-serif" font-size="14" lengthAdjust="spacing" textLength="108" x="946.5" y="327.1826">adresse: String</text><line style="stroke:#E7E7E7;stroke-width:0.5;" x1="927.5" x2="1135.5" y1="334.4844" y2="334.4844"/><ellipse cx="937.5" cy="348.1328" fill="#84BE84" rx="3" ry="3" style="stroke:#038048;stroke-width:1.0;"/><text fill="#FFFFFF" font-family="sans-serif" font-size="14" lengthAdjust="spacing" textLength="121" x="946.5" y="351.4795">getNom(): String</text><ellipse cx="937.5" cy="364.4297" fill="#84BE84" rx="3" ry="3" style="stroke:#038048;stroke-width:1.0;"/><text fill="#FFFFFF" font-family="sans-serif" font-size="14" lengthAdjust="spacing" textLength="144" x="946.5" y="367.7764">getPrenom(): String</text><ellipse cx="937.5" cy="380.7266" fill="#84BE84" rx="3" ry="3" style="stroke:#038048;stroke-width:1.0;"/><text fill="#FFFFFF" font-family="sans-serif" font-size="14" lengthAdjust="spacing" textLength="184" x="946.5" y="384.0732">getDateNaissance(): Date</text><ellipse cx="937.5" cy="397.0234" fill="#84BE84" rx="3" ry="3" style="stroke:#038048;stroke-width:1.0;"/><text fill="#FFFFFF" font-family="sans-serif" font-size="14" lengthAdjust="spacing" textLength="165" x="946.5" y="400.3701">getTelephone(): String</text><ellipse cx="937.5" cy="413.3203" fill="#84BE84" rx="3" ry="3" style="stroke:#038048;stroke-width:1.0;"/><text fill="#FFFFFF" font-family="sans-serif" font-size="14" lengthAdjust="spacing" textLength="145" x="946.5" y="416.667">getAdresse(): String</text></g><!--class Client--><g id="elem_Client"><rect codeLine="35" fill="#313139" height="80.5938" id="Client" rx="2.5" ry="2.5" style="stroke:#E7E7E7;stroke-width:0.5;" width="127" x="968" y="533.5"/><ellipse cx="1006.4" cy="549.5" fill="#2E5233" rx="11" ry="11" style="stroke:#E7E7E7;stroke-width:1.0;"/><path d="M1008.7438,545.1719 C1007.8063,544.7344 1007.2125,544.5938 1006.3375,544.5938 C1003.7125,544.5938 1001.7125,546.6719 1001.7125,549.3906 L1001.7125,550.5156 C1001.7125,553.0938 1003.8219,554.9844 1006.7125,554.9844 C1007.9313,554.9844 1009.0875,554.6875 1009.8375,554.1406 C1010.4156,553.7344 1010.7438,553.2813 1010.7438,552.8906 C1010.7438,552.4375 1010.3531,552.0469 1009.8844,552.0469 C1009.6656,552.0469 1009.4625,552.125 1009.275,552.3125 C1008.8219,552.7969 1008.8219,552.7969 1008.6344,552.8906 C1008.2125,553.1563 1007.525,553.2813 1006.7594,553.2813 C1004.7125,553.2813 1003.4156,552.1875 1003.4156,550.4844 L1003.4156,549.3906 C1003.4156,547.6094 1004.6656,546.2969 1006.4,546.2969 C1006.9781,546.2969 1007.5875,546.4531 1008.0563,546.7031 C1008.5406,546.9844 1008.7125,547.2031 1008.8063,547.6094 C1008.8688,548.0156 1008.9,548.1406 1009.0406,548.2656 C1009.1813,548.4063 1009.4156,548.5156 1009.6344,548.5156 C1009.9,548.5156 1010.1656,548.375 1010.3375,548.1563 C1010.4469,548 1010.4781,547.8125 1010.4781,547.3906 L1010.4781,545.9688 C1010.4781,545.5313 1010.4625,545.4063 1010.3688,545.25 C1010.2125,544.9844 1009.9313,544.8438 1009.6344,544.8438 C1009.3375,544.8438 1009.1344,544.9375 1008.9156,545.25 L1008.7438,545.1719 Z " fill="#FFFFFF"/><text fill="#FFFFFF" font-family="sans-serif" font-size="14" lengthAdjust="spacing" textLength="43" x="1025.6" y="554.3467">Client</text><line style="stroke:#E7E7E7;stroke-width:0.5;" x1="969" x2="1094" y1="565.5" y2="565.5"/><rect fill="none" height="6" style="stroke:#C82930;stroke-width:1.0;" width="6" x="976" y="576.1484"/><text fill="#FFFFFF" font-family="sans-serif" font-size="14" lengthAdjust="spacing" textLength="64" x="988" y="582.4951">code: int</text><line style="stroke:#E7E7E7;stroke-width:0.5;" x1="969" x2="1094" y1="589.7969" y2="589.7969"/><ellipse cx="979" cy="603.4453" fill="#84BE84" rx="3" ry="3" style="stroke:#038048;stroke-width:1.0;"/><text fill="#FFFFFF" font-family="sans-serif" font-size="14" lengthAdjust="spacing" textLength="101" x="988" y="606.792">getCode(): int</text></g><!--class Employee--><g id="elem_Employee"><rect codeLine="40" fill="#313139" height="145.7813" id="Employee" rx="2.5" ry="2.5" style="stroke:#E7E7E7;stroke-width:0.5;" width="236" x="660.5" y="501"/><ellipse cx="738.25" cy="517" fill="#2E5233" rx="11" ry="11" style="stroke:#E7E7E7;stroke-width:1.0;"/><path d="M740.5938,512.6719 C739.6563,512.2344 739.0625,512.0938 738.1875,512.0938 C735.5625,512.0938 733.5625,514.1719 733.5625,516.8906 L733.5625,518.0156 C733.5625,520.5938 735.6719,522.4844 738.5625,522.4844 C739.7813,522.4844 740.9375,522.1875 741.6875,521.6406 C742.2656,521.2344 742.5938,520.7813 742.5938,520.3906 C742.5938,519.9375 742.2031,519.5469 741.7344,519.5469 C741.5156,519.5469 741.3125,519.625 741.125,519.8125 C740.6719,520.2969 740.6719,520.2969 740.4844,520.3906 C740.0625,520.6563 739.375,520.7813 738.6094,520.7813 C736.5625,520.7813 735.2656,519.6875 735.2656,517.9844 L735.2656,516.8906 C735.2656,515.1094 736.5156,513.7969 738.25,513.7969 C738.8281,513.7969 739.4375,513.9531 739.9063,514.2031 C740.3906,514.4844 740.5625,514.7031 740.6563,515.1094 C740.7188,515.5156 740.75,515.6406 740.8906,515.7656 C741.0313,515.9063 741.2656,516.0156 741.4844,516.0156 C741.75,516.0156 742.0156,515.875 742.1875,515.6563 C742.2969,515.5 742.3281,515.3125 742.3281,514.8906 L742.3281,513.4688 C742.3281,513.0313 742.3125,512.9063 742.2188,512.75 C742.0625,512.4844 741.7813,512.3438 741.4844,512.3438 C741.1875,512.3438 740.9844,512.4375 740.7656,512.75 L740.5938,512.6719 Z " fill="#FFFFFF"/><text fill="#FFFFFF" font-family="sans-serif" font-size="14" lengthAdjust="spacing" textLength="72" x="758.75" y="521.8467">Employee</text><line style="stroke:#E7E7E7;stroke-width:0.5;" x1="661.5" x2="895.5" y1="533" y2="533"/><rect fill="none" height="6" style="stroke:#C82930;stroke-width:1.0;" width="6" x="668.5" y="543.6484"/><text fill="#FFFFFF" font-family="sans-serif" font-size="14" lengthAdjust="spacing" textLength="97" x="680.5" y="549.9951">matricule: int</text><rect fill="none" height="6" style="stroke:#C82930;stroke-width:1.0;" width="6" x="668.5" y="559.9453"/><text fill="#FFFFFF" font-family="sans-serif" font-size="14" lengthAdjust="spacing" textLength="173" x="680.5" y="566.292">dateRecrutement: Date</text><rect fill="none" height="6" style="stroke:#C82930;stroke-width:1.0;" width="6" x="668.5" y="576.2422"/><text fill="#FFFFFF" font-family="sans-serif" font-size="14" lengthAdjust="spacing" textLength="92" x="680.5" y="582.5889">email: String</text><line style="stroke:#E7E7E7;stroke-width:0.5;" x1="661.5" x2="895.5" y1="589.8906" y2="589.8906"/><ellipse cx="671.5" cy="603.5391" fill="#84BE84" rx="3" ry="3" style="stroke:#038048;stroke-width:1.0;"/><text fill="#FFFFFF" font-family="sans-serif" font-size="14" lengthAdjust="spacing" textLength="130" x="680.5" y="606.8857">getMatricule(): int</text><ellipse cx="671.5" cy="619.8359" fill="#84BE84" rx="3" ry="3" style="stroke:#038048;stroke-width:1.0;"/><text fill="#FFFFFF" font-family="sans-serif" font-size="14" lengthAdjust="spacing" textLength="210" x="680.5" y="623.1826">getDateRecrutement(): Date</text><ellipse cx="671.5" cy="636.1328" fill="#84BE84" rx="3" ry="3" style="stroke:#038048;stroke-width:1.0;"/><text fill="#FFFFFF" font-family="sans-serif" font-size="14" lengthAdjust="spacing" textLength="127" x="680.5" y="639.4795">getEmail(): String</text></g><!--class Mission--><g id="elem_Mission"><rect codeLine="49" fill="#313139" height="145.7813" id="Mission" rx="2.5" ry="2.5" style="stroke:#E7E7E7;stroke-width:0.5;" width="198" x="360.5" y="245.5"/><ellipse cx="429.25" cy="261.5" fill="#2E5233" rx="11" ry="11" style="stroke:#E7E7E7;stroke-width:1.0;"/><path d="M431.5938,257.1719 C430.6563,256.7344 430.0625,256.5938 429.1875,256.5938 C426.5625,256.5938 424.5625,258.6719 424.5625,261.3906 L424.5625,262.5156 C424.5625,265.0938 426.6719,266.9844 429.5625,266.9844 C430.7813,266.9844 431.9375,266.6875 432.6875,266.1406 C433.2656,265.7344 433.5938,265.2813 433.5938,264.8906 C433.5938,264.4375 433.2031,264.0469 432.7344,264.0469 C432.5156,264.0469 432.3125,264.125 432.125,264.3125 C431.6719,264.7969 431.6719,264.7969 431.4844,264.8906 C431.0625,265.1563 430.375,265.2813 429.6094,265.2813 C427.5625,265.2813 426.2656,264.1875 426.2656,262.4844 L426.2656,261.3906 C426.2656,259.6094 427.5156,258.2969 429.25,258.2969 C429.8281,258.2969 430.4375,258.4531 430.9063,258.7031 C431.3906,258.9844 431.5625,259.2031 431.6563,259.6094 C431.7188,260.0156 431.75,260.1406 431.8906,260.2656 C432.0313,260.4063 432.2656,260.5156 432.4844,260.5156 C432.75,260.5156 433.0156,260.375 433.1875,260.1563 C433.2969,260 433.3281,259.8125 433.3281,259.3906 L433.3281,257.9688 C433.3281,257.5313 433.3125,257.4063 433.2188,257.25 C433.0625,256.9844 432.7813,256.8438 432.4844,256.8438 C432.1875,256.8438 431.9844,256.9375 431.7656,257.25 L431.5938,257.1719 Z " fill="#FFFFFF"/><text fill="#FFFFFF" font-family="sans-serif" font-size="14" lengthAdjust="spacing" textLength="52" x="449.75" y="266.3467">Mission</text><line style="stroke:#E7E7E7;stroke-width:0.5;" x1="361.5" x2="557.5" y1="277.5" y2="277.5"/><rect fill="none" height="6" style="stroke:#C82930;stroke-width:1.0;" width="6" x="368.5" y="288.1484"/><text fill="#FFFFFF" font-family="sans-serif" font-size="14" lengthAdjust="spacing" textLength="64" x="380.5" y="294.4951">code: int</text><rect fill="none" height="6" style="stroke:#C82930;stroke-width:1.0;" width="6" x="368.5" y="304.4453"/><text fill="#FFFFFF" font-family="sans-serif" font-size="14" lengthAdjust="spacing" textLength="85" x="380.5" y="310.792">nom: String</text><rect fill="none" height="6" style="stroke:#C82930;stroke-width:1.0;" width="6" x="368.5" y="320.7422"/><text fill="#FFFFFF" font-family="sans-serif" font-size="14" lengthAdjust="spacing" textLength="135" x="380.5" y="327.0889">description: String</text><line style="stroke:#E7E7E7;stroke-width:0.5;" x1="361.5" x2="557.5" y1="334.3906" y2="334.3906"/><ellipse cx="371.5" cy="348.0391" fill="#84BE84" rx="3" ry="3" style="stroke:#038048;stroke-width:1.0;"/><text fill="#FFFFFF" font-family="sans-serif" font-size="14" lengthAdjust="spacing" textLength="101" x="380.5" y="351.3857">getCode(): int</text><ellipse cx="371.5" cy="364.3359" fill="#84BE84" rx="3" ry="3" style="stroke:#038048;stroke-width:1.0;"/><text fill="#FFFFFF" font-family="sans-serif" font-size="14" lengthAdjust="spacing" textLength="121" x="380.5" y="367.6826">getNom(): String</text><ellipse cx="371.5" cy="380.6328" fill="#84BE84" rx="3" ry="3" style="stroke:#038048;stroke-width:1.0;"/><text fill="#FFFFFF" font-family="sans-serif" font-size="14" lengthAdjust="spacing" textLength="172" x="380.5" y="383.9795">getDescription(): String</text></g><!--class MissionAssignment--><g id="elem_MissionAssignment"><rect codeLine="58" fill="#313139" height="113.1875" id="MissionAssignment" rx="2.5" ry="2.5" style="stroke:#E7E7E7;stroke-width:0.5;" width="185" x="328" y="15"/><ellipse cx="350.2" cy="31" fill="#2E5233" rx="11" ry="11" style="stroke:#E7E7E7;stroke-width:1.0;"/><path d="M352.5438,26.6719 C351.6063,26.2344 351.0125,26.0938 350.1375,26.0938 C347.5125,26.0938 345.5125,28.1719 345.5125,30.8906 L345.5125,32.0156 C345.5125,34.5938 347.6219,36.4844 350.5125,36.4844 C351.7313,36.4844 352.8875,36.1875 353.6375,35.6406 C354.2156,35.2344 354.5438,34.7813 354.5438,34.3906 C354.5438,33.9375 354.1531,33.5469 353.6844,33.5469 C353.4656,33.5469 353.2625,33.625 353.075,33.8125 C352.6219,34.2969 352.6219,34.2969 352.4344,34.3906 C352.0125,34.6563 351.325,34.7813 350.5594,34.7813 C348.5125,34.7813 347.2156,33.6875 347.2156,31.9844 L347.2156,30.8906 C347.2156,29.1094 348.4656,27.7969 350.2,27.7969 C350.7781,27.7969 351.3875,27.9531 351.8563,28.2031 C352.3406,28.4844 352.5125,28.7031 352.6063,29.1094 C352.6688,29.5156 352.7,29.6406 352.8406,29.7656 C352.9813,29.9063 353.2156,30.0156 353.4344,30.0156 C353.7,30.0156 353.9656,29.875 354.1375,29.6563 C354.2469,29.5 354.2781,29.3125 354.2781,28.8906 L354.2781,27.4688 C354.2781,27.0313 354.2625,26.9063 354.1688,26.75 C354.0125,26.4844 353.7313,26.3438 353.4344,26.3438 C353.1375,26.3438 352.9344,26.4375 352.7156,26.75 L352.5438,26.6719 Z " fill="#FFFFFF"/><text fill="#FFFFFF" font-family="sans-serif" font-size="14" lengthAdjust="spacing" textLength="137" x="365.8" y="35.8467">MissionAssignment</text><line style="stroke:#E7E7E7;stroke-width:0.5;" x1="329" x2="512" y1="47" y2="47"/><rect fill="none" height="6" style="stroke:#C82930;stroke-width:1.0;" width="6" x="336" y="57.6484"/><text fill="#FFFFFF" font-family="sans-serif" font-size="14" lengthAdjust="spacing" textLength="122" x="348" y="63.9951">debutDate: Date</text><rect fill="none" height="6" style="stroke:#C82930;stroke-width:1.0;" width="6" x="336" y="73.9453"/><text fill="#FFFFFF" font-family="sans-serif" font-size="14" lengthAdjust="spacing" textLength="106" x="348" y="80.292">endDate: Date</text><line style="stroke:#E7E7E7;stroke-width:0.5;" x1="329" x2="512" y1="87.5938" y2="87.5938"/><ellipse cx="339" cy="101.2422" fill="#84BE84" rx="3" ry="3" style="stroke:#038048;stroke-width:1.0;"/><text fill="#FFFFFF" font-family="sans-serif" font-size="14" lengthAdjust="spacing" textLength="159" x="348" y="104.5889">getDebutDate(): Date</text><ellipse cx="339" cy="117.5391" fill="#84BE84" rx="3" ry="3" style="stroke:#038048;stroke-width:1.0;"/><text fill="#FFFFFF" font-family="sans-serif" font-size="14" lengthAdjust="spacing" textLength="141" x="348" y="120.8857">getEndDate(): Date</text></g><!--class Operation--><g id="elem_Operation"><rect codeLine="65" fill="#313139" height="178.375" id="Operation" rx="2.5" ry="2.5" style="stroke:#E7E7E7;stroke-width:0.5;" width="225" x="1118" y="708"/><ellipse cx="1189.75" cy="724" fill="#2E5233" rx="11" ry="11" style="stroke:#E7E7E7;stroke-width:1.0;"/><path d="M1192.0938,719.6719 C1191.1563,719.2344 1190.5625,719.0938 1189.6875,719.0938 C1187.0625,719.0938 1185.0625,721.1719 1185.0625,723.8906 L1185.0625,725.0156 C1185.0625,727.5938 1187.1719,729.4844 1190.0625,729.4844 C1191.2813,729.4844 1192.4375,729.1875 1193.1875,728.6406 C1193.7656,728.2344 1194.0938,727.7813 1194.0938,727.3906 C1194.0938,726.9375 1193.7031,726.5469 1193.2344,726.5469 C1193.0156,726.5469 1192.8125,726.625 1192.625,726.8125 C1192.1719,727.2969 1192.1719,727.2969 1191.9844,727.3906 C1191.5625,727.6563 1190.875,727.7813 1190.1094,727.7813 C1188.0625,727.7813 1186.7656,726.6875 1186.7656,724.9844 L1186.7656,723.8906 C1186.7656,722.1094 1188.0156,720.7969 1189.75,720.7969 C1190.3281,720.7969 1190.9375,720.9531 1191.4063,721.2031 C1191.8906,721.4844 1192.0625,721.7031 1192.1563,722.1094 C1192.2188,722.5156 1192.25,722.6406 1192.3906,722.7656 C1192.5313,722.9063 1192.7656,723.0156 1192.9844,723.0156 C1193.25,723.0156 1193.5156,722.875 1193.6875,722.6563 C1193.7969,722.5 1193.8281,722.3125 1193.8281,721.8906 L1193.8281,720.4688 C1193.8281,720.0313 1193.8125,719.9063 1193.7188,719.75 C1193.5625,719.4844 1193.2813,719.3438 1192.9844,719.3438 C1192.6875,719.3438 1192.4844,719.4375 1192.2656,719.75 L1192.0938,719.6719 Z " fill="#FFFFFF"/><text fill="#FFFFFF" font-family="sans-serif" font-size="14" lengthAdjust="spacing" textLength="73" x="1210.25" y="728.8467">Operation</text><line style="stroke:#E7E7E7;stroke-width:0.5;" x1="1119" x2="1342" y1="740" y2="740"/><rect fill="none" height="6" style="stroke:#C82930;stroke-width:1.0;" width="6" x="1126" y="750.6484"/><text fill="#FFFFFF" font-family="sans-serif" font-size="14" lengthAdjust="spacing" textLength="157" x="1138" y="756.9951">operationNumber: int</text><rect fill="none" height="6" style="stroke:#C82930;stroke-width:1.0;" width="6" x="1126" y="766.9453"/><text fill="#FFFFFF" font-family="sans-serif" font-size="14" lengthAdjust="spacing" textLength="139" x="1138" y="773.292">creationDate: Date</text><rect fill="none" height="6" style="stroke:#C82930;stroke-width:1.0;" width="6" x="1126" y="783.2422"/><text fill="#FFFFFF" font-family="sans-serif" font-size="14" lengthAdjust="spacing" textLength="113" x="1138" y="789.5889">amount: double</text><rect fill="none" height="6" style="stroke:#C82930;stroke-width:1.0;" width="6" x="1126" y="799.5391"/><text fill="#FFFFFF" font-family="sans-serif" font-size="14" lengthAdjust="spacing" textLength="162" x="1138" y="805.8857">type: OPERATIONTYPE</text><line style="stroke:#E7E7E7;stroke-width:0.5;" x1="1119" x2="1342" y1="813.1875" y2="813.1875"/><ellipse cx="1129" cy="826.8359" fill="#84BE84" rx="3" ry="3" style="stroke:#038048;stroke-width:1.0;"/><text fill="#FFFFFF" font-family="sans-serif" font-size="14" lengthAdjust="spacing" textLength="194" x="1138" y="830.1826">getOperationNumber(): int</text><ellipse cx="1129" cy="843.1328" fill="#84BE84" rx="3" ry="3" style="stroke:#038048;stroke-width:1.0;"/><text fill="#FFFFFF" font-family="sans-serif" font-size="14" lengthAdjust="spacing" textLength="176" x="1138" y="846.4795">getCreationDate(): Date</text><ellipse cx="1129" cy="859.4297" fill="#84BE84" rx="3" ry="3" style="stroke:#038048;stroke-width:1.0;"/><text fill="#FFFFFF" font-family="sans-serif" font-size="14" lengthAdjust="spacing" textLength="150" x="1138" y="862.7764">getAmount(): double</text><ellipse cx="1129" cy="875.7266" fill="#84BE84" rx="3" ry="3" style="stroke:#038048;stroke-width:1.0;"/><text fill="#FFFFFF" font-family="sans-serif" font-size="14" lengthAdjust="spacing" textLength="199" x="1138" y="879.0732">getType(): OPERATIONTYPE</text></g><!--class Agency--><g id="elem_Agency"><rect codeLine="76" fill="#313139" height="113.1875" id="Agency" rx="2.5" ry="2.5" style="stroke:#E7E7E7;stroke-width:0.5;" width="134" x="1059.5" y="15"/><ellipse cx="1096.55" cy="31" fill="#2E5233" rx="11" ry="11" style="stroke:#E7E7E7;stroke-width:1.0;"/><path d="M1098.8938,26.6719 C1097.9563,26.2344 1097.3625,26.0938 1096.4875,26.0938 C1093.8625,26.0938 1091.8625,28.1719 1091.8625,30.8906 L1091.8625,32.0156 C1091.8625,34.5938 1093.9719,36.4844 1096.8625,36.4844 C1098.0813,36.4844 1099.2375,36.1875 1099.9875,35.6406 C1100.5656,35.2344 1100.8938,34.7813 1100.8938,34.3906 C1100.8938,33.9375 1100.5031,33.5469 1100.0344,33.5469 C1099.8156,33.5469 1099.6125,33.625 1099.425,33.8125 C1098.9719,34.2969 1098.9719,34.2969 1098.7844,34.3906 C1098.3625,34.6563 1097.675,34.7813 1096.9094,34.7813 C1094.8625,34.7813 1093.5656,33.6875 1093.5656,31.9844 L1093.5656,30.8906 C1093.5656,29.1094 1094.8156,27.7969 1096.55,27.7969 C1097.1281,27.7969 1097.7375,27.9531 1098.2063,28.2031 C1098.6906,28.4844 1098.8625,28.7031 1098.9563,29.1094 C1099.0188,29.5156 1099.05,29.6406 1099.1906,29.7656 C1099.3313,29.9063 1099.5656,30.0156 1099.7844,30.0156 C1100.05,30.0156 1100.3156,29.875 1100.4875,29.6563 C1100.5969,29.5 1100.6281,29.3125 1100.6281,28.8906 L1100.6281,27.4688 C1100.6281,27.0313 1100.6125,26.9063 1100.5188,26.75 C1100.3625,26.4844 1100.0813,26.3438 1099.7844,26.3438 C1099.4875,26.3438 1099.2844,26.4375 1099.0656,26.75 L1098.8938,26.6719 Z " fill="#FFFFFF"/><text fill="#FFFFFF" font-family="sans-serif" font-size="14" lengthAdjust="spacing" textLength="53" x="1115.45" y="35.8467">Agency</text><line style="stroke:#E7E7E7;stroke-width:0.5;" x1="1060.5" x2="1192.5" y1="47" y2="47"/><rect fill="none" height="6" style="stroke:#C82930;stroke-width:1.0;" width="6" x="1067.5" y="57.6484"/><text fill="#FFFFFF" font-family="sans-serif" font-size="14" lengthAdjust="spacing" textLength="64" x="1079.5" y="63.9951">code: int</text><rect fill="none" height="6" style="stroke:#C82930;stroke-width:1.0;" width="6" x="1067.5" y="73.9453"/><text fill="#FFFFFF" font-family="sans-serif" font-size="14" lengthAdjust="spacing" textLength="93" x="1079.5" y="80.292">name: String</text><rect fill="none" height="6" style="stroke:#C82930;stroke-width:1.0;" width="6" x="1067.5" y="90.2422"/><text fill="#FFFFFF" font-family="sans-serif" font-size="14" lengthAdjust="spacing" textLength="108" x="1079.5" y="96.5889">address: String</text><rect fill="none" height="6" style="stroke:#C82930;stroke-width:1.0;" width="6" x="1067.5" y="106.5391"/><text fill="#FFFFFF" font-family="sans-serif" font-size="14" lengthAdjust="spacing" textLength="99" x="1079.5" y="112.8857">phone: String</text><line style="stroke:#E7E7E7;stroke-width:0.5;" x1="1060.5" x2="1192.5" y1="120.1875" y2="120.1875"/></g><!--class Simulation--><g id="elem_Simulation"><rect codeLine="84" fill="#313139" height="129.4844" id="Simulation" rx="2.5" ry="2.5" style="stroke:#E7E7E7;stroke-width:0.5;" width="232" x="626.5" y="7"/><ellipse cx="700.25" cy="23" fill="#2E5233" rx="11" ry="11" style="stroke:#E7E7E7;stroke-width:1.0;"/><path d="M702.5938,18.6719 C701.6563,18.2344 701.0625,18.0938 700.1875,18.0938 C697.5625,18.0938 695.5625,20.1719 695.5625,22.8906 L695.5625,24.0156 C695.5625,26.5938 697.6719,28.4844 700.5625,28.4844 C701.7813,28.4844 702.9375,28.1875 703.6875,27.6406 C704.2656,27.2344 704.5938,26.7813 704.5938,26.3906 C704.5938,25.9375 704.2031,25.5469 703.7344,25.5469 C703.5156,25.5469 703.3125,25.625 703.125,25.8125 C702.6719,26.2969 702.6719,26.2969 702.4844,26.3906 C702.0625,26.6563 701.375,26.7813 700.6094,26.7813 C698.5625,26.7813 697.2656,25.6875 697.2656,23.9844 L697.2656,22.8906 C697.2656,21.1094 698.5156,19.7969 700.25,19.7969 C700.8281,19.7969 701.4375,19.9531 701.9063,20.2031 C702.3906,20.4844 702.5625,20.7031 702.6563,21.1094 C702.7188,21.5156 702.75,21.6406 702.8906,21.7656 C703.0313,21.9063 703.2656,22.0156 703.4844,22.0156 C703.75,22.0156 704.0156,21.875 704.1875,21.6563 C704.2969,21.5 704.3281,21.3125 704.3281,20.8906 L704.3281,19.4688 C704.3281,19.0313 704.3125,18.9063 704.2188,18.75 C704.0625,18.4844 703.7813,18.3438 703.4844,18.3438 C703.1875,18.3438 702.9844,18.4375 702.7656,18.75 L702.5938,18.6719 Z " fill="#FFFFFF"/><text fill="#FFFFFF" font-family="sans-serif" font-size="14" lengthAdjust="spacing" textLength="76" x="720.75" y="27.8467">Simulation</text><line style="stroke:#E7E7E7;stroke-width:0.5;" x1="627.5" x2="857.5" y1="39" y2="39"/><rect fill="none" height="6" style="stroke:#C82930;stroke-width:1.0;" width="6" x="634.5" y="49.6484"/><text fill="#FFFFFF" font-family="sans-serif" font-size="14" lengthAdjust="spacing" textLength="42" x="646.5" y="55.9951">id: int</text><rect fill="none" height="6" style="stroke:#C82930;stroke-width:1.0;" width="6" x="634.5" y="65.9453"/><text fill="#FFFFFF" font-family="sans-serif" font-size="14" lengthAdjust="spacing" textLength="190" x="646.5" y="72.292">monthly_payment: double</text><rect fill="none" height="6" style="stroke:#C82930;stroke-width:1.0;" width="6" x="634.5" y="82.2422"/><text fill="#FFFFFF" font-family="sans-serif" font-size="14" lengthAdjust="spacing" textLength="183" x="646.5" y="88.5889">borrowed_capital: double</text><rect fill="none" height="6" style="stroke:#C82930;stroke-width:1.0;" width="6" x="634.5" y="98.5391"/><text fill="#FFFFFF" font-family="sans-serif" font-size="14" lengthAdjust="spacing" textLength="206" x="646.5" y="104.8857">monthly_payments_num: int</text><rect fill="none" height="6" style="stroke:#C82930;stroke-width:1.0;" width="6" x="634.5" y="114.8359"/><text fill="#FFFFFF" font-family="sans-serif" font-size="14" lengthAdjust="spacing" textLength="99" x="646.5" y="121.1826">result: double</text><line style="stroke:#E7E7E7;stroke-width:0.5;" x1="627.5" x2="857.5" y1="128.4844" y2="128.4844"/></g><!--class Credit--><g id="elem_Credit"><rect codeLine="92" fill="#313139" height="145.7813" id="Credit" rx="2.5" ry="2.5" style="stroke:#E7E7E7;stroke-width:0.5;" width="155" x="665" y="245.5"/><ellipse cx="715.75" cy="261.5" fill="#2E5233" rx="11" ry="11" style="stroke:#E7E7E7;stroke-width:1.0;"/><path d="M718.0938,257.1719 C717.1563,256.7344 716.5625,256.5938 715.6875,256.5938 C713.0625,256.5938 711.0625,258.6719 711.0625,261.3906 L711.0625,262.5156 C711.0625,265.0938 713.1719,266.9844 716.0625,266.9844 C717.2813,266.9844 718.4375,266.6875 719.1875,266.1406 C719.7656,265.7344 720.0938,265.2813 720.0938,264.8906 C720.0938,264.4375 719.7031,264.0469 719.2344,264.0469 C719.0156,264.0469 718.8125,264.125 718.625,264.3125 C718.1719,264.7969 718.1719,264.7969 717.9844,264.8906 C717.5625,265.1563 716.875,265.2813 716.1094,265.2813 C714.0625,265.2813 712.7656,264.1875 712.7656,262.4844 L712.7656,261.3906 C712.7656,259.6094 714.0156,258.2969 715.75,258.2969 C716.3281,258.2969 716.9375,258.4531 717.4063,258.7031 C717.8906,258.9844 718.0625,259.2031 718.1563,259.6094 C718.2188,260.0156 718.25,260.1406 718.3906,260.2656 C718.5313,260.4063 718.7656,260.5156 718.9844,260.5156 C719.25,260.5156 719.5156,260.375 719.6875,260.1563 C719.7969,260 719.8281,259.8125 719.8281,259.3906 L719.8281,257.9688 C719.8281,257.5313 719.8125,257.4063 719.7188,257.25 C719.5625,256.9844 719.2813,256.8438 718.9844,256.8438 C718.6875,256.8438 718.4844,256.9375 718.2656,257.25 L718.0938,257.1719 Z " fill="#FFFFFF"/><text fill="#FFFFFF" font-family="sans-serif" font-size="14" lengthAdjust="spacing" textLength="45" x="736.25" y="266.3467">Credit</text><line style="stroke:#E7E7E7;stroke-width:0.5;" x1="666" x2="819" y1="277.5" y2="277.5"/><rect fill="none" height="6" style="stroke:#C82930;stroke-width:1.0;" width="6" x="673" y="288.1484"/><text fill="#FFFFFF" font-family="sans-serif" font-size="14" lengthAdjust="spacing" textLength="85" x="685" y="294.4951">number: int</text><rect fill="none" height="6" style="stroke:#C82930;stroke-width:1.0;" width="6" x="673" y="304.4453"/><text fill="#FFFFFF" font-family="sans-serif" font-size="14" lengthAdjust="spacing" textLength="77" x="685" y="310.792">date: Date</text><rect fill="none" height="6" style="stroke:#C82930;stroke-width:1.0;" width="6" x="673" y="320.7422"/><text fill="#FFFFFF" font-family="sans-serif" font-size="14" lengthAdjust="spacing" textLength="113" x="685" y="327.0889">amount: double</text><rect fill="none" height="6" style="stroke:#C82930;stroke-width:1.0;" width="6" x="673" y="337.0391"/><text fill="#FFFFFF" font-family="sans-serif" font-size="14" lengthAdjust="spacing" textLength="93" x="685" y="343.3857">state: STATE</text><rect fill="none" height="6" style="stroke:#C82930;stroke-width:1.0;" width="6" x="673" y="353.3359"/><text fill="#FFFFFF" font-family="sans-serif" font-size="14" lengthAdjust="spacing" textLength="129" x="685" y="359.6826">remarques: String</text><rect fill="none" height="6" style="stroke:#C82930;stroke-width:1.0;" width="6" x="673" y="369.6328"/><text fill="#FFFFFF" font-family="sans-serif" font-size="14" lengthAdjust="spacing" textLength="113" x="685" y="375.9795">duration: String</text><line style="stroke:#E7E7E7;stroke-width:0.5;" x1="666" x2="819" y1="383.2813" y2="383.2813"/></g><!--class OPERATIONTYPE--><g id="elem_OPERATIONTYPE"><rect codeLine="102" fill="#313139" height="96.8906" id="OPERATIONTYPE" rx="2.5" ry="2.5" style="stroke:#E7E7E7;stroke-width:0.5;" width="151" x="7" y="23"/><ellipse cx="22" cy="39" fill="#852D19" rx="11" ry="11" style="stroke:#E7E7E7;stroke-width:1.0;"/><path d="M20.7969,39.875 L22.25,39.875 L22.25,39.9844 C22.25,40.3906 22.2813,40.5469 22.3594,40.7031 C22.5156,40.9531 22.7969,41.1094 23.0938,41.1094 C23.3438,41.1094 23.6094,40.9688 23.7656,40.75 C23.8906,40.5938 23.9219,40.4375 23.9219,39.9844 L23.9219,38.0625 C23.9219,37.9063 23.9219,37.8594 23.9063,37.7031 C23.8438,37.2344 23.5313,36.9219 23.0781,36.9219 C22.8281,36.9219 22.5625,37.0625 22.3906,37.2813 C22.2813,37.4531 22.25,37.6094 22.25,38.0625 L22.25,38.1875 L20.7969,38.1875 L20.7969,35.7813 L24.7813,35.7813 L24.7813,36.6406 C24.7813,37.0469 24.8125,37.2188 24.8906,37.375 C25.0625,37.625 25.3438,37.7813 25.625,37.7813 C25.8906,37.7813 26.1563,37.6406 26.3281,37.4219 C26.4375,37.25 26.4688,37.1094 26.4688,36.6406 L26.4688,34.0938 L18.8438,34.0938 C18.4063,34.0938 18.2813,34.1094 18.125,34.2031 C17.875,34.3594 17.7188,34.6563 17.7188,34.9375 C17.7188,35.2188 17.8594,35.4688 18.0781,35.6406 C18.2344,35.75 18.4219,35.7813 18.8438,35.7813 L19.0938,35.7813 L19.0938,42.2969 L18.8438,42.2969 C18.4375,42.2969 18.2813,42.3125 18.125,42.4219 C17.875,42.5938 17.7188,42.8594 17.7188,43.1563 C17.7188,43.4219 17.8594,43.6719 18.0781,43.8281 C18.2188,43.9531 18.4531,44 18.8438,44 L26.8438,44 L26.8438,41.4219 C26.8438,40.9844 26.8125,40.8438 26.7344,40.6875 C26.5625,40.4375 26.2813,40.2813 26,40.2813 C25.7344,40.2813 25.4688,40.3906 25.2969,40.6406 C25.1875,40.7969 25.1563,40.9375 25.1563,41.4219 L25.1563,42.2969 L20.7969,42.2969 L20.7969,39.875 Z " fill="#FFFFFF"/><text fill="#FFFFFF" font-family="sans-serif" font-size="14" lengthAdjust="spacing" textLength="119" x="36" y="43.8467">OPERATIONTYPE</text><line style="stroke:#E7E7E7;stroke-width:0.5;" x1="8" x2="157" y1="55" y2="55"/><text fill="#FFFFFF" font-family="sans-serif" font-size="14" lengthAdjust="spacing" textLength="68" x="13" y="71.9951">PAYMENT</text><text fill="#FFFFFF" font-family="sans-serif" font-size="14" lengthAdjust="spacing" textLength="100" x="13" y="88.292">WITHDRAWAL</text><text fill="#FFFFFF" font-family="sans-serif" font-size="14" lengthAdjust="spacing" textLength="62" x="13" y="104.5889">DEPOSIT</text><line style="stroke:#E7E7E7;stroke-width:0.5;" x1="8" x2="157" y1="111.8906" y2="111.8906"/></g><!--class STATUS--><g id="elem_STATUS"><rect codeLine="109" fill="#313139" height="80.5938" id="STATUS" rx="2.5" ry="2.5" style="stroke:#E7E7E7;stroke-width:0.5;" width="87" x="193" y="31"/><ellipse cx="208" cy="47" fill="#852D19" rx="11" ry="11" style="stroke:#E7E7E7;stroke-width:1.0;"/><path d="M206.7969,47.875 L208.25,47.875 L208.25,47.9844 C208.25,48.3906 208.2813,48.5469 208.3594,48.7031 C208.5156,48.9531 208.7969,49.1094 209.0938,49.1094 C209.3438,49.1094 209.6094,48.9688 209.7656,48.75 C209.8906,48.5938 209.9219,48.4375 209.9219,47.9844 L209.9219,46.0625 C209.9219,45.9063 209.9219,45.8594 209.9063,45.7031 C209.8438,45.2344 209.5313,44.9219 209.0781,44.9219 C208.8281,44.9219 208.5625,45.0625 208.3906,45.2813 C208.2813,45.4531 208.25,45.6094 208.25,46.0625 L208.25,46.1875 L206.7969,46.1875 L206.7969,43.7813 L210.7813,43.7813 L210.7813,44.6406 C210.7813,45.0469 210.8125,45.2188 210.8906,45.375 C211.0625,45.625 211.3438,45.7813 211.625,45.7813 C211.8906,45.7813 212.1563,45.6406 212.3281,45.4219 C212.4375,45.25 212.4688,45.1094 212.4688,44.6406 L212.4688,42.0938 L204.8438,42.0938 C204.4063,42.0938 204.2813,42.1094 204.125,42.2031 C203.875,42.3594 203.7188,42.6563 203.7188,42.9375 C203.7188,43.2188 203.8594,43.4688 204.0781,43.6406 C204.2344,43.75 204.4219,43.7813 204.8438,43.7813 L205.0938,43.7813 L205.0938,50.2969 L204.8438,50.2969 C204.4375,50.2969 204.2813,50.3125 204.125,50.4219 C203.875,50.5938 203.7188,50.8594 203.7188,51.1563 C203.7188,51.4219 203.8594,51.6719 204.0781,51.8281 C204.2188,51.9531 204.4531,52 204.8438,52 L212.8438,52 L212.8438,49.4219 C212.8438,48.9844 212.8125,48.8438 212.7344,48.6875 C212.5625,48.4375 212.2813,48.2813 212,48.2813 C211.7344,48.2813 211.4688,48.3906 211.2969,48.6406 C211.1875,48.7969 211.1563,48.9375 211.1563,49.4219 L211.1563,50.2969 L206.7969,50.2969 L206.7969,47.875 Z " fill="#FFFFFF"/><text fill="#FFFFFF" font-family="sans-serif" font-size="14" lengthAdjust="spacing" textLength="55" x="222" y="51.8467">STATUS</text><line style="stroke:#E7E7E7;stroke-width:0.5;" x1="194" x2="279" y1="63" y2="63"/><text fill="#FFFFFF" font-family="sans-serif" font-size="14" lengthAdjust="spacing" textLength="52" x="199" y="79.9951">ACTIVE</text><text fill="#FFFFFF" font-family="sans-serif" font-size="14" lengthAdjust="spacing" textLength="66" x="199" y="96.292">INACTIVE</text><line style="stroke:#E7E7E7;stroke-width:0.5;" x1="194" x2="279" y1="103.5938" y2="103.5938"/></g><!--class STATE--><g id="elem_STATE"><rect codeLine="114" fill="#313139" height="96.8906" id="STATE" rx="2.5" ry="2.5" style="stroke:#E7E7E7;stroke-width:0.5;" width="91" x="37" y="270"/><ellipse cx="57.85" cy="286" fill="#852D19" rx="11" ry="11" style="stroke:#E7E7E7;stroke-width:1.0;"/><path d="M56.6469,286.875 L58.1,286.875 L58.1,286.9844 C58.1,287.3906 58.1313,287.5469 58.2094,287.7031 C58.3656,287.9531 58.6469,288.1094 58.9438,288.1094 C59.1938,288.1094 59.4594,287.9688 59.6156,287.75 C59.7406,287.5938 59.7719,287.4375 59.7719,286.9844 L59.7719,285.0625 C59.7719,284.9063 59.7719,284.8594 59.7563,284.7031 C59.6938,284.2344 59.3813,283.9219 58.9281,283.9219 C58.6781,283.9219 58.4125,284.0625 58.2406,284.2813 C58.1313,284.4531 58.1,284.6094 58.1,285.0625 L58.1,285.1875 L56.6469,285.1875 L56.6469,282.7813 L60.6313,282.7813 L60.6313,283.6406 C60.6313,284.0469 60.6625,284.2188 60.7406,284.375 C60.9125,284.625 61.1938,284.7813 61.475,284.7813 C61.7406,284.7813 62.0063,284.6406 62.1781,284.4219 C62.2875,284.25 62.3188,284.1094 62.3188,283.6406 L62.3188,281.0938 L54.6938,281.0938 C54.2563,281.0938 54.1313,281.1094 53.975,281.2031 C53.725,281.3594 53.5688,281.6563 53.5688,281.9375 C53.5688,282.2188 53.7094,282.4688 53.9281,282.6406 C54.0844,282.75 54.2719,282.7813 54.6938,282.7813 L54.9438,282.7813 L54.9438,289.2969 L54.6938,289.2969 C54.2875,289.2969 54.1313,289.3125 53.975,289.4219 C53.725,289.5938 53.5688,289.8594 53.5688,290.1563 C53.5688,290.4219 53.7094,290.6719 53.9281,290.8281 C54.0688,290.9531 54.3031,291 54.6938,291 L62.6938,291 L62.6938,288.4219 C62.6938,287.9844 62.6625,287.8438 62.5844,287.6875 C62.4125,287.4375 62.1313,287.2813 61.85,287.2813 C61.5844,287.2813 61.3188,287.3906 61.1469,287.6406 C61.0375,287.7969 61.0063,287.9375 61.0063,288.4219 L61.0063,289.2969 L56.6469,289.2969 L56.6469,286.875 Z " fill="#FFFFFF"/><text fill="#FFFFFF" font-family="sans-serif" font-size="14" lengthAdjust="spacing" textLength="46" x="73.15" y="290.8467">STATE</text><line style="stroke:#E7E7E7;stroke-width:0.5;" x1="38" x2="127" y1="302" y2="302"/><text fill="#FFFFFF" font-family="sans-serif" font-size="14" lengthAdjust="spacing" textLength="79" x="43" y="318.9951">APPROVED</text><text fill="#FFFFFF" font-family="sans-serif" font-size="14" lengthAdjust="spacing" textLength="64" x="43" y="335.292">PENDING</text><text fill="#FFFFFF" font-family="sans-serif" font-size="14" lengthAdjust="spacing" textLength="72" x="43" y="351.5889">DECLINED</text><line style="stroke:#E7E7E7;stroke-width:0.5;" x1="38" x2="127" y1="358.8906" y2="358.8906"/></g><!--reverse link Person to Client--><g id="link_Person_Client"><path d="M1031.5,442.072 C1031.5,480.669 1031.5,504.098 1031.5,533.436 " fill="none" id="Person-backto-Client" style="stroke:#E7E7E7;stroke-width:1.0;"/><polygon fill="none" points="1031.5,424.072,1025.5,442.072,1037.5,442.072,1031.5,424.072" style="stroke:#E7E7E7;stroke-width:1.0;"/></g><!--reverse link Person to Employee--><g id="link_Person_Employee"><path d="M932.0411,437.4898 C917.5461,453.5698 914.421,456.321 899.5,471 C889.413,480.923 878.488,490.982 867.47,500.72 " fill="none" id="Person-backto-Employee" style="stroke:#E7E7E7;stroke-width:1.0;"/><polygon fill="none" points="944.093,424.12,927.5845,433.4725,936.4977,441.5071,944.093,424.12" style="stroke:#E7E7E7;stroke-width:1.0;"/></g><!--reverse link Account to CurrentAccount--><g id="link_Account_CurrentAccount"><path codeLine="120" d="M1432.5511,422.3457 C1463.7311,465.0697 1489,499.691 1513.46,533.201 " fill="none" id="Account-backto-CurrentAccount" style="stroke:#E7E7E7;stroke-width:1.0;"/><polygon fill="none" points="1421.94,407.806,1427.7045,425.8828,1437.3977,418.8087,1421.94,407.806" style="stroke:#E7E7E7;stroke-width:1.0;"/><text fill="#FFFFFF" font-family="sans-serif" font-size="13" lengthAdjust="spacing" textLength="52" x="1467.5" y="467.0669">extends</text></g><!--reverse link Account to SavingsAccount--><g id="link_Account_SavingsAccount"><path codeLine="121" d="M1307.1947,424.0256 C1286.6347,466.7496 1270.78,499.691 1254.65,533.201 " fill="none" id="Account-backto-SavingsAccount" style="stroke:#E7E7E7;stroke-width:1.0;"/><polygon fill="none" points="1315,407.806,1301.7881,421.4239,1312.6012,426.6274,1315,407.806" style="stroke:#E7E7E7;stroke-width:1.0;"/><text fill="#FFFFFF" font-family="sans-serif" font-size="13" lengthAdjust="spacing" textLength="52" x="1289.5" y="467.0669">extends</text></g><!--reverse link Account to Operation--><g id="link_Account_Operation"><path codeLine="122" d="M1375.6721,419.4646 C1384.6121,487.1166 1387.1,569.826 1358.5,647 C1350.5,668.585 1337.82,689.146 1323.49,707.723 " fill="none" id="Account-backto-Operation" style="stroke:#E7E7E7;stroke-width:1.0;"/><polygon fill="#E7E7E7" points="1374.1,407.568,1370.9205,414.0403,1375.6721,419.4646,1378.8516,412.9923,1374.1,407.568" style="stroke:#E7E7E7;stroke-width:1.0;"/><text fill="#FFFFFF" font-family="sans-serif" font-size="13" lengthAdjust="spacing" textLength="8" x="1367.1828" y="427.9233">1</text><text fill="#FFFFFF" font-family="sans-serif" font-size="13" lengthAdjust="spacing" textLength="23" x="1306.9837" y="697.0683">0..*</text></g><!--reverse link Account to Client--><g id="link_Account_Client"><path codeLine="123" d="M1276.6388,416.3368 C1254.0988,439.4868 1236.21,454.078 1208.5,471 C1170.35,494.3 1151.41,478.992 1112.5,501 C1097.11,509.707 1082.1,521.728 1069.26,533.454 " fill="none" id="Account-backto-Client" style="stroke:#E7E7E7;stroke-width:1.0;"/><polygon fill="#E7E7E7" points="1285.01,407.739,1277.9584,409.2475,1276.6388,416.3368,1283.6903,414.8283,1285.01,407.739" style="stroke:#E7E7E7;stroke-width:1.0;"/><text fill="#FFFFFF" font-family="sans-serif" font-size="13" lengthAdjust="spacing" textLength="8" x="1270.6757" y="427.8071">1</text><text fill="#FFFFFF" font-family="sans-serif" font-size="13" lengthAdjust="spacing" textLength="23" x="1050.7734" y="522.3093">0..*</text></g><!--reverse link Account to Employee--><g id="link_Account_Employee"><path codeLine="124" d="M1231.7266,387.1049 C1203.2966,401.6479 1183.39,411.163 1154.5,424 C1065.94,463.353 1040.54,465.173 950.5,501 C933.055,507.941 914.685,515.433 896.706,522.87 " fill="none" id="Account-backto-Employee" style="stroke:#E7E7E7;stroke-width:1.0;"/><polygon fill="#E7E7E7" points="1242.41,381.64,1235.2467,380.8113,1231.7266,387.1049,1238.89,387.9336,1242.41,381.64" style="stroke:#E7E7E7;stroke-width:1.0;"/><text fill="#FFFFFF" font-family="sans-serif" font-size="13" lengthAdjust="spacing" textLength="8" x="1226.4086" y="382.4371">1</text><text fill="#FFFFFF" font-family="sans-serif" font-size="13" lengthAdjust="spacing" textLength="23" x="904.61" y="516.3748">0..*</text></g><!--reverse link Employee to Operation--><g id="link_Employee_Operation"><path codeLine="125" d="M907.4474,638.047 C975.7174,671.427 1050.35,707.92 1117.69,740.845 " fill="none" id="Employee-backto-Operation" style="stroke:#E7E7E7;stroke-width:1.0;"/><polygon fill="#E7E7E7" points="896.667,632.776,900.3002,639.005,907.4474,638.047,903.8142,631.818,896.667,632.776" style="stroke:#E7E7E7;stroke-width:1.0;"/><text fill="#FFFFFF" font-family="sans-serif" font-size="13" lengthAdjust="spacing" textLength="8" x="904.4933" y="633.139">1</text><text fill="#FFFFFF" font-family="sans-serif" font-size="13" lengthAdjust="spacing" textLength="23" x="1087.1149" y="734.0255">0..*</text></g><!--reverse link Mission to Employee--><g id="link_Mission_Employee"><path codeLine="126" d="M517.5987,401.2604 C538.8127,428.2494 557.606,448.369 585.5,471 C608.088,489.326 634.479,505.832 660.363,519.961 " fill="none" id="Mission-backto-Employee" style="stroke:#E7E7E7;stroke-width:1.0;"/><polygon fill="#E7E7E7" points="510.183,391.826,510.746,399.0151,517.5987,401.2604,517.0356,394.0713,510.183,391.826" style="stroke:#E7E7E7;stroke-width:1.0;"/><text fill="#FFFFFF" font-family="sans-serif" font-size="13" lengthAdjust="spacing" textLength="8" x="506.4866" y="411.3602">1</text><text fill="#FFFFFF" font-family="sans-serif" font-size="13" lengthAdjust="spacing" textLength="23" x="629.4632" y="513.2886">0..*</text></g><!--link MissionAssignment to Mission--><g id="link_MissionAssignment_Mission"><path codeLine="127" d="M429.35,128.094 C434.878,162.825 442.054,207.906 448.019,245.374 " fill="none" id="MissionAssignment-Mission" style="stroke:#E7E7E7;stroke-width:1.0;"/><text fill="#FFFFFF" font-family="sans-serif" font-size="13" lengthAdjust="spacing" textLength="74" x="439.5" y="179.0669">assigned to</text></g><!--link MissionAssignment to Employee--><g id="link_MissionAssignment_Employee"><path codeLine="128" d="M327.936,124.258 C279.824,153.308 228.399,188.523 215.5,213 C171.782,295.964 158.297,349.689 215.5,424 C269.349,493.955 511.698,537.803 660.328,558.611 " fill="none" id="MissionAssignment-Employee" style="stroke:#E7E7E7;stroke-width:1.0;"/><text fill="#FFFFFF" font-family="sans-serif" font-size="13" lengthAdjust="spacing" textLength="125" x="216.5" y="323.0669">assigned employee</text></g><!--reverse link Agency to Account--><g id="link_Agency_Account"><path codeLine="129" d="M1188.0208,136.9965 C1199.8108,149.3905 1203.96,153.781 1215.5,166 C1234.81,186.441 1255.53,208.491 1275.02,229.271 " fill="none" id="Agency-backto-Account" style="stroke:#E7E7E7;stroke-width:1.0;"/><polygon fill="#E7E7E7" points="1179.75,128.302,1180.9872,135.4062,1188.0208,136.9965,1186.7836,129.8923,1179.75,128.302" style="stroke:#E7E7E7;stroke-width:1.0;"/><text fill="#FFFFFF" font-family="sans-serif" font-size="13" lengthAdjust="spacing" textLength="8" x="1177.7523" y="148.2024">1</text><text fill="#FFFFFF" font-family="sans-serif" font-size="13" lengthAdjust="spacing" textLength="23" x="1244.2373" y="218.3175">0..*</text></g><!--reverse link Agency to Employee--><g id="link_Agency_Employee"><path codeLine="130" d="M1048.6577,106.1501 C1000.4377,129.7051 947.982,162.28 908.5,213 C847.722,291.078 871.503,331.082 837.5,424 C828.273,449.213 817.619,476.59 807.925,500.917 " fill="none" id="Agency-backto-Employee" style="stroke:#E7E7E7;stroke-width:1.0;"/><polygon fill="#E7E7E7" points="1059.44,100.883,1052.2932,99.9224,1048.6577,106.1501,1055.8045,107.1106,1059.44,100.883" style="stroke:#E7E7E7;stroke-width:1.0;"/><text fill="#FFFFFF" font-family="sans-serif" font-size="13" lengthAdjust="spacing" textLength="8" x="1043.6678" y="100.3404">1</text><text fill="#FFFFFF" font-family="sans-serif" font-size="13" lengthAdjust="spacing" textLength="23" x="786.7735" y="489.6919">0..*</text></g><!--reverse link Simulation to Client--><g id="link_Simulation_Client"><path codeLine="131" d="M870.2249,99.0142 C979.3479,124.0582 1119.37,163.909 1154.5,213 C1209.07,289.265 1186.22,335.75 1154.5,424 C1139.13,466.772 1105.57,506.009 1077.38,533.47 " fill="none" id="Simulation-backto-Client" style="stroke:#E7E7E7;stroke-width:1.0;"/><polygon fill="#E7E7E7" points="858.529,96.33,863.4822,101.5708,870.2249,99.0142,865.2717,93.7735,858.529,96.33" style="stroke:#E7E7E7;stroke-width:1.0;"/><text fill="#FFFFFF" font-family="sans-serif" font-size="13" lengthAdjust="spacing" textLength="8" x="866.5934" y="94.5494">1</text><text fill="#FFFFFF" font-family="sans-serif" font-size="13" lengthAdjust="spacing" textLength="23" x="1087.2422" y="522.3281">0..*</text></g><!--reverse link Simulation to Employee--><g id="link_Simulation_Employee"><path codeLine="132" d="M680.7908,145.9347 C664.5588,168.6727 655.866,185.691 647.5,213 C620.031,302.665 614.412,336.254 647.5,424 C658.134,452.2 676.803,478.53 696.771,500.973 " fill="none" id="Simulation-backto-Employee" style="stroke:#E7E7E7;stroke-width:1.0;"/><polygon fill="#E7E7E7" points="687.763,136.168,681.0213,138.7273,680.7908,145.9347,687.5325,143.3754,687.763,136.168" style="stroke:#E7E7E7;stroke-width:1.0;"/><text fill="#FFFFFF" font-family="sans-serif" font-size="13" lengthAdjust="spacing" textLength="8" x="672.9715" y="156.559">1</text><text fill="#FFFFFF" font-family="sans-serif" font-size="13" lengthAdjust="spacing" textLength="23" x="664.1568" y="489.7537">0..*</text></g><!--reverse link Credit to Employee--><g id="link_Credit_Employee"><path codeLine="133" d="M754.4551,403.6848 C759.2971,437.7828 763.374,466.49 768.218,500.6 " fill="none" id="Credit-backto-Employee" style="stroke:#E7E7E7;stroke-width:1.0;"/><polygon fill="#E7E7E7" points="752.768,391.804,749.6513,398.3068,754.4551,403.6848,757.5718,397.182,752.768,391.804" style="stroke:#E7E7E7;stroke-width:1.0;"/><text fill="#FFFFFF" font-family="sans-serif" font-size="13" lengthAdjust="spacing" textLength="8" x="745.3458" y="411.3362">1</text><text fill="#FFFFFF" font-family="sans-serif" font-size="13" lengthAdjust="spacing" textLength="23" x="743.1419" y="489.9729">0..*</text></g><!--reverse link Credit to Client--><g id="link_Credit_Client"><path codeLine="134" d="M829.3483,395.6801 C882.5123,442.3131 942.077,494.561 986.419,533.457 " fill="none" id="Credit-backto-Client" style="stroke:#E7E7E7;stroke-width:1.0;"/><polygon fill="#E7E7E7" points="820.327,387.767,822.2,394.7306,829.3483,395.6801,827.4753,388.7164,820.327,387.767" style="stroke:#E7E7E7;stroke-width:1.0;"/><text fill="#FFFFFF" font-family="sans-serif" font-size="13" lengthAdjust="spacing" textLength="7" x="828.0785" y="390.7378">*</text><text fill="#FFFFFF" font-family="sans-serif" font-size="13" lengthAdjust="spacing" textLength="8" x="969.9832" y="522.3128">1</text></g><!--reverse link Simulation to Credit--><g id="link_Simulation_Credit"><path codeLine="135" d="M742.5,148.231 C742.5,181.692 742.5,210.819 742.5,245.436 " fill="none" id="Simulation-backto-Credit" style="stroke:#E7E7E7;stroke-width:1.0;"/><polygon fill="#E7E7E7" points="742.5,136.231,738.5,142.231,742.5,148.231,746.5,142.231,742.5,136.231" style="stroke:#E7E7E7;stroke-width:1.0;"/><text fill="#FFFFFF" font-family="sans-serif" font-size="13" lengthAdjust="spacing" textLength="8" x="734.0375" y="156.6293">1</text><text fill="#FFFFFF" font-family="sans-serif" font-size="13" lengthAdjust="spacing" textLength="8" x="734.0875" y="234.2129">1</text></g><!--SRC=[XLLBRvmm4Bxlhq1xQbDjr5nNlRWBQf4I5ktIH3b5NZpT885DZKcxQlFVwmS6cqToGJ2Fxvlvx1do4ZTDWFASjLG4VrT1iC7c8sch4_1jS1Iye6VbEE4Iqnos0M7jgGHboZbWKJ0QOY7jwgciZS2YRMHgXh8VHsdvT0Q1NDWF7nrWvVrgi9MzHrVsdKEWd1s5SXqrYqOoFA-hLQxRsRMS0nLUL-m5EE7ufnWHxAtTeUw1ZlX5bjXuG0KLmA4H1zsoXnKxhZcu57Z3g86Xh7ArhMN1leL8a0GNJMCqjzeAAA5-PXJSM4maRGCZJHDMJNHEDS_47Bfa8vqpopZ9GeRMiGz7K1Ro10Bu8u0Il_ES4LcfbD4UiVnM4ChIvqTLNR8Bm2n2XILRtfOzZ1Rh03bl1LIITv0BAboKexBlRBfb7JHmC4OgH0fehjCxgLenrzluY0aqEIzgTPj71RaAB1zTEEI_KGUIppDL3PYA29nQuO-drDCp6F0kRDosYUsjFTs-1gudinil-sdNHgV1_8B0bPedTv68Iotz-pGwe2pU9zbZ6ja1zP5zdTvO3qXpJ1PA9ecKqQVgsq9deFbbxZ1nDHevVVcz6VR6qjaYHTMMZbO5wL4hHiLpUNcgySNSsq6H4-ES_GRobEEw4BXqVQEqvecsLOyfosfBCTq-KYjITBU2-gT4tZaTjT31xDd8K5IO_sh1Qv-qvfpSgxcA99EljIuWHOztKPB9juSu-nuUq0EwbHzXbEwFSJPaciskKz0kY-yLUvnqhwzEa855QNhOtqUXOeYIC4w-QT3TRPn8euotc_pBlyrc_9lOsbtZHut-0TEezSqwk9A1wy_NrrVhOJ2M0ingNFBQnRVgD-0YljqyImZJZI23RD8smDeE911iFhIlm8a52zuDoeYxQsh1srVcJCIyECi1FKPtdTzpNtNkcpUnbLSd_0S0]--></g></svg>