<?xml version="1.0" encoding="us-ascii" standalone="no"?><svg xmlns="http://www.w3.org/2000/svg" xmlns:xlink="http://www.w3.org/1999/xlink" contentStyleType="text/css" height="1024px" preserveAspectRatio="none" style="width:1705px;height:1024px;background:#1B1B1B;" version="1.1" viewBox="0 0 1705 1024" width="1705px" zoomAndPan="magnify"><defs/><g><rect fill="#1B1B1B" height="1024" style="stroke:none;stroke-width:1.0;" width="1705" x="0" y="0"/><!--class Account--><g id="elem_Account"><rect codeLine="1" fill="#313139" height="178.375" id="Account" rx="2.5" ry="2.5" style="stroke:#E7E7E7;stroke-width:0.5;" width="206" x="184.2768" y="328"/><ellipse cx="253.5268" cy="344" fill="#2E5233" rx="11" ry="11" style="stroke:#E7E7E7;stroke-width:1.0;"/><path d="M255.8706,339.6719 C254.9331,339.2344 254.3393,339.0938 253.4643,339.0938 C250.8393,339.0938 248.8393,341.1719 248.8393,343.8906 L248.8393,345.0156 C248.8393,347.5938 250.9487,349.4844 253.8393,349.4844 C255.0581,349.4844 256.2143,349.1875 256.9643,348.6406 C257.5424,348.2344 257.8706,347.7813 257.8706,347.3906 C257.8706,346.9375 257.4799,346.5469 257.0112,346.5469 C256.7924,346.5469 256.5893,346.625 256.4018,346.8125 C255.9487,347.2969 255.9487,347.2969 255.7612,347.3906 C255.3393,347.6563 254.6518,347.7813 253.8862,347.7813 C251.8393,347.7813 250.5424,346.6875 250.5424,344.9844 L250.5424,343.8906 C250.5424,342.1094 251.7924,340.7969 253.5268,340.7969 C254.1049,340.7969 254.7143,340.9531 255.1831,341.2031 C255.6674,341.4844 255.8393,341.7031 255.9331,342.1094 C255.9956,342.5156 256.0268,342.6406 256.1674,342.7656 C256.3081,342.9063 256.5424,343.0156 256.7612,343.0156 C257.0268,343.0156 257.2924,342.875 257.4643,342.6563 C257.5737,342.5 257.6049,342.3125 257.6049,341.8906 L257.6049,340.4688 C257.6049,340.0313 257.5893,339.9063 257.4956,339.75 C257.3393,339.4844 257.0581,339.3438 256.7612,339.3438 C256.4643,339.3438 256.2612,339.4375 256.0424,339.75 L255.8706,339.6719 Z " fill="#FFFFFF"/><text fill="#FFFFFF" font-family="sans-serif" font-size="14" lengthAdjust="spacing" textLength="59" x="274.0268" y="348.8467">Account</text><line style="stroke:#E7E7E7;stroke-width:0.5;" x1="185.2768" x2="389.2768" y1="360" y2="360"/><rect fill="none" height="6" style="stroke:#C82930;stroke-width:1.0;" width="6" x="192.2768" y="370.6484"/><text fill="#FFFFFF" font-family="sans-serif" font-size="14" lengthAdjust="spacing" textLength="143" x="204.2768" y="376.9951">accountNumber: int</text><rect fill="none" height="6" style="stroke:#C82930;stroke-width:1.0;" width="6" x="192.2768" y="386.9453"/><text fill="#FFFFFF" font-family="sans-serif" font-size="14" lengthAdjust="spacing" textLength="114" x="204.2768" y="393.292">balance: double</text><rect fill="none" height="6" style="stroke:#C82930;stroke-width:1.0;" width="6" x="192.2768" y="403.2422"/><text fill="#FFFFFF" font-family="sans-serif" font-size="14" lengthAdjust="spacing" textLength="139" x="204.2768" y="409.5889">creationDate: Date</text><rect fill="none" height="6" style="stroke:#C82930;stroke-width:1.0;" width="6" x="192.2768" y="419.5391"/><text fill="#FFFFFF" font-family="sans-serif" font-size="14" lengthAdjust="spacing" textLength="108" x="204.2768" y="425.8857">status: STATUS</text><line style="stroke:#E7E7E7;stroke-width:0.5;" x1="185.2768" x2="389.2768" y1="433.1875" y2="433.1875"/><ellipse cx="195.2768" cy="446.8359" fill="#84BE84" rx="3" ry="3" style="stroke:#038048;stroke-width:1.0;"/><text fill="#FFFFFF" font-family="sans-serif" font-size="14" lengthAdjust="spacing" textLength="180" x="204.2768" y="450.1826">getAccountNumber(): int</text><ellipse cx="195.2768" cy="463.1328" fill="#84BE84" rx="3" ry="3" style="stroke:#038048;stroke-width:1.0;"/><text fill="#FFFFFF" font-family="sans-serif" font-size="14" lengthAdjust="spacing" textLength="149" x="204.2768" y="466.4795">getBalance(): double</text><ellipse cx="195.2768" cy="479.4297" fill="#84BE84" rx="3" ry="3" style="stroke:#038048;stroke-width:1.0;"/><text fill="#FFFFFF" font-family="sans-serif" font-size="14" lengthAdjust="spacing" textLength="176" x="204.2768" y="482.7764">getCreationDate(): Date</text><ellipse cx="195.2768" cy="495.7266" fill="#84BE84" rx="3" ry="3" style="stroke:#038048;stroke-width:1.0;"/><text fill="#FFFFFF" font-family="sans-serif" font-size="14" lengthAdjust="spacing" textLength="145" x="204.2768" y="499.0732">getStatus(): STATUS</text></g><!--class CurrentAccount--><g id="elem_CurrentAccount"><rect codeLine="12" fill="#313139" height="80.5938" id="CurrentAccount" rx="2.5" ry="2.5" style="stroke:#E7E7E7;stroke-width:0.5;" width="189" x="59.7765" y="648.5"/><ellipse cx="94.1265" cy="664.5" fill="#2E5233" rx="11" ry="11" style="stroke:#E7E7E7;stroke-width:1.0;"/><path d="M96.4703,660.1719 C95.5328,659.7344 94.939,659.5938 94.064,659.5938 C91.439,659.5938 89.439,661.6719 89.439,664.3906 L89.439,665.5156 C89.439,668.0938 91.5484,669.9844 94.439,669.9844 C95.6578,669.9844 96.814,669.6875 97.564,669.1406 C98.1421,668.7344 98.4703,668.2813 98.4703,667.8906 C98.4703,667.4375 98.0796,667.0469 97.6109,667.0469 C97.3921,667.0469 97.189,667.125 97.0015,667.3125 C96.5484,667.7969 96.5484,667.7969 96.3609,667.8906 C95.939,668.1563 95.2515,668.2813 94.4859,668.2813 C92.439,668.2813 91.1421,667.1875 91.1421,665.4844 L91.1421,664.3906 C91.1421,662.6094 92.3921,661.2969 94.1265,661.2969 C94.7046,661.2969 95.314,661.4531 95.7828,661.7031 C96.2671,661.9844 96.439,662.2031 96.5328,662.6094 C96.5953,663.0156 96.6265,663.1406 96.7671,663.2656 C96.9078,663.4063 97.1421,663.5156 97.3609,663.5156 C97.6265,663.5156 97.8921,663.375 98.064,663.1563 C98.1734,663 98.2046,662.8125 98.2046,662.3906 L98.2046,660.9688 C98.2046,660.5313 98.189,660.4063 98.0953,660.25 C97.939,659.9844 97.6578,659.8438 97.3609,659.8438 C97.064,659.8438 96.8609,659.9375 96.6421,660.25 L96.4703,660.1719 Z " fill="#FFFFFF"/><text fill="#FFFFFF" font-family="sans-serif" font-size="14" lengthAdjust="spacing" textLength="114" x="112.4265" y="669.3467">CurrentAccount</text><line style="stroke:#E7E7E7;stroke-width:0.5;" x1="60.7765" x2="247.7765" y1="680.5" y2="680.5"/><rect fill="none" height="6" style="stroke:#C82930;stroke-width:1.0;" width="6" x="67.7765" y="691.1484"/><text fill="#FFFFFF" font-family="sans-serif" font-size="14" lengthAdjust="spacing" textLength="126" x="79.7765" y="697.4951">overdraft: double</text><line style="stroke:#E7E7E7;stroke-width:0.5;" x1="60.7765" x2="247.7765" y1="704.7969" y2="704.7969"/><ellipse cx="70.7765" cy="718.4453" fill="#84BE84" rx="3" ry="3" style="stroke:#038048;stroke-width:1.0;"/><text fill="#FFFFFF" font-family="sans-serif" font-size="14" lengthAdjust="spacing" textLength="163" x="79.7765" y="721.792">getOverdraft(): double</text></g><!--class SavingsAccount--><g id="elem_SavingsAccount"><rect codeLine="17" fill="#313139" height="80.5938" id="SavingsAccount" rx="2.5" ry="2.5" style="stroke:#E7E7E7;stroke-width:0.5;" width="211" x="283.7768" y="648.5"/><ellipse cx="328.5268" cy="664.5" fill="#2E5233" rx="11" ry="11" style="stroke:#E7E7E7;stroke-width:1.0;"/><path d="M330.8706,660.1719 C329.9331,659.7344 329.3393,659.5938 328.4643,659.5938 C325.8393,659.5938 323.8393,661.6719 323.8393,664.3906 L323.8393,665.5156 C323.8393,668.0938 325.9487,669.9844 328.8393,669.9844 C330.0581,669.9844 331.2143,669.6875 331.9643,669.1406 C332.5424,668.7344 332.8706,668.2813 332.8706,667.8906 C332.8706,667.4375 332.4799,667.0469 332.0112,667.0469 C331.7924,667.0469 331.5893,667.125 331.4018,667.3125 C330.9487,667.7969 330.9487,667.7969 330.7612,667.8906 C330.3393,668.1563 329.6518,668.2813 328.8862,668.2813 C326.8393,668.2813 325.5424,667.1875 325.5424,665.4844 L325.5424,664.3906 C325.5424,662.6094 326.7924,661.2969 328.5268,661.2969 C329.1049,661.2969 329.7143,661.4531 330.1831,661.7031 C330.6674,661.9844 330.8393,662.2031 330.9331,662.6094 C330.9956,663.0156 331.0268,663.1406 331.1674,663.2656 C331.3081,663.4063 331.5424,663.5156 331.7612,663.5156 C332.0268,663.5156 332.2924,663.375 332.4643,663.1563 C332.5737,663 332.6049,662.8125 332.6049,662.3906 L332.6049,660.9688 C332.6049,660.5313 332.5893,660.4063 332.4956,660.25 C332.3393,659.9844 332.0581,659.8438 331.7612,659.8438 C331.4643,659.8438 331.2612,659.9375 331.0424,660.25 L330.8706,660.1719 Z " fill="#FFFFFF"/><text fill="#FFFFFF" font-family="sans-serif" font-size="14" lengthAdjust="spacing" textLength="113" x="349.0268" y="669.3467">SavingsAccount</text><line style="stroke:#E7E7E7;stroke-width:0.5;" x1="284.7768" x2="493.7768" y1="680.5" y2="680.5"/><rect fill="none" height="6" style="stroke:#C82930;stroke-width:1.0;" width="6" x="291.7768" y="691.1484"/><text fill="#FFFFFF" font-family="sans-serif" font-size="14" lengthAdjust="spacing" textLength="150" x="303.7768" y="697.4951">interestRate: double</text><line style="stroke:#E7E7E7;stroke-width:0.5;" x1="284.7768" x2="493.7768" y1="704.7969" y2="704.7969"/><ellipse cx="294.7768" cy="718.4453" fill="#84BE84" rx="3" ry="3" style="stroke:#038048;stroke-width:1.0;"/><text fill="#FFFFFF" font-family="sans-serif" font-size="14" lengthAdjust="spacing" textLength="185" x="303.7768" y="721.792">getInterestRate(): double</text></g><!--class Person--><g id="elem_Person"><rect codeLine="22" fill="#313139" height="210.9688" id="Person" rx="2.5" ry="2.5" style="stroke:#E7E7E7;stroke-width:0.5;" width="210" x="725.2768" y="311.5"/><ellipse cx="801.5268" cy="327.5" fill="#2E5233" rx="11" ry="11" style="stroke:#E7E7E7;stroke-width:1.0;"/><path d="M803.8706,323.1719 C802.9331,322.7344 802.3393,322.5938 801.4643,322.5938 C798.8393,322.5938 796.8393,324.6719 796.8393,327.3906 L796.8393,328.5156 C796.8393,331.0938 798.9487,332.9844 801.8393,332.9844 C803.0581,332.9844 804.2143,332.6875 804.9643,332.1406 C805.5424,331.7344 805.8706,331.2813 805.8706,330.8906 C805.8706,330.4375 805.4799,330.0469 805.0112,330.0469 C804.7924,330.0469 804.5893,330.125 804.4018,330.3125 C803.9487,330.7969 803.9487,330.7969 803.7612,330.8906 C803.3393,331.1563 802.6518,331.2813 801.8862,331.2813 C799.8393,331.2813 798.5424,330.1875 798.5424,328.4844 L798.5424,327.3906 C798.5424,325.6094 799.7924,324.2969 801.5268,324.2969 C802.1049,324.2969 802.7143,324.4531 803.1831,324.7031 C803.6674,324.9844 803.8393,325.2031 803.9331,325.6094 C803.9956,326.0156 804.0268,326.1406 804.1674,326.2656 C804.3081,326.4063 804.5424,326.5156 804.7612,326.5156 C805.0268,326.5156 805.2924,326.375 805.4643,326.1563 C805.5737,326 805.6049,325.8125 805.6049,325.3906 L805.6049,323.9688 C805.6049,323.5313 805.5893,323.4063 805.4956,323.25 C805.3393,322.9844 805.0581,322.8438 804.7612,322.8438 C804.4643,322.8438 804.2612,322.9375 804.0424,323.25 L803.8706,323.1719 Z " fill="#FFFFFF"/><text fill="#FFFFFF" font-family="sans-serif" font-size="14" lengthAdjust="spacing" textLength="49" x="822.0268" y="332.3467">Person</text><line style="stroke:#E7E7E7;stroke-width:0.5;" x1="726.2768" x2="934.2768" y1="343.5" y2="343.5"/><rect fill="none" height="6" style="stroke:#C82930;stroke-width:1.0;" width="6" x="733.2768" y="354.1484"/><text fill="#FFFFFF" font-family="sans-serif" font-size="14" lengthAdjust="spacing" textLength="85" x="745.2768" y="360.4951">nom: String</text><rect fill="none" height="6" style="stroke:#C82930;stroke-width:1.0;" width="6" x="733.2768" y="370.4453"/><text fill="#FFFFFF" font-family="sans-serif" font-size="14" lengthAdjust="spacing" textLength="110" x="745.2768" y="376.792">prenom: String</text><rect fill="none" height="6" style="stroke:#C82930;stroke-width:1.0;" width="6" x="733.2768" y="386.7422"/><text fill="#FFFFFF" font-family="sans-serif" font-size="14" lengthAdjust="spacing" textLength="147" x="745.2768" y="393.0889">dateNaissance: Date</text><rect fill="none" height="6" style="stroke:#C82930;stroke-width:1.0;" width="6" x="733.2768" y="403.0391"/><text fill="#FFFFFF" font-family="sans-serif" font-size="14" lengthAdjust="spacing" textLength="128" x="745.2768" y="409.3857">telephone: String</text><rect fill="none" height="6" style="stroke:#C82930;stroke-width:1.0;" width="6" x="733.2768" y="419.3359"/><text fill="#FFFFFF" font-family="sans-serif" font-size="14" lengthAdjust="spacing" textLength="108" x="745.2768" y="425.6826">adresse: String</text><line style="stroke:#E7E7E7;stroke-width:0.5;" x1="726.2768" x2="934.2768" y1="432.9844" y2="432.9844"/><ellipse cx="736.2768" cy="446.6328" fill="#84BE84" rx="3" ry="3" style="stroke:#038048;stroke-width:1.0;"/><text fill="#FFFFFF" font-family="sans-serif" font-size="14" lengthAdjust="spacing" textLength="121" x="745.2768" y="449.9795">getNom(): String</text><ellipse cx="736.2768" cy="462.9297" fill="#84BE84" rx="3" ry="3" style="stroke:#038048;stroke-width:1.0;"/><text fill="#FFFFFF" font-family="sans-serif" font-size="14" lengthAdjust="spacing" textLength="144" x="745.2768" y="466.2764">getPrenom(): String</text><ellipse cx="736.2768" cy="479.2266" fill="#84BE84" rx="3" ry="3" style="stroke:#038048;stroke-width:1.0;"/><text fill="#FFFFFF" font-family="sans-serif" font-size="14" lengthAdjust="spacing" textLength="184" x="745.2768" y="482.5732">getDateNaissance(): Date</text><ellipse cx="736.2768" cy="495.5234" fill="#84BE84" rx="3" ry="3" style="stroke:#038048;stroke-width:1.0;"/><text fill="#FFFFFF" font-family="sans-serif" font-size="14" lengthAdjust="spacing" textLength="165" x="745.2768" y="498.8701">getTelephone(): String</text><ellipse cx="736.2768" cy="511.8203" fill="#84BE84" rx="3" ry="3" style="stroke:#038048;stroke-width:1.0;"/><text fill="#FFFFFF" font-family="sans-serif" font-size="14" lengthAdjust="spacing" textLength="145" x="745.2768" y="515.167">getAdresse(): String</text></g><!--class Client--><g id="elem_Client"><rect codeLine="35" fill="#313139" height="80.5938" id="Client" rx="2.5" ry="2.5" style="stroke:#E7E7E7;stroke-width:0.5;" width="127" x="529.7768" y="648.5"/><ellipse cx="568.1768" cy="664.5" fill="#2E5233" rx="11" ry="11" style="stroke:#E7E7E7;stroke-width:1.0;"/><path d="M570.5206,660.1719 C569.5831,659.7344 568.9893,659.5938 568.1143,659.5938 C565.4893,659.5938 563.4893,661.6719 563.4893,664.3906 L563.4893,665.5156 C563.4893,668.0938 565.5987,669.9844 568.4893,669.9844 C569.7081,669.9844 570.8643,669.6875 571.6143,669.1406 C572.1924,668.7344 572.5206,668.2813 572.5206,667.8906 C572.5206,667.4375 572.1299,667.0469 571.6612,667.0469 C571.4424,667.0469 571.2393,667.125 571.0518,667.3125 C570.5987,667.7969 570.5987,667.7969 570.4112,667.8906 C569.9893,668.1563 569.3018,668.2813 568.5362,668.2813 C566.4893,668.2813 565.1924,667.1875 565.1924,665.4844 L565.1924,664.3906 C565.1924,662.6094 566.4424,661.2969 568.1768,661.2969 C568.7549,661.2969 569.3643,661.4531 569.8331,661.7031 C570.3174,661.9844 570.4893,662.2031 570.5831,662.6094 C570.6456,663.0156 570.6768,663.1406 570.8174,663.2656 C570.9581,663.4063 571.1924,663.5156 571.4112,663.5156 C571.6768,663.5156 571.9424,663.375 572.1143,663.1563 C572.2237,663 572.2549,662.8125 572.2549,662.3906 L572.2549,660.9688 C572.2549,660.5313 572.2393,660.4063 572.1456,660.25 C571.9893,659.9844 571.7081,659.8438 571.4112,659.8438 C571.1143,659.8438 570.9112,659.9375 570.6924,660.25 L570.5206,660.1719 Z " fill="#FFFFFF"/><text fill="#FFFFFF" font-family="sans-serif" font-size="14" lengthAdjust="spacing" textLength="43" x="587.3768" y="669.3467">Client</text><line style="stroke:#E7E7E7;stroke-width:0.5;" x1="530.7768" x2="655.7768" y1="680.5" y2="680.5"/><rect fill="none" height="6" style="stroke:#C82930;stroke-width:1.0;" width="6" x="537.7768" y="691.1484"/><text fill="#FFFFFF" font-family="sans-serif" font-size="14" lengthAdjust="spacing" textLength="64" x="549.7768" y="697.4951">code: int</text><line style="stroke:#E7E7E7;stroke-width:0.5;" x1="530.7768" x2="655.7768" y1="704.7969" y2="704.7969"/><ellipse cx="540.7768" cy="718.4453" fill="#84BE84" rx="3" ry="3" style="stroke:#038048;stroke-width:1.0;"/><text fill="#FFFFFF" font-family="sans-serif" font-size="14" lengthAdjust="spacing" textLength="101" x="549.7768" y="721.792">getCode(): int</text></g><!--class Employee--><g id="elem_Employee"><rect codeLine="40" fill="#313139" height="145.7813" id="Employee" rx="2.5" ry="2.5" style="stroke:#E7E7E7;stroke-width:0.5;" width="236" x="870.2768" y="616"/><ellipse cx="948.0268" cy="632" fill="#2E5233" rx="11" ry="11" style="stroke:#E7E7E7;stroke-width:1.0;"/><path d="M950.3706,627.6719 C949.4331,627.2344 948.8393,627.0938 947.9643,627.0938 C945.3393,627.0938 943.3393,629.1719 943.3393,631.8906 L943.3393,633.0156 C943.3393,635.5938 945.4487,637.4844 948.3393,637.4844 C949.5581,637.4844 950.7143,637.1875 951.4643,636.6406 C952.0424,636.2344 952.3706,635.7813 952.3706,635.3906 C952.3706,634.9375 951.9799,634.5469 951.5112,634.5469 C951.2924,634.5469 951.0893,634.625 950.9018,634.8125 C950.4487,635.2969 950.4487,635.2969 950.2612,635.3906 C949.8393,635.6563 949.1518,635.7813 948.3862,635.7813 C946.3393,635.7813 945.0424,634.6875 945.0424,632.9844 L945.0424,631.8906 C945.0424,630.1094 946.2924,628.7969 948.0268,628.7969 C948.6049,628.7969 949.2143,628.9531 949.6831,629.2031 C950.1674,629.4844 950.3393,629.7031 950.4331,630.1094 C950.4956,630.5156 950.5268,630.6406 950.6674,630.7656 C950.8081,630.9063 951.0424,631.0156 951.2612,631.0156 C951.5268,631.0156 951.7924,630.875 951.9643,630.6563 C952.0737,630.5 952.1049,630.3125 952.1049,629.8906 L952.1049,628.4688 C952.1049,628.0313 952.0893,627.9063 951.9956,627.75 C951.8393,627.4844 951.5581,627.3438 951.2612,627.3438 C950.9643,627.3438 950.7612,627.4375 950.5424,627.75 L950.3706,627.6719 Z " fill="#FFFFFF"/><text fill="#FFFFFF" font-family="sans-serif" font-size="14" lengthAdjust="spacing" textLength="72" x="968.5268" y="636.8467">Employee</text><line style="stroke:#E7E7E7;stroke-width:0.5;" x1="871.2768" x2="1105.2768" y1="648" y2="648"/><rect fill="none" height="6" style="stroke:#C82930;stroke-width:1.0;" width="6" x="878.2768" y="658.6484"/><text fill="#FFFFFF" font-family="sans-serif" font-size="14" lengthAdjust="spacing" textLength="97" x="890.2768" y="664.9951">matricule: int</text><rect fill="none" height="6" style="stroke:#C82930;stroke-width:1.0;" width="6" x="878.2768" y="674.9453"/><text fill="#FFFFFF" font-family="sans-serif" font-size="14" lengthAdjust="spacing" textLength="173" x="890.2768" y="681.292">dateRecrutement: Date</text><rect fill="none" height="6" style="stroke:#C82930;stroke-width:1.0;" width="6" x="878.2768" y="691.2422"/><text fill="#FFFFFF" font-family="sans-serif" font-size="14" lengthAdjust="spacing" textLength="92" x="890.2768" y="697.5889">email: String</text><line style="stroke:#E7E7E7;stroke-width:0.5;" x1="871.2768" x2="1105.2768" y1="704.8906" y2="704.8906"/><ellipse cx="881.2768" cy="718.5391" fill="#84BE84" rx="3" ry="3" style="stroke:#038048;stroke-width:1.0;"/><text fill="#FFFFFF" font-family="sans-serif" font-size="14" lengthAdjust="spacing" textLength="130" x="890.2768" y="721.8857">getMatricule(): int</text><ellipse cx="881.2768" cy="734.8359" fill="#84BE84" rx="3" ry="3" style="stroke:#038048;stroke-width:1.0;"/><text fill="#FFFFFF" font-family="sans-serif" font-size="14" lengthAdjust="spacing" textLength="210" x="890.2768" y="738.1826">getDateRecrutement(): Date</text><ellipse cx="881.2768" cy="751.1328" fill="#84BE84" rx="3" ry="3" style="stroke:#038048;stroke-width:1.0;"/><text fill="#FFFFFF" font-family="sans-serif" font-size="14" lengthAdjust="spacing" textLength="127" x="890.2768" y="754.4795">getEmail(): String</text></g><!--class Mission--><g id="elem_Mission"><rect codeLine="49" fill="#313139" height="145.7813" id="Mission" rx="2.5" ry="2.5" style="stroke:#E7E7E7;stroke-width:0.5;" width="198" x="1309.2778" y="344"/><ellipse cx="1378.0278" cy="360" fill="#2E5233" rx="11" ry="11" style="stroke:#E7E7E7;stroke-width:1.0;"/><path d="M1380.3715,355.6719 C1379.434,355.2344 1378.8403,355.0938 1377.9653,355.0938 C1375.3403,355.0938 1373.3403,357.1719 1373.3403,359.8906 L1373.3403,361.0156 C1373.3403,363.5938 1375.4497,365.4844 1378.3403,365.4844 C1379.559,365.4844 1380.7153,365.1875 1381.4653,364.6406 C1382.0434,364.2344 1382.3715,363.7813 1382.3715,363.3906 C1382.3715,362.9375 1381.9809,362.5469 1381.5122,362.5469 C1381.2934,362.5469 1381.0903,362.625 1380.9028,362.8125 C1380.4497,363.2969 1380.4497,363.2969 1380.2622,363.3906 C1379.8403,363.6563 1379.1528,363.7813 1378.3872,363.7813 C1376.3403,363.7813 1375.0434,362.6875 1375.0434,360.9844 L1375.0434,359.8906 C1375.0434,358.1094 1376.2934,356.7969 1378.0278,356.7969 C1378.6059,356.7969 1379.2153,356.9531 1379.684,357.2031 C1380.1684,357.4844 1380.3403,357.7031 1380.434,358.1094 C1380.4965,358.5156 1380.5278,358.6406 1380.6684,358.7656 C1380.809,358.9063 1381.0434,359.0156 1381.2622,359.0156 C1381.5278,359.0156 1381.7934,358.875 1381.9653,358.6563 C1382.0747,358.5 1382.1059,358.3125 1382.1059,357.8906 L1382.1059,356.4688 C1382.1059,356.0313 1382.0903,355.9063 1381.9965,355.75 C1381.8403,355.4844 1381.559,355.3438 1381.2622,355.3438 C1380.9653,355.3438 1380.7622,355.4375 1380.5434,355.75 L1380.3715,355.6719 Z " fill="#FFFFFF"/><text fill="#FFFFFF" font-family="sans-serif" font-size="14" lengthAdjust="spacing" textLength="52" x="1398.5278" y="364.8467">Mission</text><line style="stroke:#E7E7E7;stroke-width:0.5;" x1="1310.2778" x2="1506.2778" y1="376" y2="376"/><rect fill="none" height="6" style="stroke:#C82930;stroke-width:1.0;" width="6" x="1317.2778" y="386.6484"/><text fill="#FFFFFF" font-family="sans-serif" font-size="14" lengthAdjust="spacing" textLength="64" x="1329.2778" y="392.9951">code: int</text><rect fill="none" height="6" style="stroke:#C82930;stroke-width:1.0;" width="6" x="1317.2778" y="402.9453"/><text fill="#FFFFFF" font-family="sans-serif" font-size="14" lengthAdjust="spacing" textLength="85" x="1329.2778" y="409.292">nom: String</text><rect fill="none" height="6" style="stroke:#C82930;stroke-width:1.0;" width="6" x="1317.2778" y="419.2422"/><text fill="#FFFFFF" font-family="sans-serif" font-size="14" lengthAdjust="spacing" textLength="135" x="1329.2778" y="425.5889">description: String</text><line style="stroke:#E7E7E7;stroke-width:0.5;" x1="1310.2778" x2="1506.2778" y1="432.8906" y2="432.8906"/><ellipse cx="1320.2778" cy="446.5391" fill="#84BE84" rx="3" ry="3" style="stroke:#038048;stroke-width:1.0;"/><text fill="#FFFFFF" font-family="sans-serif" font-size="14" lengthAdjust="spacing" textLength="101" x="1329.2778" y="449.8857">getCode(): int</text><ellipse cx="1320.2778" cy="462.8359" fill="#84BE84" rx="3" ry="3" style="stroke:#038048;stroke-width:1.0;"/><text fill="#FFFFFF" font-family="sans-serif" font-size="14" lengthAdjust="spacing" textLength="121" x="1329.2778" y="466.1826">getNom(): String</text><ellipse cx="1320.2778" cy="479.1328" fill="#84BE84" rx="3" ry="3" style="stroke:#038048;stroke-width:1.0;"/><text fill="#FFFFFF" font-family="sans-serif" font-size="14" lengthAdjust="spacing" textLength="172" x="1329.2778" y="482.4795">getDescription(): String</text></g><!--class MissionAssignment--><g id="elem_MissionAssignment"><rect codeLine="58" fill="#313139" height="113.1875" id="MissionAssignment" rx="2.5" ry="2.5" style="stroke:#E7E7E7;stroke-width:0.5;" width="185" x="1213.7778" y="56"/><ellipse cx="1235.9778" cy="72" fill="#2E5233" rx="11" ry="11" style="stroke:#E7E7E7;stroke-width:1.0;"/><path d="M1238.3216,67.6719 C1237.3841,67.2344 1236.7903,67.0938 1235.9153,67.0938 C1233.2903,67.0938 1231.2903,69.1719 1231.2903,71.8906 L1231.2903,73.0156 C1231.2903,75.5938 1233.3997,77.4844 1236.2903,77.4844 C1237.5091,77.4844 1238.6653,77.1875 1239.4153,76.6406 C1239.9934,76.2344 1240.3216,75.7813 1240.3216,75.3906 C1240.3216,74.9375 1239.9309,74.5469 1239.4622,74.5469 C1239.2434,74.5469 1239.0403,74.625 1238.8528,74.8125 C1238.3997,75.2969 1238.3997,75.2969 1238.2122,75.3906 C1237.7903,75.6563 1237.1028,75.7813 1236.3372,75.7813 C1234.2903,75.7813 1232.9934,74.6875 1232.9934,72.9844 L1232.9934,71.8906 C1232.9934,70.1094 1234.2434,68.7969 1235.9778,68.7969 C1236.5559,68.7969 1237.1653,68.9531 1237.6341,69.2031 C1238.1184,69.4844 1238.2903,69.7031 1238.3841,70.1094 C1238.4466,70.5156 1238.4778,70.6406 1238.6184,70.7656 C1238.7591,70.9063 1238.9934,71.0156 1239.2122,71.0156 C1239.4778,71.0156 1239.7434,70.875 1239.9153,70.6563 C1240.0247,70.5 1240.0559,70.3125 1240.0559,69.8906 L1240.0559,68.4688 C1240.0559,68.0313 1240.0403,67.9063 1239.9466,67.75 C1239.7903,67.4844 1239.5091,67.3438 1239.2122,67.3438 C1238.9153,67.3438 1238.7122,67.4375 1238.4934,67.75 L1238.3216,67.6719 Z " fill="#FFFFFF"/><text fill="#FFFFFF" font-family="sans-serif" font-size="14" lengthAdjust="spacing" textLength="137" x="1251.5778" y="76.8467">MissionAssignment</text><line style="stroke:#E7E7E7;stroke-width:0.5;" x1="1214.7778" x2="1397.7778" y1="88" y2="88"/><rect fill="none" height="6" style="stroke:#C82930;stroke-width:1.0;" width="6" x="1221.7778" y="98.6484"/><text fill="#FFFFFF" font-family="sans-serif" font-size="14" lengthAdjust="spacing" textLength="122" x="1233.7778" y="104.9951">debutDate: Date</text><rect fill="none" height="6" style="stroke:#C82930;stroke-width:1.0;" width="6" x="1221.7778" y="114.9453"/><text fill="#FFFFFF" font-family="sans-serif" font-size="14" lengthAdjust="spacing" textLength="106" x="1233.7778" y="121.292">endDate: Date</text><line style="stroke:#E7E7E7;stroke-width:0.5;" x1="1214.7778" x2="1397.7778" y1="128.5938" y2="128.5938"/><ellipse cx="1224.7778" cy="142.2422" fill="#84BE84" rx="3" ry="3" style="stroke:#038048;stroke-width:1.0;"/><text fill="#FFFFFF" font-family="sans-serif" font-size="14" lengthAdjust="spacing" textLength="159" x="1233.7778" y="145.5889">getDebutDate(): Date</text><ellipse cx="1224.7778" cy="158.5391" fill="#84BE84" rx="3" ry="3" style="stroke:#038048;stroke-width:1.0;"/><text fill="#FFFFFF" font-family="sans-serif" font-size="14" lengthAdjust="spacing" textLength="141" x="1233.7778" y="161.8857">getEndDate(): Date</text></g><!--class Operation--><g id="elem_Operation"><rect codeLine="65" fill="#313139" height="178.375" id="Operation" rx="2.5" ry="2.5" style="stroke:#E7E7E7;stroke-width:0.5;" width="225" x="337.7768" y="839"/><ellipse cx="409.5268" cy="855" fill="#2E5233" rx="11" ry="11" style="stroke:#E7E7E7;stroke-width:1.0;"/><path d="M411.8706,850.6719 C410.9331,850.2344 410.3393,850.0938 409.4643,850.0938 C406.8393,850.0938 404.8393,852.1719 404.8393,854.8906 L404.8393,856.0156 C404.8393,858.5938 406.9487,860.4844 409.8393,860.4844 C411.0581,860.4844 412.2143,860.1875 412.9643,859.6406 C413.5424,859.2344 413.8706,858.7813 413.8706,858.3906 C413.8706,857.9375 413.4799,857.5469 413.0112,857.5469 C412.7924,857.5469 412.5893,857.625 412.4018,857.8125 C411.9487,858.2969 411.9487,858.2969 411.7612,858.3906 C411.3393,858.6563 410.6518,858.7813 409.8862,858.7813 C407.8393,858.7813 406.5424,857.6875 406.5424,855.9844 L406.5424,854.8906 C406.5424,853.1094 407.7924,851.7969 409.5268,851.7969 C410.1049,851.7969 410.7143,851.9531 411.1831,852.2031 C411.6674,852.4844 411.8393,852.7031 411.9331,853.1094 C411.9956,853.5156 412.0268,853.6406 412.1674,853.7656 C412.3081,853.9063 412.5424,854.0156 412.7612,854.0156 C413.0268,854.0156 413.2924,853.875 413.4643,853.6563 C413.5737,853.5 413.6049,853.3125 413.6049,852.8906 L413.6049,851.4688 C413.6049,851.0313 413.5893,850.9063 413.4956,850.75 C413.3393,850.4844 413.0581,850.3438 412.7612,850.3438 C412.4643,850.3438 412.2612,850.4375 412.0424,850.75 L411.8706,850.6719 Z " fill="#FFFFFF"/><text fill="#FFFFFF" font-family="sans-serif" font-size="14" lengthAdjust="spacing" textLength="73" x="430.0268" y="859.8467">Operation</text><line style="stroke:#E7E7E7;stroke-width:0.5;" x1="338.7768" x2="561.7768" y1="871" y2="871"/><rect fill="none" height="6" style="stroke:#C82930;stroke-width:1.0;" width="6" x="345.7768" y="881.6484"/><text fill="#FFFFFF" font-family="sans-serif" font-size="14" lengthAdjust="spacing" textLength="157" x="357.7768" y="887.9951">operationNumber: int</text><rect fill="none" height="6" style="stroke:#C82930;stroke-width:1.0;" width="6" x="345.7768" y="897.9453"/><text fill="#FFFFFF" font-family="sans-serif" font-size="14" lengthAdjust="spacing" textLength="139" x="357.7768" y="904.292">creationDate: Date</text><rect fill="none" height="6" style="stroke:#C82930;stroke-width:1.0;" width="6" x="345.7768" y="914.2422"/><text fill="#FFFFFF" font-family="sans-serif" font-size="14" lengthAdjust="spacing" textLength="113" x="357.7768" y="920.5889">amount: double</text><rect fill="none" height="6" style="stroke:#C82930;stroke-width:1.0;" width="6" x="345.7768" y="930.5391"/><text fill="#FFFFFF" font-family="sans-serif" font-size="14" lengthAdjust="spacing" textLength="162" x="357.7768" y="936.8857">type: OPERATIONTYPE</text><line style="stroke:#E7E7E7;stroke-width:0.5;" x1="338.7768" x2="561.7768" y1="944.1875" y2="944.1875"/><ellipse cx="348.7768" cy="957.8359" fill="#84BE84" rx="3" ry="3" style="stroke:#038048;stroke-width:1.0;"/><text fill="#FFFFFF" font-family="sans-serif" font-size="14" lengthAdjust="spacing" textLength="194" x="357.7768" y="961.1826">getOperationNumber(): int</text><ellipse cx="348.7768" cy="974.1328" fill="#84BE84" rx="3" ry="3" style="stroke:#038048;stroke-width:1.0;"/><text fill="#FFFFFF" font-family="sans-serif" font-size="14" lengthAdjust="spacing" textLength="176" x="357.7768" y="977.4795">getCreationDate(): Date</text><ellipse cx="348.7768" cy="990.4297" fill="#84BE84" rx="3" ry="3" style="stroke:#038048;stroke-width:1.0;"/><text fill="#FFFFFF" font-family="sans-serif" font-size="14" lengthAdjust="spacing" textLength="150" x="357.7768" y="993.7764">getAmount(): double</text><ellipse cx="348.7768" cy="1006.7266" fill="#84BE84" rx="3" ry="3" style="stroke:#038048;stroke-width:1.0;"/><text fill="#FFFFFF" font-family="sans-serif" font-size="14" lengthAdjust="spacing" textLength="199" x="357.7768" y="1010.0732">getType(): OPERATIONTYPE</text></g><!--class Agency--><g id="elem_Agency"><rect codeLine="76" fill="#313139" height="178.375" id="Agency" rx="2.5" ry="2.5" style="stroke:#E7E7E7;stroke-width:0.5;" width="171" x="973.7768" y="23.5"/><ellipse cx="1028.5268" cy="39.5" fill="#2E5233" rx="11" ry="11" style="stroke:#E7E7E7;stroke-width:1.0;"/><path d="M1030.8706,35.1719 C1029.9331,34.7344 1029.3393,34.5938 1028.4643,34.5938 C1025.8393,34.5938 1023.8393,36.6719 1023.8393,39.3906 L1023.8393,40.5156 C1023.8393,43.0938 1025.9487,44.9844 1028.8393,44.9844 C1030.0581,44.9844 1031.2143,44.6875 1031.9643,44.1406 C1032.5424,43.7344 1032.8706,43.2813 1032.8706,42.8906 C1032.8706,42.4375 1032.4799,42.0469 1032.0112,42.0469 C1031.7924,42.0469 1031.5893,42.125 1031.4018,42.3125 C1030.9487,42.7969 1030.9487,42.7969 1030.7612,42.8906 C1030.3393,43.1563 1029.6518,43.2813 1028.8862,43.2813 C1026.8393,43.2813 1025.5424,42.1875 1025.5424,40.4844 L1025.5424,39.3906 C1025.5424,37.6094 1026.7924,36.2969 1028.5268,36.2969 C1029.1049,36.2969 1029.7143,36.4531 1030.1831,36.7031 C1030.6674,36.9844 1030.8393,37.2031 1030.9331,37.6094 C1030.9956,38.0156 1031.0268,38.1406 1031.1674,38.2656 C1031.3081,38.4063 1031.5424,38.5156 1031.7612,38.5156 C1032.0268,38.5156 1032.2924,38.375 1032.4643,38.1563 C1032.5737,38 1032.6049,37.8125 1032.6049,37.3906 L1032.6049,35.9688 C1032.6049,35.5313 1032.5893,35.4063 1032.4956,35.25 C1032.3393,34.9844 1032.0581,34.8438 1031.7612,34.8438 C1031.4643,34.8438 1031.2612,34.9375 1031.0424,35.25 L1030.8706,35.1719 Z " fill="#FFFFFF"/><text fill="#FFFFFF" font-family="sans-serif" font-size="14" lengthAdjust="spacing" textLength="53" x="1049.0268" y="44.3467">Agency</text><line style="stroke:#E7E7E7;stroke-width:0.5;" x1="974.7768" x2="1143.7768" y1="55.5" y2="55.5"/><rect fill="none" height="6" style="stroke:#C82930;stroke-width:1.0;" width="6" x="981.7768" y="66.1484"/><text fill="#FFFFFF" font-family="sans-serif" font-size="14" lengthAdjust="spacing" textLength="64" x="993.7768" y="72.4951">code: int</text><rect fill="none" height="6" style="stroke:#C82930;stroke-width:1.0;" width="6" x="981.7768" y="82.4453"/><text fill="#FFFFFF" font-family="sans-serif" font-size="14" lengthAdjust="spacing" textLength="93" x="993.7768" y="88.792">name: String</text><rect fill="none" height="6" style="stroke:#C82930;stroke-width:1.0;" width="6" x="981.7768" y="98.7422"/><text fill="#FFFFFF" font-family="sans-serif" font-size="14" lengthAdjust="spacing" textLength="108" x="993.7768" y="105.0889">address: String</text><rect fill="none" height="6" style="stroke:#C82930;stroke-width:1.0;" width="6" x="981.7768" y="115.0391"/><text fill="#FFFFFF" font-family="sans-serif" font-size="14" lengthAdjust="spacing" textLength="99" x="993.7768" y="121.3857">phone: String</text><line style="stroke:#E7E7E7;stroke-width:0.5;" x1="974.7768" x2="1143.7768" y1="128.6875" y2="128.6875"/><ellipse cx="984.7768" cy="142.3359" fill="#84BE84" rx="3" ry="3" style="stroke:#038048;stroke-width:1.0;"/><text fill="#FFFFFF" font-family="sans-serif" font-size="14" lengthAdjust="spacing" textLength="101" x="993.7768" y="145.6826">getCode(): int</text><ellipse cx="984.7768" cy="158.6328" fill="#84BE84" rx="3" ry="3" style="stroke:#038048;stroke-width:1.0;"/><text fill="#FFFFFF" font-family="sans-serif" font-size="14" lengthAdjust="spacing" textLength="129" x="993.7768" y="161.9795">getName(): String</text><ellipse cx="984.7768" cy="174.9297" fill="#84BE84" rx="3" ry="3" style="stroke:#038048;stroke-width:1.0;"/><text fill="#FFFFFF" font-family="sans-serif" font-size="14" lengthAdjust="spacing" textLength="145" x="993.7768" y="178.2764">getAddress(): String</text><ellipse cx="984.7768" cy="191.2266" fill="#84BE84" rx="3" ry="3" style="stroke:#038048;stroke-width:1.0;"/><text fill="#FFFFFF" font-family="sans-serif" font-size="14" lengthAdjust="spacing" textLength="133" x="993.7768" y="194.5732">getPhone(): String</text></g><!--class Transfer--><g id="elem_Transfer"><rect codeLine="87" fill="#313139" height="80.5938" id="Transfer" rx="2.5" ry="2.5" style="stroke:#E7E7E7;stroke-width:0.5;" width="168" x="1041.2778" y="887.5"/><ellipse cx="1091.0278" cy="903.5" fill="#2E5233" rx="11" ry="11" style="stroke:#E7E7E7;stroke-width:1.0;"/><path d="M1093.3715,899.1719 C1092.434,898.7344 1091.8403,898.5938 1090.9653,898.5938 C1088.3403,898.5938 1086.3403,900.6719 1086.3403,903.3906 L1086.3403,904.5156 C1086.3403,907.0938 1088.4497,908.9844 1091.3403,908.9844 C1092.559,908.9844 1093.7153,908.6875 1094.4653,908.1406 C1095.0434,907.7344 1095.3715,907.2813 1095.3715,906.8906 C1095.3715,906.4375 1094.9809,906.0469 1094.5122,906.0469 C1094.2934,906.0469 1094.0903,906.125 1093.9028,906.3125 C1093.4497,906.7969 1093.4497,906.7969 1093.2622,906.8906 C1092.8403,907.1563 1092.1528,907.2813 1091.3872,907.2813 C1089.3403,907.2813 1088.0434,906.1875 1088.0434,904.4844 L1088.0434,903.3906 C1088.0434,901.6094 1089.2934,900.2969 1091.0278,900.2969 C1091.6059,900.2969 1092.2153,900.4531 1092.684,900.7031 C1093.1684,900.9844 1093.3403,901.2031 1093.434,901.6094 C1093.4965,902.0156 1093.5278,902.1406 1093.6684,902.2656 C1093.809,902.4063 1094.0434,902.5156 1094.2622,902.5156 C1094.5278,902.5156 1094.7934,902.375 1094.9653,902.1563 C1095.0747,902 1095.1059,901.8125 1095.1059,901.3906 L1095.1059,899.9688 C1095.1059,899.5313 1095.0903,899.4063 1094.9965,899.25 C1094.8403,898.9844 1094.559,898.8438 1094.2622,898.8438 C1093.9653,898.8438 1093.7622,898.9375 1093.5434,899.25 L1093.3715,899.1719 Z " fill="#FFFFFF"/><text fill="#FFFFFF" font-family="sans-serif" font-size="14" lengthAdjust="spacing" textLength="60" x="1111.5278" y="908.3467">Transfer</text><line style="stroke:#E7E7E7;stroke-width:0.5;" x1="1042.2778" x2="1208.2778" y1="919.5" y2="919.5"/><rect fill="none" height="6" style="stroke:#C82930;stroke-width:1.0;" width="6" x="1049.2778" y="930.1484"/><text fill="#FFFFFF" font-family="sans-serif" font-size="14" lengthAdjust="spacing" textLength="42" x="1061.2778" y="936.4951">id: int</text><rect fill="none" height="6" style="stroke:#C82930;stroke-width:1.0;" width="6" x="1049.2778" y="946.4453"/><text fill="#FFFFFF" font-family="sans-serif" font-size="14" lengthAdjust="spacing" textLength="142" x="1061.2778" y="952.792">transfer_date: Date</text><line style="stroke:#E7E7E7;stroke-width:0.5;" x1="1042.2778" x2="1208.2778" y1="960.0938" y2="960.0938"/></g><!--class Simulation--><g id="elem_Simulation"><rect codeLine="92" fill="#313139" height="210.9688" id="Simulation" rx="2.5" ry="2.5" style="stroke:#E7E7E7;stroke-width:0.5;" width="251" x="467.7768" y="7"/><ellipse cx="551.0268" cy="23" fill="#2E5233" rx="11" ry="11" style="stroke:#E7E7E7;stroke-width:1.0;"/><path d="M553.3706,18.6719 C552.4331,18.2344 551.8393,18.0938 550.9643,18.0938 C548.3393,18.0938 546.3393,20.1719 546.3393,22.8906 L546.3393,24.0156 C546.3393,26.5938 548.4487,28.4844 551.3393,28.4844 C552.5581,28.4844 553.7143,28.1875 554.4643,27.6406 C555.0424,27.2344 555.3706,26.7813 555.3706,26.3906 C555.3706,25.9375 554.9799,25.5469 554.5112,25.5469 C554.2924,25.5469 554.0893,25.625 553.9018,25.8125 C553.4487,26.2969 553.4487,26.2969 553.2612,26.3906 C552.8393,26.6563 552.1518,26.7813 551.3862,26.7813 C549.3393,26.7813 548.0424,25.6875 548.0424,23.9844 L548.0424,22.8906 C548.0424,21.1094 549.2924,19.7969 551.0268,19.7969 C551.6049,19.7969 552.2143,19.9531 552.6831,20.2031 C553.1674,20.4844 553.3393,20.7031 553.4331,21.1094 C553.4956,21.5156 553.5268,21.6406 553.6674,21.7656 C553.8081,21.9063 554.0424,22.0156 554.2612,22.0156 C554.5268,22.0156 554.7924,21.875 554.9643,21.6563 C555.0737,21.5 555.1049,21.3125 555.1049,20.8906 L555.1049,19.4688 C555.1049,19.0313 555.0893,18.9063 554.9956,18.75 C554.8393,18.4844 554.5581,18.3438 554.2612,18.3438 C553.9643,18.3438 553.7612,18.4375 553.5424,18.75 L553.3706,18.6719 Z " fill="#FFFFFF"/><text fill="#FFFFFF" font-family="sans-serif" font-size="14" lengthAdjust="spacing" textLength="76" x="571.5268" y="27.8467">Simulation</text><line style="stroke:#E7E7E7;stroke-width:0.5;" x1="468.7768" x2="717.7768" y1="39" y2="39"/><rect fill="none" height="6" style="stroke:#C82930;stroke-width:1.0;" width="6" x="475.7768" y="49.6484"/><text fill="#FFFFFF" font-family="sans-serif" font-size="14" lengthAdjust="spacing" textLength="42" x="487.7768" y="55.9951">id: int</text><rect fill="none" height="6" style="stroke:#C82930;stroke-width:1.0;" width="6" x="475.7768" y="65.9453"/><text fill="#FFFFFF" font-family="sans-serif" font-size="14" lengthAdjust="spacing" textLength="190" x="487.7768" y="72.292">monthly_payment: double</text><rect fill="none" height="6" style="stroke:#C82930;stroke-width:1.0;" width="6" x="475.7768" y="82.2422"/><text fill="#FFFFFF" font-family="sans-serif" font-size="14" lengthAdjust="spacing" textLength="183" x="487.7768" y="88.5889">borrowed_capital: double</text><rect fill="none" height="6" style="stroke:#C82930;stroke-width:1.0;" width="6" x="475.7768" y="98.5391"/><text fill="#FFFFFF" font-family="sans-serif" font-size="14" lengthAdjust="spacing" textLength="206" x="487.7768" y="104.8857">monthly_payments_num: int</text><rect fill="none" height="6" style="stroke:#C82930;stroke-width:1.0;" width="6" x="475.7768" y="114.8359"/><text fill="#FFFFFF" font-family="sans-serif" font-size="14" lengthAdjust="spacing" textLength="99" x="487.7768" y="121.1826">result: double</text><line style="stroke:#E7E7E7;stroke-width:0.5;" x1="468.7768" x2="717.7768" y1="128.4844" y2="128.4844"/><ellipse cx="478.7768" cy="142.1328" fill="#84BE84" rx="3" ry="3" style="stroke:#038048;stroke-width:1.0;"/><text fill="#FFFFFF" font-family="sans-serif" font-size="14" lengthAdjust="spacing" textLength="77" x="487.7768" y="145.4795">getId(): int</text><ellipse cx="478.7768" cy="158.4297" fill="#84BE84" rx="3" ry="3" style="stroke:#038048;stroke-width:1.0;"/><text fill="#FFFFFF" font-family="sans-serif" font-size="14" lengthAdjust="spacing" textLength="215" x="487.7768" y="161.7764">getMonthlyPayment(): double</text><ellipse cx="478.7768" cy="174.7266" fill="#84BE84" rx="3" ry="3" style="stroke:#038048;stroke-width:1.0;"/><text fill="#FFFFFF" font-family="sans-serif" font-size="14" lengthAdjust="spacing" textLength="213" x="487.7768" y="178.0732">getBorrowedCapital(): double</text><ellipse cx="478.7768" cy="191.0234" fill="#84BE84" rx="3" ry="3" style="stroke:#038048;stroke-width:1.0;"/><text fill="#FFFFFF" font-family="sans-serif" font-size="14" lengthAdjust="spacing" textLength="225" x="487.7768" y="194.3701">getMonthlyPaymentsNum(): int</text><ellipse cx="478.7768" cy="207.3203" fill="#84BE84" rx="3" ry="3" style="stroke:#038048;stroke-width:1.0;"/><text fill="#FFFFFF" font-family="sans-serif" font-size="14" lengthAdjust="spacing" textLength="138" x="487.7768" y="210.667">getResult(): double</text></g><!--class Credit--><g id="elem_Credit"><rect codeLine="105" fill="#313139" height="243.5625" id="Credit" rx="2.5" ry="2.5" style="stroke:#E7E7E7;stroke-width:0.5;" width="194" x="496.2768" y="295"/><ellipse cx="566.5268" cy="311" fill="#2E5233" rx="11" ry="11" style="stroke:#E7E7E7;stroke-width:1.0;"/><path d="M568.8706,306.6719 C567.9331,306.2344 567.3393,306.0938 566.4643,306.0938 C563.8393,306.0938 561.8393,308.1719 561.8393,310.8906 L561.8393,312.0156 C561.8393,314.5938 563.9487,316.4844 566.8393,316.4844 C568.0581,316.4844 569.2143,316.1875 569.9643,315.6406 C570.5424,315.2344 570.8706,314.7813 570.8706,314.3906 C570.8706,313.9375 570.4799,313.5469 570.0112,313.5469 C569.7924,313.5469 569.5893,313.625 569.4018,313.8125 C568.9487,314.2969 568.9487,314.2969 568.7612,314.3906 C568.3393,314.6563 567.6518,314.7813 566.8862,314.7813 C564.8393,314.7813 563.5424,313.6875 563.5424,311.9844 L563.5424,310.8906 C563.5424,309.1094 564.7924,307.7969 566.5268,307.7969 C567.1049,307.7969 567.7143,307.9531 568.1831,308.2031 C568.6674,308.4844 568.8393,308.7031 568.9331,309.1094 C568.9956,309.5156 569.0268,309.6406 569.1674,309.7656 C569.3081,309.9063 569.5424,310.0156 569.7612,310.0156 C570.0268,310.0156 570.2924,309.875 570.4643,309.6563 C570.5737,309.5 570.6049,309.3125 570.6049,308.8906 L570.6049,307.4688 C570.6049,307.0313 570.5893,306.9063 570.4956,306.75 C570.3393,306.4844 570.0581,306.3438 569.7612,306.3438 C569.4643,306.3438 569.2612,306.4375 569.0424,306.75 L568.8706,306.6719 Z " fill="#FFFFFF"/><text fill="#FFFFFF" font-family="sans-serif" font-size="14" lengthAdjust="spacing" textLength="45" x="587.0268" y="315.8467">Credit</text><line style="stroke:#E7E7E7;stroke-width:0.5;" x1="497.2768" x2="689.2768" y1="327" y2="327"/><rect fill="none" height="6" style="stroke:#C82930;stroke-width:1.0;" width="6" x="504.2768" y="337.6484"/><text fill="#FFFFFF" font-family="sans-serif" font-size="14" lengthAdjust="spacing" textLength="85" x="516.2768" y="343.9951">number: int</text><rect fill="none" height="6" style="stroke:#C82930;stroke-width:1.0;" width="6" x="504.2768" y="353.9453"/><text fill="#FFFFFF" font-family="sans-serif" font-size="14" lengthAdjust="spacing" textLength="77" x="516.2768" y="360.292">date: Date</text><rect fill="none" height="6" style="stroke:#C82930;stroke-width:1.0;" width="6" x="504.2768" y="370.2422"/><text fill="#FFFFFF" font-family="sans-serif" font-size="14" lengthAdjust="spacing" textLength="113" x="516.2768" y="376.5889">amount: double</text><rect fill="none" height="6" style="stroke:#C82930;stroke-width:1.0;" width="6" x="504.2768" y="386.5391"/><text fill="#FFFFFF" font-family="sans-serif" font-size="14" lengthAdjust="spacing" textLength="93" x="516.2768" y="392.8857">state: STATE</text><rect fill="none" height="6" style="stroke:#C82930;stroke-width:1.0;" width="6" x="504.2768" y="402.8359"/><text fill="#FFFFFF" font-family="sans-serif" font-size="14" lengthAdjust="spacing" textLength="129" x="516.2768" y="409.1826">remarques: String</text><rect fill="none" height="6" style="stroke:#C82930;stroke-width:1.0;" width="6" x="504.2768" y="419.1328"/><text fill="#FFFFFF" font-family="sans-serif" font-size="14" lengthAdjust="spacing" textLength="113" x="516.2768" y="425.4795">duration: String</text><line style="stroke:#E7E7E7;stroke-width:0.5;" x1="497.2768" x2="689.2768" y1="432.7813" y2="432.7813"/><ellipse cx="507.2768" cy="446.4297" fill="#84BE84" rx="3" ry="3" style="stroke:#038048;stroke-width:1.0;"/><text fill="#FFFFFF" font-family="sans-serif" font-size="14" lengthAdjust="spacing" textLength="121" x="516.2768" y="449.7764">getNumber(): int</text><ellipse cx="507.2768" cy="462.7266" fill="#84BE84" rx="3" ry="3" style="stroke:#038048;stroke-width:1.0;"/><text fill="#FFFFFF" font-family="sans-serif" font-size="14" lengthAdjust="spacing" textLength="114" x="516.2768" y="466.0732">getDate(): Date</text><ellipse cx="507.2768" cy="479.0234" fill="#84BE84" rx="3" ry="3" style="stroke:#038048;stroke-width:1.0;"/><text fill="#FFFFFF" font-family="sans-serif" font-size="14" lengthAdjust="spacing" textLength="150" x="516.2768" y="482.3701">getAmount(): double</text><ellipse cx="507.2768" cy="495.3203" fill="#84BE84" rx="3" ry="3" style="stroke:#038048;stroke-width:1.0;"/><text fill="#FFFFFF" font-family="sans-serif" font-size="14" lengthAdjust="spacing" textLength="130" x="516.2768" y="498.667">getState(): STATE</text><ellipse cx="507.2768" cy="511.6172" fill="#84BE84" rx="3" ry="3" style="stroke:#038048;stroke-width:1.0;"/><text fill="#FFFFFF" font-family="sans-serif" font-size="14" lengthAdjust="spacing" textLength="168" x="516.2768" y="514.9639">getRemarques(): String</text><ellipse cx="507.2768" cy="527.9141" fill="#84BE84" rx="3" ry="3" style="stroke:#038048;stroke-width:1.0;"/><text fill="#FFFFFF" font-family="sans-serif" font-size="14" lengthAdjust="spacing" textLength="150" x="516.2768" y="531.2607">getDuration(): String</text></g><!--class OPERATIONTYPE--><g id="elem_OPERATIONTYPE"><rect codeLine="120" fill="#313139" height="96.8906" id="OPERATIONTYPE" rx="2.5" ry="2.5" style="stroke:#E7E7E7;stroke-width:0.5;" width="151" x="27.7765" y="64"/><ellipse cx="42.7765" cy="80" fill="#852D19" rx="11" ry="11" style="stroke:#E7E7E7;stroke-width:1.0;"/><path d="M41.5734,80.875 L43.0265,80.875 L43.0265,80.9844 C43.0265,81.3906 43.0578,81.5469 43.1359,81.7031 C43.2921,81.9531 43.5734,82.1094 43.8703,82.1094 C44.1203,82.1094 44.3859,81.9688 44.5421,81.75 C44.6671,81.5938 44.6984,81.4375 44.6984,80.9844 L44.6984,79.0625 C44.6984,78.9063 44.6984,78.8594 44.6828,78.7031 C44.6203,78.2344 44.3078,77.9219 43.8546,77.9219 C43.6046,77.9219 43.339,78.0625 43.1671,78.2813 C43.0578,78.4531 43.0265,78.6094 43.0265,79.0625 L43.0265,79.1875 L41.5734,79.1875 L41.5734,76.7813 L45.5578,76.7813 L45.5578,77.6406 C45.5578,78.0469 45.589,78.2188 45.6671,78.375 C45.839,78.625 46.1203,78.7813 46.4015,78.7813 C46.6671,78.7813 46.9328,78.6406 47.1046,78.4219 C47.214,78.25 47.2453,78.1094 47.2453,77.6406 L47.2453,75.0938 L39.6203,75.0938 C39.1828,75.0938 39.0578,75.1094 38.9015,75.2031 C38.6515,75.3594 38.4953,75.6563 38.4953,75.9375 C38.4953,76.2188 38.6359,76.4688 38.8546,76.6406 C39.0109,76.75 39.1984,76.7813 39.6203,76.7813 L39.8703,76.7813 L39.8703,83.2969 L39.6203,83.2969 C39.214,83.2969 39.0578,83.3125 38.9015,83.4219 C38.6515,83.5938 38.4953,83.8594 38.4953,84.1563 C38.4953,84.4219 38.6359,84.6719 38.8546,84.8281 C38.9953,84.9531 39.2296,85 39.6203,85 L47.6203,85 L47.6203,82.4219 C47.6203,81.9844 47.589,81.8438 47.5109,81.6875 C47.339,81.4375 47.0578,81.2813 46.7765,81.2813 C46.5109,81.2813 46.2453,81.3906 46.0734,81.6406 C45.964,81.7969 45.9328,81.9375 45.9328,82.4219 L45.9328,83.2969 L41.5734,83.2969 L41.5734,80.875 Z " fill="#FFFFFF"/><text fill="#FFFFFF" font-family="sans-serif" font-size="14" lengthAdjust="spacing" textLength="119" x="56.7765" y="84.8467">OPERATIONTYPE</text><line style="stroke:#E7E7E7;stroke-width:0.5;" x1="28.7765" x2="177.7765" y1="96" y2="96"/><text fill="#FFFFFF" font-family="sans-serif" font-size="14" lengthAdjust="spacing" textLength="68" x="33.7765" y="112.9951">PAYMENT</text><text fill="#FFFFFF" font-family="sans-serif" font-size="14" lengthAdjust="spacing" textLength="100" x="33.7765" y="129.292">WITHDRAWAL</text><text fill="#FFFFFF" font-family="sans-serif" font-size="14" lengthAdjust="spacing" textLength="62" x="33.7765" y="145.5889">DEPOSIT</text><line style="stroke:#E7E7E7;stroke-width:0.5;" x1="28.7765" x2="177.7765" y1="152.8906" y2="152.8906"/></g><!--class STATUS--><g id="elem_STATUS"><rect codeLine="126" fill="#313139" height="80.5938" id="STATUS" rx="2.5" ry="2.5" style="stroke:#E7E7E7;stroke-width:0.5;" width="87" x="213.7768" y="72"/><ellipse cx="228.7768" cy="88" fill="#852D19" rx="11" ry="11" style="stroke:#E7E7E7;stroke-width:1.0;"/><path d="M227.5737,88.875 L229.0268,88.875 L229.0268,88.9844 C229.0268,89.3906 229.0581,89.5469 229.1362,89.7031 C229.2924,89.9531 229.5737,90.1094 229.8706,90.1094 C230.1206,90.1094 230.3862,89.9688 230.5424,89.75 C230.6674,89.5938 230.6987,89.4375 230.6987,88.9844 L230.6987,87.0625 C230.6987,86.9063 230.6987,86.8594 230.6831,86.7031 C230.6206,86.2344 230.3081,85.9219 229.8549,85.9219 C229.6049,85.9219 229.3393,86.0625 229.1674,86.2813 C229.0581,86.4531 229.0268,86.6094 229.0268,87.0625 L229.0268,87.1875 L227.5737,87.1875 L227.5737,84.7813 L231.5581,84.7813 L231.5581,85.6406 C231.5581,86.0469 231.5893,86.2188 231.6674,86.375 C231.8393,86.625 232.1206,86.7813 232.4018,86.7813 C232.6674,86.7813 232.9331,86.6406 233.1049,86.4219 C233.2143,86.25 233.2456,86.1094 233.2456,85.6406 L233.2456,83.0938 L225.6206,83.0938 C225.1831,83.0938 225.0581,83.1094 224.9018,83.2031 C224.6518,83.3594 224.4956,83.6563 224.4956,83.9375 C224.4956,84.2188 224.6362,84.4688 224.8549,84.6406 C225.0112,84.75 225.1987,84.7813 225.6206,84.7813 L225.8706,84.7813 L225.8706,91.2969 L225.6206,91.2969 C225.2143,91.2969 225.0581,91.3125 224.9018,91.4219 C224.6518,91.5938 224.4956,91.8594 224.4956,92.1563 C224.4956,92.4219 224.6362,92.6719 224.8549,92.8281 C224.9956,92.9531 225.2299,93 225.6206,93 L233.6206,93 L233.6206,90.4219 C233.6206,89.9844 233.5893,89.8438 233.5112,89.6875 C233.3393,89.4375 233.0581,89.2813 232.7768,89.2813 C232.5112,89.2813 232.2456,89.3906 232.0737,89.6406 C231.9643,89.7969 231.9331,89.9375 231.9331,90.4219 L231.9331,91.2969 L227.5737,91.2969 L227.5737,88.875 Z " fill="#FFFFFF"/><text fill="#FFFFFF" font-family="sans-serif" font-size="14" lengthAdjust="spacing" textLength="55" x="242.7768" y="92.8467">STATUS</text><line style="stroke:#E7E7E7;stroke-width:0.5;" x1="214.7768" x2="299.7768" y1="104" y2="104"/><text fill="#FFFFFF" font-family="sans-serif" font-size="14" lengthAdjust="spacing" textLength="52" x="219.7768" y="120.9951">ACTIVE</text><text fill="#FFFFFF" font-family="sans-serif" font-size="14" lengthAdjust="spacing" textLength="66" x="219.7768" y="137.292">INACTIVE</text><line style="stroke:#E7E7E7;stroke-width:0.5;" x1="214.7768" x2="299.7768" y1="144.5938" y2="144.5938"/></g><!--class STATE--><g id="elem_STATE"><rect codeLine="131" fill="#313139" height="96.8906" id="STATE" rx="2.5" ry="2.5" style="stroke:#E7E7E7;stroke-width:0.5;" width="91" x="57.7765" y="368.5"/><ellipse cx="78.6265" cy="384.5" fill="#852D19" rx="11" ry="11" style="stroke:#E7E7E7;stroke-width:1.0;"/><path d="M77.4234,385.375 L78.8765,385.375 L78.8765,385.4844 C78.8765,385.8906 78.9078,386.0469 78.9859,386.2031 C79.1421,386.4531 79.4234,386.6094 79.7203,386.6094 C79.9703,386.6094 80.2359,386.4688 80.3921,386.25 C80.5171,386.0938 80.5484,385.9375 80.5484,385.4844 L80.5484,383.5625 C80.5484,383.4063 80.5484,383.3594 80.5328,383.2031 C80.4703,382.7344 80.1578,382.4219 79.7046,382.4219 C79.4546,382.4219 79.189,382.5625 79.0171,382.7813 C78.9078,382.9531 78.8765,383.1094 78.8765,383.5625 L78.8765,383.6875 L77.4234,383.6875 L77.4234,381.2813 L81.4078,381.2813 L81.4078,382.1406 C81.4078,382.5469 81.439,382.7188 81.5171,382.875 C81.689,383.125 81.9703,383.2813 82.2515,383.2813 C82.5171,383.2813 82.7828,383.1406 82.9546,382.9219 C83.064,382.75 83.0953,382.6094 83.0953,382.1406 L83.0953,379.5938 L75.4703,379.5938 C75.0328,379.5938 74.9078,379.6094 74.7515,379.7031 C74.5015,379.8594 74.3453,380.1563 74.3453,380.4375 C74.3453,380.7188 74.4859,380.9688 74.7046,381.1406 C74.8609,381.25 75.0484,381.2813 75.4703,381.2813 L75.7203,381.2813 L75.7203,387.7969 L75.4703,387.7969 C75.064,387.7969 74.9078,387.8125 74.7515,387.9219 C74.5015,388.0938 74.3453,388.3594 74.3453,388.6563 C74.3453,388.9219 74.4859,389.1719 74.7046,389.3281 C74.8453,389.4531 75.0796,389.5 75.4703,389.5 L83.4703,389.5 L83.4703,386.9219 C83.4703,386.4844 83.439,386.3438 83.3609,386.1875 C83.189,385.9375 82.9078,385.7813 82.6265,385.7813 C82.3609,385.7813 82.0953,385.8906 81.9234,386.1406 C81.814,386.2969 81.7828,386.4375 81.7828,386.9219 L81.7828,387.7969 L77.4234,387.7969 L77.4234,385.375 Z " fill="#FFFFFF"/><text fill="#FFFFFF" font-family="sans-serif" font-size="14" lengthAdjust="spacing" textLength="46" x="93.9265" y="389.3467">STATE</text><line style="stroke:#E7E7E7;stroke-width:0.5;" x1="58.7765" x2="147.7765" y1="400.5" y2="400.5"/><text fill="#FFFFFF" font-family="sans-serif" font-size="14" lengthAdjust="spacing" textLength="79" x="63.7765" y="417.4951">APPROVED</text><text fill="#FFFFFF" font-family="sans-serif" font-size="14" lengthAdjust="spacing" textLength="64" x="63.7765" y="433.792">PENDING</text><text fill="#FFFFFF" font-family="sans-serif" font-size="14" lengthAdjust="spacing" textLength="72" x="63.7765" y="450.0889">DECLINED</text><line style="stroke:#E7E7E7;stroke-width:0.5;" x1="58.7765" x2="147.7765" y1="457.3906" y2="457.3906"/></g><!--reverse link Person to Client--><g id="link_Person_Client"><path d="M726.4326,536.3029 C687.7886,580.3289 657.0508,615.346 628.0768,648.354 " fill="none" id="Person-backto-Client" style="stroke:#E7E7E7;stroke-width:1.0;"/><polygon fill="none" points="738.3068,522.775,721.9233,532.3448,730.9419,540.261,738.3068,522.775" style="stroke:#E7E7E7;stroke-width:1.0;"/></g><!--reverse link Person to Employee--><g id="link_Person_Employee"><path d="M900.6808,538.3105 C918.8968,569.4395 929.3448,587.293 946.0558,615.851 " fill="none" id="Person-backto-Employee" style="stroke:#E7E7E7;stroke-width:1.0;"/><polygon fill="none" points="891.5898,522.775,895.5023,541.3409,905.8594,535.2802,891.5898,522.775" style="stroke:#E7E7E7;stroke-width:1.0;"/></g><!--reverse link Account to CurrentAccount--><g id="link_Account_CurrentAccount"><path codeLine="137" d="M235.9576,522.1812 C212.3056,570.1952 192.1488,611.116 173.7958,648.374 " fill="none" id="Account-backto-CurrentAccount" style="stroke:#E7E7E7;stroke-width:1.0;"/><polygon fill="none" points="243.9118,506.034,230.5752,519.5298,241.34,524.8326,243.9118,506.034" style="stroke:#E7E7E7;stroke-width:1.0;"/><text fill="#FFFFFF" font-family="sans-serif" font-size="13" lengthAdjust="spacing" textLength="52" x="214.2768" y="582.0669">extends</text></g><!--reverse link Account to SavingsAccount--><g id="link_Account_SavingsAccount"><path codeLine="138" d="M302.7332,523.8498 C307.9892,550.1428 311.8868,560.958 322.2768,586 C331.3698,607.918 345.3308,630.181 358.1598,648.292 " fill="none" id="Account-backto-SavingsAccount" style="stroke:#E7E7E7;stroke-width:1.0;"/><polygon fill="none" points="299.2048,506.199,296.8496,525.0259,308.6168,522.6737,299.2048,506.199" style="stroke:#E7E7E7;stroke-width:1.0;"/><text fill="#FFFFFF" font-family="sans-serif" font-size="13" lengthAdjust="spacing" textLength="52" x="323.2768" y="582.0669">extends</text></g><!--reverse link Account to Operation--><g id="link_Account_Operation"><path codeLine="139" d="M195.2228,514.3972 C182.9818,525.8912 178.9618,528.939 166.2768,539 C115.4503,579.312 73.8068,559.306 42.2765,616 C10.738,672.709 6,708.199 42.2765,762 C107.7379,859.085 241.0358,899.063 337.4938,915.515 " fill="none" id="Account-backto-Operation" style="stroke:#E7E7E7;stroke-width:1.0;"/><polygon fill="#E7E7E7" points="203.9708,506.183,196.8587,507.3741,195.2228,514.3972,202.3349,513.2061,203.9708,506.183" style="stroke:#E7E7E7;stroke-width:1.0;"/><text fill="#FFFFFF" font-family="sans-serif" font-size="13" lengthAdjust="spacing" textLength="8" x="188.4679" y="526.5482">1</text><text fill="#FFFFFF" font-family="sans-serif" font-size="13" lengthAdjust="spacing" textLength="23" x="306.9203" y="911.3567">0..*</text></g><!--reverse link Account to Client--><g id="link_Account_Client"><path codeLine="140" d="M351.4642,515.564 C373.5902,544.291 393.6868,564.728 424.2768,586 C458.2018,609.591 476.5738,595.196 512.2768,616 C527.3948,624.81 542.2188,636.72 554.9668,648.317 " fill="none" id="Account-backto-Client" style="stroke:#E7E7E7;stroke-width:1.0;"/><polygon fill="#E7E7E7" points="344.1418,506.057,344.634,513.2513,351.4642,515.564,350.972,508.3697,344.1418,506.057" style="stroke:#E7E7E7;stroke-width:1.0;"/><text fill="#FFFFFF" font-family="sans-serif" font-size="13" lengthAdjust="spacing" textLength="8" x="340.6849" y="526.4114">1</text><text fill="#FFFFFF" font-family="sans-serif" font-size="13" lengthAdjust="spacing" textLength="23" x="550.5264" y="637.4482">0..*</text></g><!--reverse link Account to Employee--><g id="link_Account_Employee"><path codeLine="141" d="M400.5412,497.1029 C428.2252,514.5419 448.5868,525.582 478.2768,539 C607.1988,597.266 764.7038,639.198 870.2658,663.454 " fill="none" id="Account-backto-Employee" style="stroke:#E7E7E7;stroke-width:1.0;"/><polygon fill="#E7E7E7" points="390.3878,490.707,393.3325,497.2894,400.5412,497.1029,397.5965,490.5205,390.3878,490.707" style="stroke:#E7E7E7;stroke-width:1.0;"/><text fill="#FFFFFF" font-family="sans-serif" font-size="13" lengthAdjust="spacing" textLength="8" x="398.2538" y="492.6271">1</text><text fill="#FFFFFF" font-family="sans-serif" font-size="13" lengthAdjust="spacing" textLength="23" x="839.3737" y="658.5179">0..*</text></g><!--reverse link Employee to Operation--><g id="link_Employee_Operation"><path codeLine="142" d="M859.2281,746.8486 C767.8261,787.1126 653.0308,837.683 563.0038,877.341 " fill="none" id="Employee-backto-Operation" style="stroke:#E7E7E7;stroke-width:1.0;"/><polygon fill="#E7E7E7" points="870.2098,742.011,863.1064,740.7692,859.2281,746.8486,866.3315,748.0904,870.2098,742.011" style="stroke:#E7E7E7;stroke-width:1.0;"/><text fill="#FFFFFF" font-family="sans-serif" font-size="13" lengthAdjust="spacing" textLength="8" x="854.3899" y="742.0047">1</text><text fill="#FFFFFF" font-family="sans-serif" font-size="13" lengthAdjust="spacing" textLength="23" x="570.9621" y="870.6743">0..*</text></g><!--reverse link Mission to Employee--><g id="link_Mission_Employee"><path codeLine="143" d="M1331.8644,498.352 C1313.8344,515.508 1302.4378,524.696 1282.2778,539 C1227.9078,577.578 1162.1378,611.901 1106.5978,637.853 " fill="none" id="Mission-backto-Employee" style="stroke:#E7E7E7;stroke-width:1.0;"/><polygon fill="#E7E7E7" points="1340.5578,490.08,1333.4538,491.3182,1331.8644,498.352,1338.9684,497.1138,1340.5578,490.08" style="stroke:#E7E7E7;stroke-width:1.0;"/><text fill="#FFFFFF" font-family="sans-serif" font-size="13" lengthAdjust="spacing" textLength="8" x="1325.722" y="509.8439">1</text><text fill="#FFFFFF" font-family="sans-serif" font-size="13" lengthAdjust="spacing" textLength="23" x="1114.1031" y="631.5395">0..*</text></g><!--link MissionAssignment to Mission--><g id="link_MissionAssignment_Mission"><path codeLine="144" d="M1325.1078,169.336 C1341.6778,218.501 1365.9278,290.402 1383.9678,343.904 " fill="none" id="MissionAssignment-Mission" style="stroke:#E7E7E7;stroke-width:1.0;"/><text fill="#FFFFFF" font-family="sans-serif" font-size="13" lengthAdjust="spacing" textLength="74" x="1358.2778" y="261.0669">assigned to</text></g><!--link MissionAssignment to Employee--><g id="link_MissionAssignment_Employee"><path codeLine="145" d="M1256.8778,169.23 C1227.7978,203.827 1191.6778,250.116 1165.2778,295 C1094.0078,416.181 1101.2878,458.866 1041.2778,586 C1036.6778,595.745 1031.6578,605.918 1026.6078,615.903 " fill="none" id="MissionAssignment-Employee" style="stroke:#E7E7E7;stroke-width:1.0;"/><text fill="#FFFFFF" font-family="sans-serif" font-size="13" lengthAdjust="spacing" textLength="125" x="1166.2778" y="421.5669">assigned employee</text></g><!--reverse link Agency to Account--><g id="link_Agency_Account"><path codeLine="146" d="M962.3562,145.4991 C897.3482,166.8351 817.0388,192.887 736.2768,218 C622.0088,253.531 587.1788,245.402 478.2768,295 C448.6258,308.504 418.1248,325.97 390.4408,343.411 " fill="none" id="Agency-backto-Account" style="stroke:#E7E7E7;stroke-width:1.0;"/><polygon fill="#E7E7E7" points="973.7578,141.757,966.8096,139.8275,962.3562,145.4991,969.3044,147.4286,973.7578,141.757" style="stroke:#E7E7E7;stroke-width:1.0;"/><text fill="#FFFFFF" font-family="sans-serif" font-size="13" lengthAdjust="spacing" textLength="8" x="957.785" y="140.7508">1</text><text fill="#FFFFFF" font-family="sans-serif" font-size="13" lengthAdjust="spacing" textLength="23" x="398.1448" y="335.0216">0..*</text></g><!--reverse link Agency to Employee--><g id="link_Agency_Employee"><path codeLine="147" d="M1054.2627,213.5403 C1048.6527,308.8483 1037.4078,453.063 1014.2768,586 C1012.5848,595.722 1010.4498,605.881 1008.1338,615.86 " fill="none" id="Agency-backto-Employee" style="stroke:#E7E7E7;stroke-width:1.0;"/><polygon fill="#E7E7E7" points="1054.9678,201.561,1050.6222,207.3156,1054.2627,213.5403,1058.6083,207.7857,1054.9678,201.561" style="stroke:#E7E7E7;stroke-width:1.0;"/><text fill="#FFFFFF" font-family="sans-serif" font-size="13" lengthAdjust="spacing" textLength="8" x="1046.2537" y="221.9157">1</text><text fill="#FFFFFF" font-family="sans-serif" font-size="13" lengthAdjust="spacing" textLength="23" x="985.9564" y="605.0062">0..*</text></g><!--reverse link Simulation to Client--><g id="link_Simulation_Client"><path codeLine="148" d="M507.054,228.3716 C492.665,252.4386 485.9678,268.489 478.2768,295 C448.0588,399.149 443.2738,436.36 478.2768,539 C492.6208,581.062 524.1798,620.485 550.6158,648.202 " fill="none" id="Simulation-backto-Client" style="stroke:#E7E7E7;stroke-width:1.0;"/><polygon fill="#E7E7E7" points="513.2118,218.072,506.6997,221.1692,507.054,228.3716,513.5661,225.2744,513.2118,218.072" style="stroke:#E7E7E7;stroke-width:1.0;"/><text fill="#FFFFFF" font-family="sans-serif" font-size="13" lengthAdjust="spacing" textLength="8" x="499.301" y="238.095">1</text><text fill="#FFFFFF" font-family="sans-serif" font-size="13" lengthAdjust="spacing" textLength="23" x="518.6454" y="637.3142">0..*</text></g><!--reverse link Simulation to Employee--><g id="link_Simulation_Employee"><path codeLine="149" d="M730.3959,146.7927 C811.1699,172.7607 899.3248,215.514 953.2768,295 C1018.2878,390.784 1012.7188,531.375 1001.4228,615.87 " fill="none" id="Simulation-backto-Employee" style="stroke:#E7E7E7;stroke-width:1.0;"/><polygon fill="#E7E7E7" points="718.9718,143.12,723.4596,148.7644,730.3959,146.7927,725.9081,141.1483,718.9718,143.12" style="stroke:#E7E7E7;stroke-width:1.0;"/><text fill="#FFFFFF" font-family="sans-serif" font-size="13" lengthAdjust="spacing" textLength="8" x="726.8751" y="141.6008">1</text><text fill="#FFFFFF" font-family="sans-serif" font-size="13" lengthAdjust="spacing" textLength="23" x="1003.8489" y="605.0172">0..*</text></g><!--reverse link Credit to Employee--><g id="link_Credit_Employee"><path codeLine="150" d="M699.6252,533.2198 C705.1382,537.9878 701.6528,534.713 707.2768,539 C757.0078,576.913 817.7308,610.442 869.9888,636.046 " fill="none" id="Credit-backto-Employee" style="stroke:#E7E7E7;stroke-width:1.0;"/><polygon fill="#E7E7E7" points="690.5488,525.37,692.4704,532.3204,699.6252,533.2198,697.7036,526.2695,690.5488,525.37" style="stroke:#E7E7E7;stroke-width:1.0;"/><text fill="#FFFFFF" font-family="sans-serif" font-size="13" lengthAdjust="spacing" textLength="8" x="698.3024" y="530.1816">1</text><text fill="#FFFFFF" font-family="sans-serif" font-size="13" lengthAdjust="spacing" textLength="23" x="839.0798" y="629.4397">0..*</text></g><!--reverse link Credit to Client--><g id="link_Credit_Client"><path codeLine="151" d="M593.2768,551.179 C593.2768,590.432 593.2768,619.26 593.2768,648.201 " fill="none" id="Credit-backto-Client" style="stroke:#E7E7E7;stroke-width:1.0;"/><polygon fill="#E7E7E7" points="593.2768,539.179,589.2768,545.179,593.2768,551.179,597.2768,545.179,593.2768,539.179" style="stroke:#E7E7E7;stroke-width:1.0;"/><text fill="#FFFFFF" font-family="sans-serif" font-size="13" lengthAdjust="spacing" textLength="7" x="586.0745" y="558.7594">*</text><text fill="#FFFFFF" font-family="sans-serif" font-size="13" lengthAdjust="spacing" textLength="8" x="584.6143" y="637.313">1</text></g><!--reverse link Simulation to Credit--><g id="link_Simulation_Credit"><path codeLine="152" d="M593.2768,230.027 C593.2768,254.789 593.2768,269.404 593.2768,294.836 " fill="none" id="Simulation-backto-Credit" style="stroke:#E7E7E7;stroke-width:1.0;"/><polygon fill="#E7E7E7" points="593.2768,218.027,589.2768,224.027,593.2768,230.027,597.2768,224.027,593.2768,218.027" style="stroke:#E7E7E7;stroke-width:1.0;"/><text fill="#FFFFFF" font-family="sans-serif" font-size="13" lengthAdjust="spacing" textLength="8" x="584.9956" y="238.0469">1</text><text fill="#FFFFFF" font-family="sans-serif" font-size="13" lengthAdjust="spacing" textLength="8" x="585.0331" y="284.0189">1</text></g><!--link Agency to Transfer--><g id="link_Agency_Transfer"><path codeLine="153" d="M1145.0678,185.987 C1161.4278,197.729 1178.8878,208.976 1196.2778,218 C1257.9178,249.979 1277.7478,248.808 1345.2778,265 C1384.7078,274.456 1499.0678,264.058 1525.2778,295 C1698.1778,499.104 1333.8078,783.962 1184.8778,887.449 " fill="none" id="Agency-Transfer" style="stroke:#E7E7E7;stroke-width:1.0;"/><text fill="#FFFFFF" font-family="sans-serif" font-size="13" lengthAdjust="spacing" textLength="144" x="1519.2778" y="582.0669">"1" *-- "0..*" Employee</text></g><!--link Employee to Transfer--><g id="link_Employee_Transfer"><path codeLine="154" d="M1029.9378,762.073 C1053.7178,803.201 1082.6078,853.191 1102.3178,887.28 " fill="none" id="Employee-Transfer" style="stroke:#E7E7E7;stroke-width:1.0;"/><text fill="#FFFFFF" font-family="sans-serif" font-size="13" lengthAdjust="spacing" textLength="128" x="1057.2778" y="805.0669">"1" *-- "0..*" Agency</text></g><!--SRC=[ZLLRRvim57xFhq1vsZgrMb-ZlT20DgI6e8IrwbFauDCK2GmpfbkqxR_F5-pO1jgz87mktxcVKrIewuAmA9gUiE3t8WYkaNgaVNq4kWfAmWJrY2f42bW5kEcF5GXIGG6niY4HOfmkleBQCSJwRXNiyp3_lkUKJoTWeOtvuQD65Qmx1Io81bhGrnQwO0xuWhMN9WHnCF9tiIXa8EkUKY3CYQTv1OefUcQUWQscMwODq1wzbkJKEK3SPw3GiPsCry5ABDOKN0QqQuY28KtD7MUKuujdonrsAPY3fAZiEfLmdLW65RGl3G5R5c5kjhD9mfsqgMLsR5ecxOp8aMtCotEkBOwqGcNMebzAK9My0W7yOa2m6tdHOB1Bl-PltGn6FwxRgZa3J2BKY5ih-ih0o6JjeA0zWvhRlQGBQbHMdjiRhUwsOEHYU5c81T1Kf1kUjN8gDh_46Bg2bgtePiyXEmFpfOik-c_u4VBlYOW0b4SOZZrpPvFdqo4ey47C3rl96genjss1oiaSnai_lOKnlHrGBUR9tYBit7B-DejtOPviq_mfY_M0kiXkdjvO3w6qCLeeEJSaYAuf4rPu0bASfug9Qc_aPFCxC-oDvKnfET3494cqyRXwSsVyp2aYtJFGOITXuoSR60TyoVXbdvLrNrbLi_JgXh2NwdneqLbDqAKsnuRIvYVWGu7Qag7AvdbgtO7qjS7a8VMLlt0JxEPZen0o1J2grzrWVAriZ_YkUiURn8NVIH-cjZ7l7LmEKqBShiNlTAkuRg3kJgm2hH7zqOFJ3hXNVUjlvOas_l_s5KSFzCsBJOo3-V7E67nmMoZcuRe38BEGXK-RECtvtsEIVujsuMDupnzHd6ttIMuKrRML6k4wJnw45qaw_Df22ZNCijts8Ow4WJYDalIhn5pV9oadSdbzNR_ykRxsJ_TAxtzNohlBOwdbxJAuueBBppStLylBifeJKETgZgkFqS9SfLbyVGtc4CPRcWjffLM091rmm9ffKUE19GiQV5XUdkqXg1ckySpQ3TF9cHSm6CD8lSU-6jYtRs8BhbJGddEYMNkhzslqfhY2_0S0]--></g></svg>