<?xml version="1.0" encoding="us-ascii" standalone="no"?><svg xmlns="http://www.w3.org/2000/svg" xmlns:xlink="http://www.w3.org/1999/xlink" contentStyleType="text/css" height="1198px" preserveAspectRatio="none" style="width:2007px;height:1198px;background:#1B1B1B;" version="1.1" viewBox="0 0 2007 1198" width="2007px" zoomAndPan="magnify"><defs/><g><rect fill="#1B1B1B" height="1198" style="stroke:none;stroke-width:1.0;" width="2007" x="0" y="0"/><!--class Account--><g id="elem_Account"><rect codeLine="1" fill="#313139" height="178.375" id="Account" rx="2.5" ry="2.5" style="stroke:#E7E7E7;stroke-width:0.5;" width="206" x="547.2677" y="328"/><ellipse cx="616.5177" cy="344" fill="#2E5233" rx="11" ry="11" style="stroke:#E7E7E7;stroke-width:1.0;"/><path d="M618.8615,339.6719 C617.924,339.2344 617.3302,339.0938 616.4552,339.0938 C613.8302,339.0938 611.8302,341.1719 611.8302,343.8906 L611.8302,345.0156 C611.8302,347.5938 613.9396,349.4844 616.8302,349.4844 C618.049,349.4844 619.2052,349.1875 619.9552,348.6406 C620.5333,348.2344 620.8615,347.7813 620.8615,347.3906 C620.8615,346.9375 620.4708,346.5469 620.0021,346.5469 C619.7833,346.5469 619.5802,346.625 619.3927,346.8125 C618.9396,347.2969 618.9396,347.2969 618.7521,347.3906 C618.3302,347.6563 617.6427,347.7813 616.8771,347.7813 C614.8302,347.7813 613.5333,346.6875 613.5333,344.9844 L613.5333,343.8906 C613.5333,342.1094 614.7833,340.7969 616.5177,340.7969 C617.0958,340.7969 617.7052,340.9531 618.174,341.2031 C618.6583,341.4844 618.8302,341.7031 618.924,342.1094 C618.9865,342.5156 619.0177,342.6406 619.1583,342.7656 C619.299,342.9063 619.5333,343.0156 619.7521,343.0156 C620.0177,343.0156 620.2833,342.875 620.4552,342.6563 C620.5646,342.5 620.5958,342.3125 620.5958,341.8906 L620.5958,340.4688 C620.5958,340.0313 620.5802,339.9063 620.4865,339.75 C620.3302,339.4844 620.049,339.3438 619.7521,339.3438 C619.4552,339.3438 619.2521,339.4375 619.0333,339.75 L618.8615,339.6719 Z " fill="#FFFFFF"/><text fill="#FFFFFF" font-family="sans-serif" font-size="14" lengthAdjust="spacing" textLength="59" x="637.0177" y="348.8467">Account</text><line style="stroke:#E7E7E7;stroke-width:0.5;" x1="548.2677" x2="752.2677" y1="360" y2="360"/><rect fill="none" height="6" style="stroke:#C82930;stroke-width:1.0;" width="6" x="555.2677" y="370.6484"/><text fill="#FFFFFF" font-family="sans-serif" font-size="14" lengthAdjust="spacing" textLength="143" x="567.2677" y="376.9951">accountNumber: int</text><rect fill="none" height="6" style="stroke:#C82930;stroke-width:1.0;" width="6" x="555.2677" y="386.9453"/><text fill="#FFFFFF" font-family="sans-serif" font-size="14" lengthAdjust="spacing" textLength="114" x="567.2677" y="393.292">balance: double</text><rect fill="none" height="6" style="stroke:#C82930;stroke-width:1.0;" width="6" x="555.2677" y="403.2422"/><text fill="#FFFFFF" font-family="sans-serif" font-size="14" lengthAdjust="spacing" textLength="139" x="567.2677" y="409.5889">creationDate: Date</text><rect fill="none" height="6" style="stroke:#C82930;stroke-width:1.0;" width="6" x="555.2677" y="419.5391"/><text fill="#FFFFFF" font-family="sans-serif" font-size="14" lengthAdjust="spacing" textLength="108" x="567.2677" y="425.8857">status: STATUS</text><line style="stroke:#E7E7E7;stroke-width:0.5;" x1="548.2677" x2="752.2677" y1="433.1875" y2="433.1875"/><ellipse cx="558.2677" cy="446.8359" fill="#84BE84" rx="3" ry="3" style="stroke:#038048;stroke-width:1.0;"/><text fill="#FFFFFF" font-family="sans-serif" font-size="14" lengthAdjust="spacing" textLength="180" x="567.2677" y="450.1826">getAccountNumber(): int</text><ellipse cx="558.2677" cy="463.1328" fill="#84BE84" rx="3" ry="3" style="stroke:#038048;stroke-width:1.0;"/><text fill="#FFFFFF" font-family="sans-serif" font-size="14" lengthAdjust="spacing" textLength="149" x="567.2677" y="466.4795">getBalance(): double</text><ellipse cx="558.2677" cy="479.4297" fill="#84BE84" rx="3" ry="3" style="stroke:#038048;stroke-width:1.0;"/><text fill="#FFFFFF" font-family="sans-serif" font-size="14" lengthAdjust="spacing" textLength="176" x="567.2677" y="482.7764">getCreationDate(): Date</text><ellipse cx="558.2677" cy="495.7266" fill="#84BE84" rx="3" ry="3" style="stroke:#038048;stroke-width:1.0;"/><text fill="#FFFFFF" font-family="sans-serif" font-size="14" lengthAdjust="spacing" textLength="145" x="567.2677" y="499.0732">getStatus(): STATUS</text></g><!--class CurrentAccount--><g id="elem_CurrentAccount"><rect codeLine="12" fill="#313139" height="80.5938" id="CurrentAccount" rx="2.5" ry="2.5" style="stroke:#E7E7E7;stroke-width:0.5;" width="189" x="158.7677" y="648.5"/><ellipse cx="193.1177" cy="664.5" fill="#2E5233" rx="11" ry="11" style="stroke:#E7E7E7;stroke-width:1.0;"/><path d="M195.4614,660.1719 C194.5239,659.7344 193.9302,659.5938 193.0552,659.5938 C190.4302,659.5938 188.4302,661.6719 188.4302,664.3906 L188.4302,665.5156 C188.4302,668.0938 190.5396,669.9844 193.4302,669.9844 C194.6489,669.9844 195.8052,669.6875 196.5552,669.1406 C197.1333,668.7344 197.4614,668.2813 197.4614,667.8906 C197.4614,667.4375 197.0708,667.0469 196.6021,667.0469 C196.3833,667.0469 196.1802,667.125 195.9927,667.3125 C195.5396,667.7969 195.5396,667.7969 195.3521,667.8906 C194.9302,668.1563 194.2427,668.2813 193.4771,668.2813 C191.4302,668.2813 190.1333,667.1875 190.1333,665.4844 L190.1333,664.3906 C190.1333,662.6094 191.3833,661.2969 193.1177,661.2969 C193.6958,661.2969 194.3052,661.4531 194.7739,661.7031 C195.2583,661.9844 195.4302,662.2031 195.5239,662.6094 C195.5864,663.0156 195.6177,663.1406 195.7583,663.2656 C195.8989,663.4063 196.1333,663.5156 196.3521,663.5156 C196.6177,663.5156 196.8833,663.375 197.0552,663.1563 C197.1646,663 197.1958,662.8125 197.1958,662.3906 L197.1958,660.9688 C197.1958,660.5313 197.1802,660.4063 197.0864,660.25 C196.9302,659.9844 196.6489,659.8438 196.3521,659.8438 C196.0552,659.8438 195.8521,659.9375 195.6333,660.25 L195.4614,660.1719 Z " fill="#FFFFFF"/><text fill="#FFFFFF" font-family="sans-serif" font-size="14" lengthAdjust="spacing" textLength="114" x="211.4177" y="669.3467">CurrentAccount</text><line style="stroke:#E7E7E7;stroke-width:0.5;" x1="159.7677" x2="346.7677" y1="680.5" y2="680.5"/><rect fill="none" height="6" style="stroke:#C82930;stroke-width:1.0;" width="6" x="166.7677" y="691.1484"/><text fill="#FFFFFF" font-family="sans-serif" font-size="14" lengthAdjust="spacing" textLength="126" x="178.7677" y="697.4951">overdraft: double</text><line style="stroke:#E7E7E7;stroke-width:0.5;" x1="159.7677" x2="346.7677" y1="704.7969" y2="704.7969"/><ellipse cx="169.7677" cy="718.4453" fill="#84BE84" rx="3" ry="3" style="stroke:#038048;stroke-width:1.0;"/><text fill="#FFFFFF" font-family="sans-serif" font-size="14" lengthAdjust="spacing" textLength="163" x="178.7677" y="721.792">getOverdraft(): double</text></g><!--class SavingsAccount--><g id="elem_SavingsAccount"><rect codeLine="17" fill="#313139" height="80.5938" id="SavingsAccount" rx="2.5" ry="2.5" style="stroke:#E7E7E7;stroke-width:0.5;" width="211" x="382.7677" y="648.5"/><ellipse cx="427.5177" cy="664.5" fill="#2E5233" rx="11" ry="11" style="stroke:#E7E7E7;stroke-width:1.0;"/><path d="M429.8615,660.1719 C428.924,659.7344 428.3302,659.5938 427.4552,659.5938 C424.8302,659.5938 422.8302,661.6719 422.8302,664.3906 L422.8302,665.5156 C422.8302,668.0938 424.9396,669.9844 427.8302,669.9844 C429.049,669.9844 430.2052,669.6875 430.9552,669.1406 C431.5333,668.7344 431.8615,668.2813 431.8615,667.8906 C431.8615,667.4375 431.4708,667.0469 431.0021,667.0469 C430.7833,667.0469 430.5802,667.125 430.3927,667.3125 C429.9396,667.7969 429.9396,667.7969 429.7521,667.8906 C429.3302,668.1563 428.6427,668.2813 427.8771,668.2813 C425.8302,668.2813 424.5333,667.1875 424.5333,665.4844 L424.5333,664.3906 C424.5333,662.6094 425.7833,661.2969 427.5177,661.2969 C428.0958,661.2969 428.7052,661.4531 429.174,661.7031 C429.6583,661.9844 429.8302,662.2031 429.924,662.6094 C429.9865,663.0156 430.0177,663.1406 430.1583,663.2656 C430.299,663.4063 430.5333,663.5156 430.7521,663.5156 C431.0177,663.5156 431.2833,663.375 431.4552,663.1563 C431.5646,663 431.5958,662.8125 431.5958,662.3906 L431.5958,660.9688 C431.5958,660.5313 431.5802,660.4063 431.4865,660.25 C431.3302,659.9844 431.049,659.8438 430.7521,659.8438 C430.4552,659.8438 430.2521,659.9375 430.0333,660.25 L429.8615,660.1719 Z " fill="#FFFFFF"/><text fill="#FFFFFF" font-family="sans-serif" font-size="14" lengthAdjust="spacing" textLength="113" x="448.0177" y="669.3467">SavingsAccount</text><line style="stroke:#E7E7E7;stroke-width:0.5;" x1="383.7677" x2="592.7677" y1="680.5" y2="680.5"/><rect fill="none" height="6" style="stroke:#C82930;stroke-width:1.0;" width="6" x="390.7677" y="691.1484"/><text fill="#FFFFFF" font-family="sans-serif" font-size="14" lengthAdjust="spacing" textLength="150" x="402.7677" y="697.4951">interestRate: double</text><line style="stroke:#E7E7E7;stroke-width:0.5;" x1="383.7677" x2="592.7677" y1="704.7969" y2="704.7969"/><ellipse cx="393.7677" cy="718.4453" fill="#84BE84" rx="3" ry="3" style="stroke:#038048;stroke-width:1.0;"/><text fill="#FFFFFF" font-family="sans-serif" font-size="14" lengthAdjust="spacing" textLength="185" x="402.7677" y="721.792">getInterestRate(): double</text></g><!--class Person--><g id="elem_Person"><rect codeLine="22" fill="#313139" height="210.9688" id="Person" rx="2.5" ry="2.5" style="stroke:#E7E7E7;stroke-width:0.5;" width="210" x="1715.2717" y="311.5"/><ellipse cx="1791.5217" cy="327.5" fill="#2E5233" rx="11" ry="11" style="stroke:#E7E7E7;stroke-width:1.0;"/><path d="M1793.8655,323.1719 C1792.928,322.7344 1792.3342,322.5938 1791.4592,322.5938 C1788.8342,322.5938 1786.8342,324.6719 1786.8342,327.3906 L1786.8342,328.5156 C1786.8342,331.0938 1788.9436,332.9844 1791.8342,332.9844 C1793.053,332.9844 1794.2092,332.6875 1794.9592,332.1406 C1795.5373,331.7344 1795.8655,331.2813 1795.8655,330.8906 C1795.8655,330.4375 1795.4748,330.0469 1795.0061,330.0469 C1794.7873,330.0469 1794.5842,330.125 1794.3967,330.3125 C1793.9436,330.7969 1793.9436,330.7969 1793.7561,330.8906 C1793.3342,331.1563 1792.6467,331.2813 1791.8811,331.2813 C1789.8342,331.2813 1788.5373,330.1875 1788.5373,328.4844 L1788.5373,327.3906 C1788.5373,325.6094 1789.7873,324.2969 1791.5217,324.2969 C1792.0998,324.2969 1792.7092,324.4531 1793.178,324.7031 C1793.6623,324.9844 1793.8342,325.2031 1793.928,325.6094 C1793.9905,326.0156 1794.0217,326.1406 1794.1623,326.2656 C1794.303,326.4063 1794.5373,326.5156 1794.7561,326.5156 C1795.0217,326.5156 1795.2873,326.375 1795.4592,326.1563 C1795.5686,326 1795.5998,325.8125 1795.5998,325.3906 L1795.5998,323.9688 C1795.5998,323.5313 1795.5842,323.4063 1795.4905,323.25 C1795.3342,322.9844 1795.053,322.8438 1794.7561,322.8438 C1794.4592,322.8438 1794.2561,322.9375 1794.0373,323.25 L1793.8655,323.1719 Z " fill="#FFFFFF"/><text fill="#FFFFFF" font-family="sans-serif" font-size="14" lengthAdjust="spacing" textLength="49" x="1812.0217" y="332.3467">Person</text><line style="stroke:#E7E7E7;stroke-width:0.5;" x1="1716.2717" x2="1924.2717" y1="343.5" y2="343.5"/><rect fill="none" height="6" style="stroke:#C82930;stroke-width:1.0;" width="6" x="1723.2717" y="354.1484"/><text fill="#FFFFFF" font-family="sans-serif" font-size="14" lengthAdjust="spacing" textLength="85" x="1735.2717" y="360.4951">nom: String</text><rect fill="none" height="6" style="stroke:#C82930;stroke-width:1.0;" width="6" x="1723.2717" y="370.4453"/><text fill="#FFFFFF" font-family="sans-serif" font-size="14" lengthAdjust="spacing" textLength="110" x="1735.2717" y="376.792">prenom: String</text><rect fill="none" height="6" style="stroke:#C82930;stroke-width:1.0;" width="6" x="1723.2717" y="386.7422"/><text fill="#FFFFFF" font-family="sans-serif" font-size="14" lengthAdjust="spacing" textLength="147" x="1735.2717" y="393.0889">dateNaissance: Date</text><rect fill="none" height="6" style="stroke:#C82930;stroke-width:1.0;" width="6" x="1723.2717" y="403.0391"/><text fill="#FFFFFF" font-family="sans-serif" font-size="14" lengthAdjust="spacing" textLength="128" x="1735.2717" y="409.3857">telephone: String</text><rect fill="none" height="6" style="stroke:#C82930;stroke-width:1.0;" width="6" x="1723.2717" y="419.3359"/><text fill="#FFFFFF" font-family="sans-serif" font-size="14" lengthAdjust="spacing" textLength="108" x="1735.2717" y="425.6826">adresse: String</text><line style="stroke:#E7E7E7;stroke-width:0.5;" x1="1716.2717" x2="1924.2717" y1="432.9844" y2="432.9844"/><ellipse cx="1726.2717" cy="446.6328" fill="#84BE84" rx="3" ry="3" style="stroke:#038048;stroke-width:1.0;"/><text fill="#FFFFFF" font-family="sans-serif" font-size="14" lengthAdjust="spacing" textLength="121" x="1735.2717" y="449.9795">getNom(): String</text><ellipse cx="1726.2717" cy="462.9297" fill="#84BE84" rx="3" ry="3" style="stroke:#038048;stroke-width:1.0;"/><text fill="#FFFFFF" font-family="sans-serif" font-size="14" lengthAdjust="spacing" textLength="144" x="1735.2717" y="466.2764">getPrenom(): String</text><ellipse cx="1726.2717" cy="479.2266" fill="#84BE84" rx="3" ry="3" style="stroke:#038048;stroke-width:1.0;"/><text fill="#FFFFFF" font-family="sans-serif" font-size="14" lengthAdjust="spacing" textLength="184" x="1735.2717" y="482.5732">getDateNaissance(): Date</text><ellipse cx="1726.2717" cy="495.5234" fill="#84BE84" rx="3" ry="3" style="stroke:#038048;stroke-width:1.0;"/><text fill="#FFFFFF" font-family="sans-serif" font-size="14" lengthAdjust="spacing" textLength="165" x="1735.2717" y="498.8701">getTelephone(): String</text><ellipse cx="1726.2717" cy="511.8203" fill="#84BE84" rx="3" ry="3" style="stroke:#038048;stroke-width:1.0;"/><text fill="#FFFFFF" font-family="sans-serif" font-size="14" lengthAdjust="spacing" textLength="145" x="1735.2717" y="515.167">getAdresse(): String</text></g><!--class Client--><g id="elem_Client"><rect codeLine="35" fill="#313139" height="80.5938" id="Client" rx="2.5" ry="2.5" style="stroke:#E7E7E7;stroke-width:0.5;" width="127" x="1608.7717" y="648.5"/><ellipse cx="1647.1717" cy="664.5" fill="#2E5233" rx="11" ry="11" style="stroke:#E7E7E7;stroke-width:1.0;"/><path d="M1649.5155,660.1719 C1648.578,659.7344 1647.9842,659.5938 1647.1092,659.5938 C1644.4842,659.5938 1642.4842,661.6719 1642.4842,664.3906 L1642.4842,665.5156 C1642.4842,668.0938 1644.5936,669.9844 1647.4842,669.9844 C1648.703,669.9844 1649.8592,669.6875 1650.6092,669.1406 C1651.1873,668.7344 1651.5155,668.2813 1651.5155,667.8906 C1651.5155,667.4375 1651.1248,667.0469 1650.6561,667.0469 C1650.4373,667.0469 1650.2342,667.125 1650.0467,667.3125 C1649.5936,667.7969 1649.5936,667.7969 1649.4061,667.8906 C1648.9842,668.1563 1648.2967,668.2813 1647.5311,668.2813 C1645.4842,668.2813 1644.1873,667.1875 1644.1873,665.4844 L1644.1873,664.3906 C1644.1873,662.6094 1645.4373,661.2969 1647.1717,661.2969 C1647.7498,661.2969 1648.3592,661.4531 1648.828,661.7031 C1649.3123,661.9844 1649.4842,662.2031 1649.578,662.6094 C1649.6405,663.0156 1649.6717,663.1406 1649.8123,663.2656 C1649.953,663.4063 1650.1873,663.5156 1650.4061,663.5156 C1650.6717,663.5156 1650.9373,663.375 1651.1092,663.1563 C1651.2186,663 1651.2498,662.8125 1651.2498,662.3906 L1651.2498,660.9688 C1651.2498,660.5313 1651.2342,660.4063 1651.1405,660.25 C1650.9842,659.9844 1650.703,659.8438 1650.4061,659.8438 C1650.1092,659.8438 1649.9061,659.9375 1649.6873,660.25 L1649.5155,660.1719 Z " fill="#FFFFFF"/><text fill="#FFFFFF" font-family="sans-serif" font-size="14" lengthAdjust="spacing" textLength="43" x="1666.3717" y="669.3467">Client</text><line style="stroke:#E7E7E7;stroke-width:0.5;" x1="1609.7717" x2="1734.7717" y1="680.5" y2="680.5"/><rect fill="none" height="6" style="stroke:#C82930;stroke-width:1.0;" width="6" x="1616.7717" y="691.1484"/><text fill="#FFFFFF" font-family="sans-serif" font-size="14" lengthAdjust="spacing" textLength="64" x="1628.7717" y="697.4951">code: int</text><line style="stroke:#E7E7E7;stroke-width:0.5;" x1="1609.7717" x2="1734.7717" y1="704.7969" y2="704.7969"/><ellipse cx="1619.7717" cy="718.4453" fill="#84BE84" rx="3" ry="3" style="stroke:#038048;stroke-width:1.0;"/><text fill="#FFFFFF" font-family="sans-serif" font-size="14" lengthAdjust="spacing" textLength="101" x="1628.7717" y="721.792">getCode(): int</text></g><!--class Employee--><g id="elem_Employee"><rect codeLine="40" fill="#313139" height="145.7813" id="Employee" rx="2.5" ry="2.5" style="stroke:#E7E7E7;stroke-width:0.5;" width="236" x="921.2677" y="616"/><ellipse cx="999.0177" cy="632" fill="#2E5233" rx="11" ry="11" style="stroke:#E7E7E7;stroke-width:1.0;"/><path d="M1001.3615,627.6719 C1000.424,627.2344 999.8302,627.0938 998.9552,627.0938 C996.3302,627.0938 994.3302,629.1719 994.3302,631.8906 L994.3302,633.0156 C994.3302,635.5938 996.4396,637.4844 999.3302,637.4844 C1000.549,637.4844 1001.7052,637.1875 1002.4552,636.6406 C1003.0333,636.2344 1003.3615,635.7813 1003.3615,635.3906 C1003.3615,634.9375 1002.9708,634.5469 1002.5021,634.5469 C1002.2833,634.5469 1002.0802,634.625 1001.8927,634.8125 C1001.4396,635.2969 1001.4396,635.2969 1001.2521,635.3906 C1000.8302,635.6563 1000.1427,635.7813 999.3771,635.7813 C997.3302,635.7813 996.0333,634.6875 996.0333,632.9844 L996.0333,631.8906 C996.0333,630.1094 997.2833,628.7969 999.0177,628.7969 C999.5958,628.7969 1000.2052,628.9531 1000.674,629.2031 C1001.1583,629.4844 1001.3302,629.7031 1001.424,630.1094 C1001.4865,630.5156 1001.5177,630.6406 1001.6583,630.7656 C1001.799,630.9063 1002.0333,631.0156 1002.2521,631.0156 C1002.5177,631.0156 1002.7833,630.875 1002.9552,630.6563 C1003.0646,630.5 1003.0958,630.3125 1003.0958,629.8906 L1003.0958,628.4688 C1003.0958,628.0313 1003.0802,627.9063 1002.9865,627.75 C1002.8302,627.4844 1002.549,627.3438 1002.2521,627.3438 C1001.9552,627.3438 1001.7521,627.4375 1001.5333,627.75 L1001.3615,627.6719 Z " fill="#FFFFFF"/><text fill="#FFFFFF" font-family="sans-serif" font-size="14" lengthAdjust="spacing" textLength="72" x="1019.5177" y="636.8467">Employee</text><line style="stroke:#E7E7E7;stroke-width:0.5;" x1="922.2677" x2="1156.2677" y1="648" y2="648"/><rect fill="none" height="6" style="stroke:#C82930;stroke-width:1.0;" width="6" x="929.2677" y="658.6484"/><text fill="#FFFFFF" font-family="sans-serif" font-size="14" lengthAdjust="spacing" textLength="97" x="941.2677" y="664.9951">matricule: int</text><rect fill="none" height="6" style="stroke:#C82930;stroke-width:1.0;" width="6" x="929.2677" y="674.9453"/><text fill="#FFFFFF" font-family="sans-serif" font-size="14" lengthAdjust="spacing" textLength="173" x="941.2677" y="681.292">dateRecrutement: Date</text><rect fill="none" height="6" style="stroke:#C82930;stroke-width:1.0;" width="6" x="929.2677" y="691.2422"/><text fill="#FFFFFF" font-family="sans-serif" font-size="14" lengthAdjust="spacing" textLength="92" x="941.2677" y="697.5889">email: String</text><line style="stroke:#E7E7E7;stroke-width:0.5;" x1="922.2677" x2="1156.2677" y1="704.8906" y2="704.8906"/><ellipse cx="932.2677" cy="718.5391" fill="#84BE84" rx="3" ry="3" style="stroke:#038048;stroke-width:1.0;"/><text fill="#FFFFFF" font-family="sans-serif" font-size="14" lengthAdjust="spacing" textLength="130" x="941.2677" y="721.8857">getMatricule(): int</text><ellipse cx="932.2677" cy="734.8359" fill="#84BE84" rx="3" ry="3" style="stroke:#038048;stroke-width:1.0;"/><text fill="#FFFFFF" font-family="sans-serif" font-size="14" lengthAdjust="spacing" textLength="210" x="941.2677" y="738.1826">getDateRecrutement(): Date</text><ellipse cx="932.2677" cy="751.1328" fill="#84BE84" rx="3" ry="3" style="stroke:#038048;stroke-width:1.0;"/><text fill="#FFFFFF" font-family="sans-serif" font-size="14" lengthAdjust="spacing" textLength="127" x="941.2677" y="754.4795">getEmail(): String</text></g><!--class Mission--><g id="elem_Mission"><rect codeLine="49" fill="#313139" height="145.7813" id="Mission" rx="2.5" ry="2.5" style="stroke:#E7E7E7;stroke-width:0.5;" width="198" x="1182.2717" y="344"/><ellipse cx="1251.0217" cy="360" fill="#2E5233" rx="11" ry="11" style="stroke:#E7E7E7;stroke-width:1.0;"/><path d="M1253.3655,355.6719 C1252.428,355.2344 1251.8342,355.0938 1250.9592,355.0938 C1248.3342,355.0938 1246.3342,357.1719 1246.3342,359.8906 L1246.3342,361.0156 C1246.3342,363.5938 1248.4436,365.4844 1251.3342,365.4844 C1252.553,365.4844 1253.7092,365.1875 1254.4592,364.6406 C1255.0373,364.2344 1255.3655,363.7813 1255.3655,363.3906 C1255.3655,362.9375 1254.9748,362.5469 1254.5061,362.5469 C1254.2873,362.5469 1254.0842,362.625 1253.8967,362.8125 C1253.4436,363.2969 1253.4436,363.2969 1253.2561,363.3906 C1252.8342,363.6563 1252.1467,363.7813 1251.3811,363.7813 C1249.3342,363.7813 1248.0373,362.6875 1248.0373,360.9844 L1248.0373,359.8906 C1248.0373,358.1094 1249.2873,356.7969 1251.0217,356.7969 C1251.5998,356.7969 1252.2092,356.9531 1252.678,357.2031 C1253.1623,357.4844 1253.3342,357.7031 1253.428,358.1094 C1253.4905,358.5156 1253.5217,358.6406 1253.6623,358.7656 C1253.803,358.9063 1254.0373,359.0156 1254.2561,359.0156 C1254.5217,359.0156 1254.7873,358.875 1254.9592,358.6563 C1255.0686,358.5 1255.0998,358.3125 1255.0998,357.8906 L1255.0998,356.4688 C1255.0998,356.0313 1255.0842,355.9063 1254.9905,355.75 C1254.8342,355.4844 1254.553,355.3438 1254.2561,355.3438 C1253.9592,355.3438 1253.7561,355.4375 1253.5373,355.75 L1253.3655,355.6719 Z " fill="#FFFFFF"/><text fill="#FFFFFF" font-family="sans-serif" font-size="14" lengthAdjust="spacing" textLength="52" x="1271.5217" y="364.8467">Mission</text><line style="stroke:#E7E7E7;stroke-width:0.5;" x1="1183.2717" x2="1379.2717" y1="376" y2="376"/><rect fill="none" height="6" style="stroke:#C82930;stroke-width:1.0;" width="6" x="1190.2717" y="386.6484"/><text fill="#FFFFFF" font-family="sans-serif" font-size="14" lengthAdjust="spacing" textLength="64" x="1202.2717" y="392.9951">code: int</text><rect fill="none" height="6" style="stroke:#C82930;stroke-width:1.0;" width="6" x="1190.2717" y="402.9453"/><text fill="#FFFFFF" font-family="sans-serif" font-size="14" lengthAdjust="spacing" textLength="85" x="1202.2717" y="409.292">nom: String</text><rect fill="none" height="6" style="stroke:#C82930;stroke-width:1.0;" width="6" x="1190.2717" y="419.2422"/><text fill="#FFFFFF" font-family="sans-serif" font-size="14" lengthAdjust="spacing" textLength="135" x="1202.2717" y="425.5889">description: String</text><line style="stroke:#E7E7E7;stroke-width:0.5;" x1="1183.2717" x2="1379.2717" y1="432.8906" y2="432.8906"/><ellipse cx="1193.2717" cy="446.5391" fill="#84BE84" rx="3" ry="3" style="stroke:#038048;stroke-width:1.0;"/><text fill="#FFFFFF" font-family="sans-serif" font-size="14" lengthAdjust="spacing" textLength="101" x="1202.2717" y="449.8857">getCode(): int</text><ellipse cx="1193.2717" cy="462.8359" fill="#84BE84" rx="3" ry="3" style="stroke:#038048;stroke-width:1.0;"/><text fill="#FFFFFF" font-family="sans-serif" font-size="14" lengthAdjust="spacing" textLength="121" x="1202.2717" y="466.1826">getNom(): String</text><ellipse cx="1193.2717" cy="479.1328" fill="#84BE84" rx="3" ry="3" style="stroke:#038048;stroke-width:1.0;"/><text fill="#FFFFFF" font-family="sans-serif" font-size="14" lengthAdjust="spacing" textLength="172" x="1202.2717" y="482.4795">getDescription(): String</text></g><!--class MissionAssignment--><g id="elem_MissionAssignment"><rect codeLine="58" fill="#313139" height="113.1875" id="MissionAssignment" rx="2.5" ry="2.5" style="stroke:#E7E7E7;stroke-width:0.5;" width="185" x="995.7677" y="56"/><ellipse cx="1017.9677" cy="72" fill="#2E5233" rx="11" ry="11" style="stroke:#E7E7E7;stroke-width:1.0;"/><path d="M1020.3115,67.6719 C1019.374,67.2344 1018.7802,67.0938 1017.9052,67.0938 C1015.2802,67.0938 1013.2802,69.1719 1013.2802,71.8906 L1013.2802,73.0156 C1013.2802,75.5938 1015.3896,77.4844 1018.2802,77.4844 C1019.499,77.4844 1020.6552,77.1875 1021.4052,76.6406 C1021.9833,76.2344 1022.3115,75.7813 1022.3115,75.3906 C1022.3115,74.9375 1021.9208,74.5469 1021.4521,74.5469 C1021.2333,74.5469 1021.0302,74.625 1020.8427,74.8125 C1020.3896,75.2969 1020.3896,75.2969 1020.2021,75.3906 C1019.7802,75.6563 1019.0927,75.7813 1018.3271,75.7813 C1016.2802,75.7813 1014.9833,74.6875 1014.9833,72.9844 L1014.9833,71.8906 C1014.9833,70.1094 1016.2333,68.7969 1017.9677,68.7969 C1018.5458,68.7969 1019.1552,68.9531 1019.624,69.2031 C1020.1083,69.4844 1020.2802,69.7031 1020.374,70.1094 C1020.4365,70.5156 1020.4677,70.6406 1020.6083,70.7656 C1020.749,70.9063 1020.9833,71.0156 1021.2021,71.0156 C1021.4677,71.0156 1021.7333,70.875 1021.9052,70.6563 C1022.0146,70.5 1022.0458,70.3125 1022.0458,69.8906 L1022.0458,68.4688 C1022.0458,68.0313 1022.0302,67.9063 1021.9365,67.75 C1021.7802,67.4844 1021.499,67.3438 1021.2021,67.3438 C1020.9052,67.3438 1020.7021,67.4375 1020.4833,67.75 L1020.3115,67.6719 Z " fill="#FFFFFF"/><text fill="#FFFFFF" font-family="sans-serif" font-size="14" lengthAdjust="spacing" textLength="137" x="1033.5677" y="76.8467">MissionAssignment</text><line style="stroke:#E7E7E7;stroke-width:0.5;" x1="996.7677" x2="1179.7677" y1="88" y2="88"/><rect fill="none" height="6" style="stroke:#C82930;stroke-width:1.0;" width="6" x="1003.7677" y="98.6484"/><text fill="#FFFFFF" font-family="sans-serif" font-size="14" lengthAdjust="spacing" textLength="122" x="1015.7677" y="104.9951">debutDate: Date</text><rect fill="none" height="6" style="stroke:#C82930;stroke-width:1.0;" width="6" x="1003.7677" y="114.9453"/><text fill="#FFFFFF" font-family="sans-serif" font-size="14" lengthAdjust="spacing" textLength="106" x="1015.7677" y="121.292">endDate: Date</text><line style="stroke:#E7E7E7;stroke-width:0.5;" x1="996.7677" x2="1179.7677" y1="128.5938" y2="128.5938"/><ellipse cx="1006.7677" cy="142.2422" fill="#84BE84" rx="3" ry="3" style="stroke:#038048;stroke-width:1.0;"/><text fill="#FFFFFF" font-family="sans-serif" font-size="14" lengthAdjust="spacing" textLength="159" x="1015.7677" y="145.5889">getDebutDate(): Date</text><ellipse cx="1006.7677" cy="158.5391" fill="#84BE84" rx="3" ry="3" style="stroke:#038048;stroke-width:1.0;"/><text fill="#FFFFFF" font-family="sans-serif" font-size="14" lengthAdjust="spacing" textLength="141" x="1015.7677" y="161.8857">getEndDate(): Date</text></g><!--class Operation--><g id="elem_Operation"><rect codeLine="65" fill="#313139" height="145.7813" id="Operation" rx="2.5" ry="2.5" style="stroke:#E7E7E7;stroke-width:0.5;" width="220" x="700.2677" y="839"/><ellipse cx="769.5177" cy="855" fill="#2E5233" rx="11" ry="11" style="stroke:#E7E7E7;stroke-width:1.0;"/><path d="M771.8615,850.6719 C770.924,850.2344 770.3302,850.0938 769.4552,850.0938 C766.8302,850.0938 764.8302,852.1719 764.8302,854.8906 L764.8302,856.0156 C764.8302,858.5938 766.9396,860.4844 769.8302,860.4844 C771.049,860.4844 772.2052,860.1875 772.9552,859.6406 C773.5333,859.2344 773.8615,858.7813 773.8615,858.3906 C773.8615,857.9375 773.4708,857.5469 773.0021,857.5469 C772.7833,857.5469 772.5802,857.625 772.3927,857.8125 C771.9396,858.2969 771.9396,858.2969 771.7521,858.3906 C771.3302,858.6563 770.6427,858.7813 769.8771,858.7813 C767.8302,858.7813 766.5333,857.6875 766.5333,855.9844 L766.5333,854.8906 C766.5333,853.1094 767.7833,851.7969 769.5177,851.7969 C770.0958,851.7969 770.7052,851.9531 771.174,852.2031 C771.6583,852.4844 771.8302,852.7031 771.924,853.1094 C771.9865,853.5156 772.0177,853.6406 772.1583,853.7656 C772.299,853.9063 772.5333,854.0156 772.7521,854.0156 C773.0177,854.0156 773.2833,853.875 773.4552,853.6563 C773.5646,853.5 773.5958,853.3125 773.5958,852.8906 L773.5958,851.4688 C773.5958,851.0313 773.5802,850.9063 773.4865,850.75 C773.3302,850.4844 773.049,850.3438 772.7521,850.3438 C772.4552,850.3438 772.2521,850.4375 772.0333,850.75 L771.8615,850.6719 Z " fill="#FFFFFF"/><text fill="#FFFFFF" font-family="sans-serif" font-size="14" lengthAdjust="spacing" textLength="73" x="790.0177" y="859.8467">Operation</text><line style="stroke:#E7E7E7;stroke-width:0.5;" x1="701.2677" x2="919.2677" y1="871" y2="871"/><rect fill="none" height="6" style="stroke:#C82930;stroke-width:1.0;" width="6" x="708.2677" y="881.6484"/><text fill="#FFFFFF" font-family="sans-serif" font-size="14" lengthAdjust="spacing" textLength="157" x="720.2677" y="887.9951">operationNumber: int</text><rect fill="none" height="6" style="stroke:#C82930;stroke-width:1.0;" width="6" x="708.2677" y="897.9453"/><text fill="#FFFFFF" font-family="sans-serif" font-size="14" lengthAdjust="spacing" textLength="139" x="720.2677" y="904.292">creationDate: Date</text><rect fill="none" height="6" style="stroke:#C82930;stroke-width:1.0;" width="6" x="708.2677" y="914.2422"/><text fill="#FFFFFF" font-family="sans-serif" font-size="14" lengthAdjust="spacing" textLength="113" x="720.2677" y="920.5889">amount: double</text><line style="stroke:#E7E7E7;stroke-width:0.5;" x1="701.2677" x2="919.2677" y1="927.8906" y2="927.8906"/><ellipse cx="711.2677" cy="941.5391" fill="#84BE84" rx="3" ry="3" style="stroke:#038048;stroke-width:1.0;"/><text fill="#FFFFFF" font-family="sans-serif" font-size="14" lengthAdjust="spacing" textLength="194" x="720.2677" y="944.8857">getOperationNumber(): int</text><ellipse cx="711.2677" cy="957.8359" fill="#84BE84" rx="3" ry="3" style="stroke:#038048;stroke-width:1.0;"/><text fill="#FFFFFF" font-family="sans-serif" font-size="14" lengthAdjust="spacing" textLength="176" x="720.2677" y="961.1826">getCreationDate(): Date</text><ellipse cx="711.2677" cy="974.1328" fill="#84BE84" rx="3" ry="3" style="stroke:#038048;stroke-width:1.0;"/><text fill="#FFFFFF" font-family="sans-serif" font-size="14" lengthAdjust="spacing" textLength="150" x="720.2677" y="977.4795">getAmount(): double</text></g><!--class Agency--><g id="elem_Agency"><rect codeLine="74" fill="#313139" height="178.375" id="Agency" rx="2.5" ry="2.5" style="stroke:#E7E7E7;stroke-width:0.5;" width="171" x="724.7677" y="23.5"/><ellipse cx="779.5177" cy="39.5" fill="#2E5233" rx="11" ry="11" style="stroke:#E7E7E7;stroke-width:1.0;"/><path d="M781.8615,35.1719 C780.924,34.7344 780.3302,34.5938 779.4552,34.5938 C776.8302,34.5938 774.8302,36.6719 774.8302,39.3906 L774.8302,40.5156 C774.8302,43.0938 776.9396,44.9844 779.8302,44.9844 C781.049,44.9844 782.2052,44.6875 782.9552,44.1406 C783.5333,43.7344 783.8615,43.2813 783.8615,42.8906 C783.8615,42.4375 783.4708,42.0469 783.0021,42.0469 C782.7833,42.0469 782.5802,42.125 782.3927,42.3125 C781.9396,42.7969 781.9396,42.7969 781.7521,42.8906 C781.3302,43.1563 780.6427,43.2813 779.8771,43.2813 C777.8302,43.2813 776.5333,42.1875 776.5333,40.4844 L776.5333,39.3906 C776.5333,37.6094 777.7833,36.2969 779.5177,36.2969 C780.0958,36.2969 780.7052,36.4531 781.174,36.7031 C781.6583,36.9844 781.8302,37.2031 781.924,37.6094 C781.9865,38.0156 782.0177,38.1406 782.1583,38.2656 C782.299,38.4063 782.5333,38.5156 782.7521,38.5156 C783.0177,38.5156 783.2833,38.375 783.4552,38.1563 C783.5646,38 783.5958,37.8125 783.5958,37.3906 L783.5958,35.9688 C783.5958,35.5313 783.5802,35.4063 783.4865,35.25 C783.3302,34.9844 783.049,34.8438 782.7521,34.8438 C782.4552,34.8438 782.2521,34.9375 782.0333,35.25 L781.8615,35.1719 Z " fill="#FFFFFF"/><text fill="#FFFFFF" font-family="sans-serif" font-size="14" lengthAdjust="spacing" textLength="53" x="800.0177" y="44.3467">Agency</text><line style="stroke:#E7E7E7;stroke-width:0.5;" x1="725.7677" x2="894.7677" y1="55.5" y2="55.5"/><rect fill="none" height="6" style="stroke:#C82930;stroke-width:1.0;" width="6" x="732.7677" y="66.1484"/><text fill="#FFFFFF" font-family="sans-serif" font-size="14" lengthAdjust="spacing" textLength="64" x="744.7677" y="72.4951">code: int</text><rect fill="none" height="6" style="stroke:#C82930;stroke-width:1.0;" width="6" x="732.7677" y="82.4453"/><text fill="#FFFFFF" font-family="sans-serif" font-size="14" lengthAdjust="spacing" textLength="93" x="744.7677" y="88.792">name: String</text><rect fill="none" height="6" style="stroke:#C82930;stroke-width:1.0;" width="6" x="732.7677" y="98.7422"/><text fill="#FFFFFF" font-family="sans-serif" font-size="14" lengthAdjust="spacing" textLength="108" x="744.7677" y="105.0889">address: String</text><rect fill="none" height="6" style="stroke:#C82930;stroke-width:1.0;" width="6" x="732.7677" y="115.0391"/><text fill="#FFFFFF" font-family="sans-serif" font-size="14" lengthAdjust="spacing" textLength="99" x="744.7677" y="121.3857">phone: String</text><line style="stroke:#E7E7E7;stroke-width:0.5;" x1="725.7677" x2="894.7677" y1="128.6875" y2="128.6875"/><ellipse cx="735.7677" cy="142.3359" fill="#84BE84" rx="3" ry="3" style="stroke:#038048;stroke-width:1.0;"/><text fill="#FFFFFF" font-family="sans-serif" font-size="14" lengthAdjust="spacing" textLength="101" x="744.7677" y="145.6826">getCode(): int</text><ellipse cx="735.7677" cy="158.6328" fill="#84BE84" rx="3" ry="3" style="stroke:#038048;stroke-width:1.0;"/><text fill="#FFFFFF" font-family="sans-serif" font-size="14" lengthAdjust="spacing" textLength="129" x="744.7677" y="161.9795">getName(): String</text><ellipse cx="735.7677" cy="174.9297" fill="#84BE84" rx="3" ry="3" style="stroke:#038048;stroke-width:1.0;"/><text fill="#FFFFFF" font-family="sans-serif" font-size="14" lengthAdjust="spacing" textLength="145" x="744.7677" y="178.2764">getAddress(): String</text><ellipse cx="735.7677" cy="191.2266" fill="#84BE84" rx="3" ry="3" style="stroke:#038048;stroke-width:1.0;"/><text fill="#FFFFFF" font-family="sans-serif" font-size="14" lengthAdjust="spacing" textLength="133" x="744.7677" y="194.5732">getPhone(): String</text></g><!--class Transfer--><g id="elem_Transfer"><rect codeLine="85" fill="#313139" height="80.5938" id="Transfer" rx="2.5" ry="2.5" style="stroke:#E7E7E7;stroke-width:0.5;" width="168" x="955.2677" y="871.5"/><ellipse cx="1005.0177" cy="887.5" fill="#2E5233" rx="11" ry="11" style="stroke:#E7E7E7;stroke-width:1.0;"/><path d="M1007.3615,883.1719 C1006.424,882.7344 1005.8302,882.5938 1004.9552,882.5938 C1002.3302,882.5938 1000.3302,884.6719 1000.3302,887.3906 L1000.3302,888.5156 C1000.3302,891.0938 1002.4396,892.9844 1005.3302,892.9844 C1006.549,892.9844 1007.7052,892.6875 1008.4552,892.1406 C1009.0333,891.7344 1009.3615,891.2813 1009.3615,890.8906 C1009.3615,890.4375 1008.9708,890.0469 1008.5021,890.0469 C1008.2833,890.0469 1008.0802,890.125 1007.8927,890.3125 C1007.4396,890.7969 1007.4396,890.7969 1007.2521,890.8906 C1006.8302,891.1563 1006.1427,891.2813 1005.3771,891.2813 C1003.3302,891.2813 1002.0333,890.1875 1002.0333,888.4844 L1002.0333,887.3906 C1002.0333,885.6094 1003.2833,884.2969 1005.0177,884.2969 C1005.5958,884.2969 1006.2052,884.4531 1006.674,884.7031 C1007.1583,884.9844 1007.3302,885.2031 1007.424,885.6094 C1007.4865,886.0156 1007.5177,886.1406 1007.6583,886.2656 C1007.799,886.4063 1008.0333,886.5156 1008.2521,886.5156 C1008.5177,886.5156 1008.7833,886.375 1008.9552,886.1563 C1009.0646,886 1009.0958,885.8125 1009.0958,885.3906 L1009.0958,883.9688 C1009.0958,883.5313 1009.0802,883.4063 1008.9865,883.25 C1008.8302,882.9844 1008.549,882.8438 1008.2521,882.8438 C1007.9552,882.8438 1007.7521,882.9375 1007.5333,883.25 L1007.3615,883.1719 Z " fill="#FFFFFF"/><text fill="#FFFFFF" font-family="sans-serif" font-size="14" lengthAdjust="spacing" textLength="60" x="1025.5177" y="892.3467">Transfer</text><line style="stroke:#E7E7E7;stroke-width:0.5;" x1="956.2677" x2="1122.2677" y1="903.5" y2="903.5"/><rect fill="none" height="6" style="stroke:#C82930;stroke-width:1.0;" width="6" x="963.2677" y="914.1484"/><text fill="#FFFFFF" font-family="sans-serif" font-size="14" lengthAdjust="spacing" textLength="42" x="975.2677" y="920.4951">id: int</text><rect fill="none" height="6" style="stroke:#C82930;stroke-width:1.0;" width="6" x="963.2677" y="930.4453"/><text fill="#FFFFFF" font-family="sans-serif" font-size="14" lengthAdjust="spacing" textLength="142" x="975.2677" y="936.792">transfer_date: Date</text><line style="stroke:#E7E7E7;stroke-width:0.5;" x1="956.2677" x2="1122.2677" y1="944.0938" y2="944.0938"/></g><!--class Simulation--><g id="elem_Simulation"><rect codeLine="90" fill="#313139" height="210.9688" id="Simulation" rx="2.5" ry="2.5" style="stroke:#E7E7E7;stroke-width:0.5;" width="251" x="1457.7717" y="7"/><ellipse cx="1541.0217" cy="23" fill="#2E5233" rx="11" ry="11" style="stroke:#E7E7E7;stroke-width:1.0;"/><path d="M1543.3655,18.6719 C1542.428,18.2344 1541.8342,18.0938 1540.9592,18.0938 C1538.3342,18.0938 1536.3342,20.1719 1536.3342,22.8906 L1536.3342,24.0156 C1536.3342,26.5938 1538.4436,28.4844 1541.3342,28.4844 C1542.553,28.4844 1543.7092,28.1875 1544.4592,27.6406 C1545.0373,27.2344 1545.3655,26.7813 1545.3655,26.3906 C1545.3655,25.9375 1544.9748,25.5469 1544.5061,25.5469 C1544.2873,25.5469 1544.0842,25.625 1543.8967,25.8125 C1543.4436,26.2969 1543.4436,26.2969 1543.2561,26.3906 C1542.8342,26.6563 1542.1467,26.7813 1541.3811,26.7813 C1539.3342,26.7813 1538.0373,25.6875 1538.0373,23.9844 L1538.0373,22.8906 C1538.0373,21.1094 1539.2873,19.7969 1541.0217,19.7969 C1541.5998,19.7969 1542.2092,19.9531 1542.678,20.2031 C1543.1623,20.4844 1543.3342,20.7031 1543.428,21.1094 C1543.4905,21.5156 1543.5217,21.6406 1543.6623,21.7656 C1543.803,21.9063 1544.0373,22.0156 1544.2561,22.0156 C1544.5217,22.0156 1544.7873,21.875 1544.9592,21.6563 C1545.0686,21.5 1545.0998,21.3125 1545.0998,20.8906 L1545.0998,19.4688 C1545.0998,19.0313 1545.0842,18.9063 1544.9905,18.75 C1544.8342,18.4844 1544.553,18.3438 1544.2561,18.3438 C1543.9592,18.3438 1543.7561,18.4375 1543.5373,18.75 L1543.3655,18.6719 Z " fill="#FFFFFF"/><text fill="#FFFFFF" font-family="sans-serif" font-size="14" lengthAdjust="spacing" textLength="76" x="1561.5217" y="27.8467">Simulation</text><line style="stroke:#E7E7E7;stroke-width:0.5;" x1="1458.7717" x2="1707.7717" y1="39" y2="39"/><rect fill="none" height="6" style="stroke:#C82930;stroke-width:1.0;" width="6" x="1465.7717" y="49.6484"/><text fill="#FFFFFF" font-family="sans-serif" font-size="14" lengthAdjust="spacing" textLength="42" x="1477.7717" y="55.9951">id: int</text><rect fill="none" height="6" style="stroke:#C82930;stroke-width:1.0;" width="6" x="1465.7717" y="65.9453"/><text fill="#FFFFFF" font-family="sans-serif" font-size="14" lengthAdjust="spacing" textLength="190" x="1477.7717" y="72.292">monthly_payment: double</text><rect fill="none" height="6" style="stroke:#C82930;stroke-width:1.0;" width="6" x="1465.7717" y="82.2422"/><text fill="#FFFFFF" font-family="sans-serif" font-size="14" lengthAdjust="spacing" textLength="183" x="1477.7717" y="88.5889">borrowed_capital: double</text><rect fill="none" height="6" style="stroke:#C82930;stroke-width:1.0;" width="6" x="1465.7717" y="98.5391"/><text fill="#FFFFFF" font-family="sans-serif" font-size="14" lengthAdjust="spacing" textLength="206" x="1477.7717" y="104.8857">monthly_payments_num: int</text><rect fill="none" height="6" style="stroke:#C82930;stroke-width:1.0;" width="6" x="1465.7717" y="114.8359"/><text fill="#FFFFFF" font-family="sans-serif" font-size="14" lengthAdjust="spacing" textLength="99" x="1477.7717" y="121.1826">result: double</text><line style="stroke:#E7E7E7;stroke-width:0.5;" x1="1458.7717" x2="1707.7717" y1="128.4844" y2="128.4844"/><ellipse cx="1468.7717" cy="142.1328" fill="#84BE84" rx="3" ry="3" style="stroke:#038048;stroke-width:1.0;"/><text fill="#FFFFFF" font-family="sans-serif" font-size="14" lengthAdjust="spacing" textLength="77" x="1477.7717" y="145.4795">getId(): int</text><ellipse cx="1468.7717" cy="158.4297" fill="#84BE84" rx="3" ry="3" style="stroke:#038048;stroke-width:1.0;"/><text fill="#FFFFFF" font-family="sans-serif" font-size="14" lengthAdjust="spacing" textLength="215" x="1477.7717" y="161.7764">getMonthlyPayment(): double</text><ellipse cx="1468.7717" cy="174.7266" fill="#84BE84" rx="3" ry="3" style="stroke:#038048;stroke-width:1.0;"/><text fill="#FFFFFF" font-family="sans-serif" font-size="14" lengthAdjust="spacing" textLength="213" x="1477.7717" y="178.0732">getBorrowedCapital(): double</text><ellipse cx="1468.7717" cy="191.0234" fill="#84BE84" rx="3" ry="3" style="stroke:#038048;stroke-width:1.0;"/><text fill="#FFFFFF" font-family="sans-serif" font-size="14" lengthAdjust="spacing" textLength="225" x="1477.7717" y="194.3701">getMonthlyPaymentsNum(): int</text><ellipse cx="1468.7717" cy="207.3203" fill="#84BE84" rx="3" ry="3" style="stroke:#038048;stroke-width:1.0;"/><text fill="#FFFFFF" font-family="sans-serif" font-size="14" lengthAdjust="spacing" textLength="138" x="1477.7717" y="210.667">getResult(): double</text></g><!--class Credit--><g id="elem_Credit"><rect codeLine="103" fill="#313139" height="243.5625" id="Credit" rx="2.5" ry="2.5" style="stroke:#E7E7E7;stroke-width:0.5;" width="194" x="1486.2717" y="295"/><ellipse cx="1556.5217" cy="311" fill="#2E5233" rx="11" ry="11" style="stroke:#E7E7E7;stroke-width:1.0;"/><path d="M1558.8655,306.6719 C1557.928,306.2344 1557.3342,306.0938 1556.4592,306.0938 C1553.8342,306.0938 1551.8342,308.1719 1551.8342,310.8906 L1551.8342,312.0156 C1551.8342,314.5938 1553.9436,316.4844 1556.8342,316.4844 C1558.053,316.4844 1559.2092,316.1875 1559.9592,315.6406 C1560.5373,315.2344 1560.8655,314.7813 1560.8655,314.3906 C1560.8655,313.9375 1560.4748,313.5469 1560.0061,313.5469 C1559.7873,313.5469 1559.5842,313.625 1559.3967,313.8125 C1558.9436,314.2969 1558.9436,314.2969 1558.7561,314.3906 C1558.3342,314.6563 1557.6467,314.7813 1556.8811,314.7813 C1554.8342,314.7813 1553.5373,313.6875 1553.5373,311.9844 L1553.5373,310.8906 C1553.5373,309.1094 1554.7873,307.7969 1556.5217,307.7969 C1557.0998,307.7969 1557.7092,307.9531 1558.178,308.2031 C1558.6623,308.4844 1558.8342,308.7031 1558.928,309.1094 C1558.9905,309.5156 1559.0217,309.6406 1559.1623,309.7656 C1559.303,309.9063 1559.5373,310.0156 1559.7561,310.0156 C1560.0217,310.0156 1560.2873,309.875 1560.4592,309.6563 C1560.5686,309.5 1560.5998,309.3125 1560.5998,308.8906 L1560.5998,307.4688 C1560.5998,307.0313 1560.5842,306.9063 1560.4905,306.75 C1560.3342,306.4844 1560.053,306.3438 1559.7561,306.3438 C1559.4592,306.3438 1559.2561,306.4375 1559.0373,306.75 L1558.8655,306.6719 Z " fill="#FFFFFF"/><text fill="#FFFFFF" font-family="sans-serif" font-size="14" lengthAdjust="spacing" textLength="45" x="1577.0217" y="315.8467">Credit</text><line style="stroke:#E7E7E7;stroke-width:0.5;" x1="1487.2717" x2="1679.2717" y1="327" y2="327"/><rect fill="none" height="6" style="stroke:#C82930;stroke-width:1.0;" width="6" x="1494.2717" y="337.6484"/><text fill="#FFFFFF" font-family="sans-serif" font-size="14" lengthAdjust="spacing" textLength="85" x="1506.2717" y="343.9951">number: int</text><rect fill="none" height="6" style="stroke:#C82930;stroke-width:1.0;" width="6" x="1494.2717" y="353.9453"/><text fill="#FFFFFF" font-family="sans-serif" font-size="14" lengthAdjust="spacing" textLength="77" x="1506.2717" y="360.292">date: Date</text><rect fill="none" height="6" style="stroke:#C82930;stroke-width:1.0;" width="6" x="1494.2717" y="370.2422"/><text fill="#FFFFFF" font-family="sans-serif" font-size="14" lengthAdjust="spacing" textLength="113" x="1506.2717" y="376.5889">amount: double</text><rect fill="none" height="6" style="stroke:#C82930;stroke-width:1.0;" width="6" x="1494.2717" y="386.5391"/><text fill="#FFFFFF" font-family="sans-serif" font-size="14" lengthAdjust="spacing" textLength="93" x="1506.2717" y="392.8857">state: STATE</text><rect fill="none" height="6" style="stroke:#C82930;stroke-width:1.0;" width="6" x="1494.2717" y="402.8359"/><text fill="#FFFFFF" font-family="sans-serif" font-size="14" lengthAdjust="spacing" textLength="129" x="1506.2717" y="409.1826">remarques: String</text><rect fill="none" height="6" style="stroke:#C82930;stroke-width:1.0;" width="6" x="1494.2717" y="419.1328"/><text fill="#FFFFFF" font-family="sans-serif" font-size="14" lengthAdjust="spacing" textLength="113" x="1506.2717" y="425.4795">duration: String</text><line style="stroke:#E7E7E7;stroke-width:0.5;" x1="1487.2717" x2="1679.2717" y1="432.7813" y2="432.7813"/><ellipse cx="1497.2717" cy="446.4297" fill="#84BE84" rx="3" ry="3" style="stroke:#038048;stroke-width:1.0;"/><text fill="#FFFFFF" font-family="sans-serif" font-size="14" lengthAdjust="spacing" textLength="121" x="1506.2717" y="449.7764">getNumber(): int</text><ellipse cx="1497.2717" cy="462.7266" fill="#84BE84" rx="3" ry="3" style="stroke:#038048;stroke-width:1.0;"/><text fill="#FFFFFF" font-family="sans-serif" font-size="14" lengthAdjust="spacing" textLength="114" x="1506.2717" y="466.0732">getDate(): Date</text><ellipse cx="1497.2717" cy="479.0234" fill="#84BE84" rx="3" ry="3" style="stroke:#038048;stroke-width:1.0;"/><text fill="#FFFFFF" font-family="sans-serif" font-size="14" lengthAdjust="spacing" textLength="150" x="1506.2717" y="482.3701">getAmount(): double</text><ellipse cx="1497.2717" cy="495.3203" fill="#84BE84" rx="3" ry="3" style="stroke:#038048;stroke-width:1.0;"/><text fill="#FFFFFF" font-family="sans-serif" font-size="14" lengthAdjust="spacing" textLength="130" x="1506.2717" y="498.667">getState(): STATE</text><ellipse cx="1497.2717" cy="511.6172" fill="#84BE84" rx="3" ry="3" style="stroke:#038048;stroke-width:1.0;"/><text fill="#FFFFFF" font-family="sans-serif" font-size="14" lengthAdjust="spacing" textLength="168" x="1506.2717" y="514.9639">getRemarques(): String</text><ellipse cx="1497.2717" cy="527.9141" fill="#84BE84" rx="3" ry="3" style="stroke:#038048;stroke-width:1.0;"/><text fill="#FFFFFF" font-family="sans-serif" font-size="14" lengthAdjust="spacing" textLength="150" x="1506.2717" y="531.2607">getDuration(): String</text></g><!--class Payment--><g id="elem_Payment"><rect codeLine="118" fill="#313139" height="129.4844" id="Payment" rx="2.5" ry="2.5" style="stroke:#E7E7E7;stroke-width:0.5;" width="278" x="452.2677" y="1062"/><ellipse cx="555.0177" cy="1078" fill="#2E5233" rx="11" ry="11" style="stroke:#E7E7E7;stroke-width:1.0;"/><path d="M557.3615,1073.6719 C556.424,1073.2344 555.8302,1073.0938 554.9552,1073.0938 C552.3302,1073.0938 550.3302,1075.1719 550.3302,1077.8906 L550.3302,1079.0156 C550.3302,1081.5938 552.4396,1083.4844 555.3302,1083.4844 C556.549,1083.4844 557.7052,1083.1875 558.4552,1082.6406 C559.0333,1082.2344 559.3615,1081.7813 559.3615,1081.3906 C559.3615,1080.9375 558.9708,1080.5469 558.5021,1080.5469 C558.2833,1080.5469 558.0802,1080.625 557.8927,1080.8125 C557.4396,1081.2969 557.4396,1081.2969 557.2521,1081.3906 C556.8302,1081.6563 556.1427,1081.7813 555.3771,1081.7813 C553.3302,1081.7813 552.0333,1080.6875 552.0333,1078.9844 L552.0333,1077.8906 C552.0333,1076.1094 553.2833,1074.7969 555.0177,1074.7969 C555.5958,1074.7969 556.2052,1074.9531 556.674,1075.2031 C557.1583,1075.4844 557.3302,1075.7031 557.424,1076.1094 C557.4865,1076.5156 557.5177,1076.6406 557.6583,1076.7656 C557.799,1076.9063 558.0333,1077.0156 558.2521,1077.0156 C558.5177,1077.0156 558.7833,1076.875 558.9552,1076.6563 C559.0646,1076.5 559.0958,1076.3125 559.0958,1075.8906 L559.0958,1074.4688 C559.0958,1074.0313 559.0802,1073.9063 558.9865,1073.75 C558.8302,1073.4844 558.549,1073.3438 558.2521,1073.3438 C557.9552,1073.3438 557.7521,1073.4375 557.5333,1073.75 L557.3615,1073.6719 Z " fill="#FFFFFF"/><text fill="#FFFFFF" font-family="sans-serif" font-size="14" lengthAdjust="spacing" textLength="64" x="575.5177" y="1082.8467">Payment</text><line style="stroke:#E7E7E7;stroke-width:0.5;" x1="453.2677" x2="729.2677" y1="1094" y2="1094"/><rect fill="none" height="6" style="stroke:#C82930;stroke-width:1.0;" width="6" x="460.2677" y="1104.6484"/><text fill="#FFFFFF" font-family="sans-serif" font-size="14" lengthAdjust="spacing" textLength="42" x="472.2677" y="1110.9951">id: int</text><rect fill="none" height="6" style="stroke:#C82930;stroke-width:1.0;" width="6" x="460.2677" y="1120.9453"/><text fill="#FFFFFF" font-family="sans-serif" font-size="14" lengthAdjust="spacing" textLength="215" x="472.2677" y="1127.292">transaction_time: TIMESTAMP</text><rect fill="none" height="6" style="stroke:#C82930;stroke-width:1.0;" width="6" x="460.2677" y="1137.2422"/><text fill="#FFFFFF" font-family="sans-serif" font-size="14" lengthAdjust="spacing" textLength="162" x="472.2677" y="1143.5889">type: OPERATIONTYPE</text><line style="stroke:#E7E7E7;stroke-width:0.5;" x1="453.2677" x2="729.2677" y1="1150.8906" y2="1150.8906"/><ellipse cx="463.2677" cy="1164.5391" fill="#84BE84" rx="3" ry="3" style="stroke:#038048;stroke-width:1.0;"/><text fill="#FFFFFF" font-family="sans-serif" font-size="14" lengthAdjust="spacing" textLength="77" x="472.2677" y="1167.8857">getId(): int</text><ellipse cx="463.2677" cy="1180.8359" fill="#84BE84" rx="3" ry="3" style="stroke:#038048;stroke-width:1.0;"/><text fill="#FFFFFF" font-family="sans-serif" font-size="14" lengthAdjust="spacing" textLength="252" x="472.2677" y="1184.1826">getTransaction_time(): TIMESTAMP</text></g><!--class SimpleOperation--><g id="elem_SimpleOperation"><rect codeLine="126" fill="#313139" height="96.8906" id="SimpleOperation" rx="2.5" ry="2.5" style="stroke:#E7E7E7;stroke-width:0.5;" width="188" x="765.2677" y="1078"/><ellipse cx="795.1177" cy="1094" fill="#2E5233" rx="11" ry="11" style="stroke:#E7E7E7;stroke-width:1.0;"/><path d="M797.4615,1089.6719 C796.524,1089.2344 795.9302,1089.0938 795.0552,1089.0938 C792.4302,1089.0938 790.4302,1091.1719 790.4302,1093.8906 L790.4302,1095.0156 C790.4302,1097.5938 792.5396,1099.4844 795.4302,1099.4844 C796.649,1099.4844 797.8052,1099.1875 798.5552,1098.6406 C799.1333,1098.2344 799.4615,1097.7813 799.4615,1097.3906 C799.4615,1096.9375 799.0708,1096.5469 798.6021,1096.5469 C798.3833,1096.5469 798.1802,1096.625 797.9927,1096.8125 C797.5396,1097.2969 797.5396,1097.2969 797.3521,1097.3906 C796.9302,1097.6563 796.2427,1097.7813 795.4771,1097.7813 C793.4302,1097.7813 792.1333,1096.6875 792.1333,1094.9844 L792.1333,1093.8906 C792.1333,1092.1094 793.3833,1090.7969 795.1177,1090.7969 C795.6958,1090.7969 796.3052,1090.9531 796.774,1091.2031 C797.2583,1091.4844 797.4302,1091.7031 797.524,1092.1094 C797.5865,1092.5156 797.6177,1092.6406 797.7583,1092.7656 C797.899,1092.9063 798.1333,1093.0156 798.3521,1093.0156 C798.6177,1093.0156 798.8833,1092.875 799.0552,1092.6563 C799.1646,1092.5 799.1958,1092.3125 799.1958,1091.8906 L799.1958,1090.4688 C799.1958,1090.0313 799.1802,1089.9063 799.0865,1089.75 C798.9302,1089.4844 798.649,1089.3438 798.3521,1089.3438 C798.0552,1089.3438 797.8521,1089.4375 797.6333,1089.75 L797.4615,1089.6719 Z " fill="#FFFFFF"/><text fill="#FFFFFF" font-family="sans-serif" font-size="14" lengthAdjust="spacing" textLength="123" x="812.4177" y="1098.8467">SimpleOperation</text><line style="stroke:#E7E7E7;stroke-width:0.5;" x1="766.2677" x2="952.2677" y1="1110" y2="1110"/><rect fill="none" height="6" style="stroke:#C82930;stroke-width:1.0;" width="6" x="773.2677" y="1120.6484"/><text fill="#FFFFFF" font-family="sans-serif" font-size="14" lengthAdjust="spacing" textLength="42" x="785.2677" y="1126.9951">id: int</text><rect fill="none" height="6" style="stroke:#C82930;stroke-width:1.0;" width="6" x="773.2677" y="1136.9453"/><text fill="#FFFFFF" font-family="sans-serif" font-size="14" lengthAdjust="spacing" textLength="162" x="785.2677" y="1143.292">type: OPERATIONTYPE</text><line style="stroke:#E7E7E7;stroke-width:0.5;" x1="766.2677" x2="952.2677" y1="1150.5938" y2="1150.5938"/><ellipse cx="776.2677" cy="1164.2422" fill="#84BE84" rx="3" ry="3" style="stroke:#038048;stroke-width:1.0;"/><text fill="#FFFFFF" font-family="sans-serif" font-size="14" lengthAdjust="spacing" textLength="77" x="785.2677" y="1167.5889">getId(): int</text></g><!--class OPERATIONTYPE--><g id="elem_OPERATIONTYPE"><rect codeLine="132" fill="#313139" height="96.8906" id="OPERATIONTYPE" rx="2.5" ry="2.5" style="stroke:#E7E7E7;stroke-width:0.5;" width="151" x="390.7677" y="64"/><ellipse cx="405.7677" cy="80" fill="#852D19" rx="11" ry="11" style="stroke:#E7E7E7;stroke-width:1.0;"/><path d="M404.5646,80.875 L406.0177,80.875 L406.0177,80.9844 C406.0177,81.3906 406.049,81.5469 406.1271,81.7031 C406.2833,81.9531 406.5646,82.1094 406.8615,82.1094 C407.1115,82.1094 407.3771,81.9688 407.5333,81.75 C407.6583,81.5938 407.6896,81.4375 407.6896,80.9844 L407.6896,79.0625 C407.6896,78.9063 407.6896,78.8594 407.674,78.7031 C407.6115,78.2344 407.299,77.9219 406.8458,77.9219 C406.5958,77.9219 406.3302,78.0625 406.1583,78.2813 C406.049,78.4531 406.0177,78.6094 406.0177,79.0625 L406.0177,79.1875 L404.5646,79.1875 L404.5646,76.7813 L408.549,76.7813 L408.549,77.6406 C408.549,78.0469 408.5802,78.2188 408.6583,78.375 C408.8302,78.625 409.1115,78.7813 409.3927,78.7813 C409.6583,78.7813 409.924,78.6406 410.0958,78.4219 C410.2052,78.25 410.2365,78.1094 410.2365,77.6406 L410.2365,75.0938 L402.6115,75.0938 C402.174,75.0938 402.049,75.1094 401.8927,75.2031 C401.6427,75.3594 401.4865,75.6563 401.4865,75.9375 C401.4865,76.2188 401.6271,76.4688 401.8458,76.6406 C402.0021,76.75 402.1896,76.7813 402.6115,76.7813 L402.8615,76.7813 L402.8615,83.2969 L402.6115,83.2969 C402.2052,83.2969 402.049,83.3125 401.8927,83.4219 C401.6427,83.5938 401.4865,83.8594 401.4865,84.1563 C401.4865,84.4219 401.6271,84.6719 401.8458,84.8281 C401.9865,84.9531 402.2208,85 402.6115,85 L410.6115,85 L410.6115,82.4219 C410.6115,81.9844 410.5802,81.8438 410.5021,81.6875 C410.3302,81.4375 410.049,81.2813 409.7677,81.2813 C409.5021,81.2813 409.2365,81.3906 409.0646,81.6406 C408.9552,81.7969 408.924,81.9375 408.924,82.4219 L408.924,83.2969 L404.5646,83.2969 L404.5646,80.875 Z " fill="#FFFFFF"/><text fill="#FFFFFF" font-family="sans-serif" font-size="14" lengthAdjust="spacing" textLength="119" x="419.7677" y="84.8467">OPERATIONTYPE</text><line style="stroke:#E7E7E7;stroke-width:0.5;" x1="391.7677" x2="540.7677" y1="96" y2="96"/><text fill="#FFFFFF" font-family="sans-serif" font-size="14" lengthAdjust="spacing" textLength="68" x="396.7677" y="112.9951">PAYMENT</text><text fill="#FFFFFF" font-family="sans-serif" font-size="14" lengthAdjust="spacing" textLength="100" x="396.7677" y="129.292">WITHDRAWAL</text><text fill="#FFFFFF" font-family="sans-serif" font-size="14" lengthAdjust="spacing" textLength="62" x="396.7677" y="145.5889">DEPOSIT</text><line style="stroke:#E7E7E7;stroke-width:0.5;" x1="391.7677" x2="540.7677" y1="152.8906" y2="152.8906"/></g><!--class STATUS--><g id="elem_STATUS"><rect codeLine="138" fill="#313139" height="80.5938" id="STATUS" rx="2.5" ry="2.5" style="stroke:#E7E7E7;stroke-width:0.5;" width="87" x="576.7677" y="72"/><ellipse cx="591.7677" cy="88" fill="#852D19" rx="11" ry="11" style="stroke:#E7E7E7;stroke-width:1.0;"/><path d="M590.5646,88.875 L592.0177,88.875 L592.0177,88.9844 C592.0177,89.3906 592.049,89.5469 592.1271,89.7031 C592.2833,89.9531 592.5646,90.1094 592.8615,90.1094 C593.1115,90.1094 593.3771,89.9688 593.5333,89.75 C593.6583,89.5938 593.6896,89.4375 593.6896,88.9844 L593.6896,87.0625 C593.6896,86.9063 593.6896,86.8594 593.674,86.7031 C593.6115,86.2344 593.299,85.9219 592.8458,85.9219 C592.5958,85.9219 592.3302,86.0625 592.1583,86.2813 C592.049,86.4531 592.0177,86.6094 592.0177,87.0625 L592.0177,87.1875 L590.5646,87.1875 L590.5646,84.7813 L594.549,84.7813 L594.549,85.6406 C594.549,86.0469 594.5802,86.2188 594.6583,86.375 C594.8302,86.625 595.1115,86.7813 595.3927,86.7813 C595.6583,86.7813 595.924,86.6406 596.0958,86.4219 C596.2052,86.25 596.2365,86.1094 596.2365,85.6406 L596.2365,83.0938 L588.6115,83.0938 C588.174,83.0938 588.049,83.1094 587.8927,83.2031 C587.6427,83.3594 587.4865,83.6563 587.4865,83.9375 C587.4865,84.2188 587.6271,84.4688 587.8458,84.6406 C588.0021,84.75 588.1896,84.7813 588.6115,84.7813 L588.8615,84.7813 L588.8615,91.2969 L588.6115,91.2969 C588.2052,91.2969 588.049,91.3125 587.8927,91.4219 C587.6427,91.5938 587.4865,91.8594 587.4865,92.1563 C587.4865,92.4219 587.6271,92.6719 587.8458,92.8281 C587.9865,92.9531 588.2208,93 588.6115,93 L596.6115,93 L596.6115,90.4219 C596.6115,89.9844 596.5802,89.8438 596.5021,89.6875 C596.3302,89.4375 596.049,89.2813 595.7677,89.2813 C595.5021,89.2813 595.2365,89.3906 595.0646,89.6406 C594.9552,89.7969 594.924,89.9375 594.924,90.4219 L594.924,91.2969 L590.5646,91.2969 L590.5646,88.875 Z " fill="#FFFFFF"/><text fill="#FFFFFF" font-family="sans-serif" font-size="14" lengthAdjust="spacing" textLength="55" x="605.7677" y="92.8467">STATUS</text><line style="stroke:#E7E7E7;stroke-width:0.5;" x1="577.7677" x2="662.7677" y1="104" y2="104"/><text fill="#FFFFFF" font-family="sans-serif" font-size="14" lengthAdjust="spacing" textLength="52" x="582.7677" y="120.9951">ACTIVE</text><text fill="#FFFFFF" font-family="sans-serif" font-size="14" lengthAdjust="spacing" textLength="66" x="582.7677" y="137.292">INACTIVE</text><line style="stroke:#E7E7E7;stroke-width:0.5;" x1="577.7677" x2="662.7677" y1="144.5938" y2="144.5938"/></g><!--class STATE--><g id="elem_STATE"><rect codeLine="143" fill="#313139" height="96.8906" id="STATE" rx="2.5" ry="2.5" style="stroke:#E7E7E7;stroke-width:0.5;" width="91" x="420.7677" y="368.5"/><ellipse cx="441.6177" cy="384.5" fill="#852D19" rx="11" ry="11" style="stroke:#E7E7E7;stroke-width:1.0;"/><path d="M440.4146,385.375 L441.8677,385.375 L441.8677,385.4844 C441.8677,385.8906 441.899,386.0469 441.9771,386.2031 C442.1333,386.4531 442.4146,386.6094 442.7115,386.6094 C442.9615,386.6094 443.2271,386.4688 443.3833,386.25 C443.5083,386.0938 443.5396,385.9375 443.5396,385.4844 L443.5396,383.5625 C443.5396,383.4063 443.5396,383.3594 443.524,383.2031 C443.4615,382.7344 443.149,382.4219 442.6958,382.4219 C442.4458,382.4219 442.1802,382.5625 442.0083,382.7813 C441.899,382.9531 441.8677,383.1094 441.8677,383.5625 L441.8677,383.6875 L440.4146,383.6875 L440.4146,381.2813 L444.399,381.2813 L444.399,382.1406 C444.399,382.5469 444.4302,382.7188 444.5083,382.875 C444.6802,383.125 444.9615,383.2813 445.2427,383.2813 C445.5083,383.2813 445.774,383.1406 445.9458,382.9219 C446.0552,382.75 446.0865,382.6094 446.0865,382.1406 L446.0865,379.5938 L438.4615,379.5938 C438.024,379.5938 437.899,379.6094 437.7427,379.7031 C437.4927,379.8594 437.3365,380.1563 437.3365,380.4375 C437.3365,380.7188 437.4771,380.9688 437.6958,381.1406 C437.8521,381.25 438.0396,381.2813 438.4615,381.2813 L438.7115,381.2813 L438.7115,387.7969 L438.4615,387.7969 C438.0552,387.7969 437.899,387.8125 437.7427,387.9219 C437.4927,388.0938 437.3365,388.3594 437.3365,388.6563 C437.3365,388.9219 437.4771,389.1719 437.6958,389.3281 C437.8365,389.4531 438.0708,389.5 438.4615,389.5 L446.4615,389.5 L446.4615,386.9219 C446.4615,386.4844 446.4302,386.3438 446.3521,386.1875 C446.1802,385.9375 445.899,385.7813 445.6177,385.7813 C445.3521,385.7813 445.0865,385.8906 444.9146,386.1406 C444.8052,386.2969 444.774,386.4375 444.774,386.9219 L444.774,387.7969 L440.4146,387.7969 L440.4146,385.375 Z " fill="#FFFFFF"/><text fill="#FFFFFF" font-family="sans-serif" font-size="14" lengthAdjust="spacing" textLength="46" x="456.9177" y="389.3467">STATE</text><line style="stroke:#E7E7E7;stroke-width:0.5;" x1="421.7677" x2="510.7677" y1="400.5" y2="400.5"/><text fill="#FFFFFF" font-family="sans-serif" font-size="14" lengthAdjust="spacing" textLength="79" x="426.7677" y="417.4951">APPROVED</text><text fill="#FFFFFF" font-family="sans-serif" font-size="14" lengthAdjust="spacing" textLength="64" x="426.7677" y="433.792">PENDING</text><text fill="#FFFFFF" font-family="sans-serif" font-size="14" lengthAdjust="spacing" textLength="72" x="426.7677" y="450.0889">DECLINED</text><line style="stroke:#E7E7E7;stroke-width:0.5;" x1="421.7677" x2="510.7677" y1="457.3906" y2="457.3906"/></g><!--reverse link Person to Client--><g id="link_Person_Client"><path d="M1754.1804,538.5596 C1730.0504,582.5856 1712.0917,615.346 1694.0017,648.354 " fill="none" id="Person-backto-Client" style="stroke:#E7E7E7;stroke-width:1.0;"/><polygon fill="none" points="1762.8317,522.775,1748.9188,535.6759,1759.4419,541.4434,1762.8317,522.775" style="stroke:#E7E7E7;stroke-width:1.0;"/></g><!--reverse link Person to Employee--><g id="link_Person_Employee"><path d="M1709.0065,533.403 C1700.8665,539.443 1706.8917,534.252 1698.2717,539 C1525.3917,634.192 1295.1017,668.619 1157.5317,681.035 " fill="none" id="Person-backto-Employee" style="stroke:#E7E7E7;stroke-width:1.0;"/><polygon fill="none" points="1723.4617,522.677,1705.4312,528.5846,1712.5818,538.2214,1723.4617,522.677" style="stroke:#E7E7E7;stroke-width:1.0;"/></g><!--reverse link Account to CurrentAccount--><g id="link_Account_CurrentAccount"><path codeLine="149" d="M556.4512,518.2038 C543.5482,530.0418 543.1257,529.269 529.2677,539 C463.3677,585.273 435.7337,577.032 365.2677,616 C347.4667,625.844 328.6697,637.428 311.6637,648.393 " fill="none" id="Account-backto-CurrentAccount" style="stroke:#E7E7E7;stroke-width:1.0;"/><polygon fill="none" points="569.7147,506.035,552.3949,513.7826,560.5074,522.6249,569.7147,506.035" style="stroke:#E7E7E7;stroke-width:1.0;"/><text fill="#FFFFFF" font-family="sans-serif" font-size="13" lengthAdjust="spacing" textLength="52" x="476.2677" y="582.0669">extends</text></g><!--reverse link Account to SavingsAccount--><g id="link_Account_SavingsAccount"><path codeLine="150" d="M588.1859,521.4689 C559.3779,569.4829 534.3987,611.116 512.0437,648.374 " fill="none" id="Account-backto-SavingsAccount" style="stroke:#E7E7E7;stroke-width:1.0;"/><polygon fill="none" points="597.4467,506.034,583.0409,518.382,593.3308,524.5559,597.4467,506.034" style="stroke:#E7E7E7;stroke-width:1.0;"/><text fill="#FFFFFF" font-family="sans-serif" font-size="13" lengthAdjust="spacing" textLength="52" x="561.2677" y="582.0669">extends</text></g><!--reverse link Account to Operation--><g id="link_Account_Operation"><path codeLine="151" d="M682.5771,517.5529 C713.4081,612.5499 758.1957,750.552 786.8487,838.839 " fill="none" id="Account-backto-Operation" style="stroke:#E7E7E7;stroke-width:1.0;"/><polygon fill="#E7E7E7" points="678.8727,506.139,676.9202,513.0807,682.5771,517.5529,684.5295,510.6112,678.8727,506.139" style="stroke:#E7E7E7;stroke-width:1.0;"/><text fill="#FFFFFF" font-family="sans-serif" font-size="13" lengthAdjust="spacing" textLength="8" x="672.9872" y="526.5004">1</text><text fill="#FFFFFF" font-family="sans-serif" font-size="13" lengthAdjust="spacing" textLength="23" x="760.4114" y="827.9831">0..*</text></g><!--reverse link Account to Client--><g id="link_Account_Client"><path codeLine="152" d="M764.7172,464.953 C828.4392,490.113 901.1197,516.872 977.2677,539 C1206.2717,605.545 1485.5717,656.53 1608.7417,677.526 " fill="none" id="Account-backto-Client" style="stroke:#E7E7E7;stroke-width:1.0;"/><polygon fill="#E7E7E7" points="753.5557,460.546,757.6674,466.47,764.7172,464.953,760.6054,459.029,753.5557,460.546" style="stroke:#E7E7E7;stroke-width:1.0;"/><text fill="#FFFFFF" font-family="sans-serif" font-size="13" lengthAdjust="spacing" textLength="8" x="761.4347" y="460.2511">1</text><text fill="#FFFFFF" font-family="sans-serif" font-size="13" lengthAdjust="spacing" textLength="23" x="1578.0042" y="672.664">0..*</text></g><!--reverse link Account to Employee--><g id="link_Account_Employee"><path codeLine="153" d="M708.2456,516.2219 C728.0876,544.6389 746.0117,564.466 774.2677,586 C817.3977,618.869 872.3907,642.323 921.0877,658.386 " fill="none" id="Account-backto-Employee" style="stroke:#E7E7E7;stroke-width:1.0;"/><polygon fill="#E7E7E7" points="701.3757,506.383,701.531,513.5924,708.2456,516.2219,708.0903,509.0125,701.3757,506.383" style="stroke:#E7E7E7;stroke-width:1.0;"/><text fill="#FFFFFF" font-family="sans-serif" font-size="13" lengthAdjust="spacing" textLength="8" x="697.2768" y="526.463">1</text><text fill="#FFFFFF" font-family="sans-serif" font-size="13" lengthAdjust="spacing" textLength="23" x="890.1853" y="653.141">0..*</text></g><!--reverse link Employee to Operation--><g id="link_Employee_Operation"><path codeLine="154" d="M955.9668,770.391 C930.5148,794.953 910.6987,814.078 885.2237,838.662 " fill="none" id="Employee-backto-Operation" style="stroke:#E7E7E7;stroke-width:1.0;"/><polygon fill="#E7E7E7" points="964.6017,762.058,957.5066,763.3462,955.9668,770.391,963.0619,769.1028,964.6017,762.058" style="stroke:#E7E7E7;stroke-width:1.0;"/><text fill="#FFFFFF" font-family="sans-serif" font-size="13" lengthAdjust="spacing" textLength="8" x="949.1038" y="781.8198">1</text><text fill="#FFFFFF" font-family="sans-serif" font-size="13" lengthAdjust="spacing" textLength="23" x="868.2719" y="828.0408">0..*</text></g><!--reverse link Mission to Employee--><g id="link_Mission_Employee"><path codeLine="155" d="M1208.7231,498.9365 C1173.8631,537.8355 1138.9417,576.792 1104.0417,615.732 " fill="none" id="Mission-backto-Employee" style="stroke:#E7E7E7;stroke-width:1.0;"/><polygon fill="#E7E7E7" points="1216.7317,490,1209.7485,491.7987,1208.7231,498.9365,1215.7062,497.1378,1216.7317,490" style="stroke:#E7E7E7;stroke-width:1.0;"/><text fill="#FFFFFF" font-family="sans-serif" font-size="13" lengthAdjust="spacing" textLength="8" x="1202.199" y="509.7563">1</text><text fill="#FFFFFF" font-family="sans-serif" font-size="13" lengthAdjust="spacing" textLength="23" x="1086.2859" y="604.8656">0..*</text></g><!--link MissionAssignment to Mission--><g id="link_MissionAssignment_Mission"><path codeLine="156" d="M1123.8917,169.34 C1155.2617,218.501 1201.1317,290.402 1235.2717,343.904 " fill="none" id="MissionAssignment-Mission" style="stroke:#E7E7E7;stroke-width:1.0;"/><text fill="#FFFFFF" font-family="sans-serif" font-size="13" lengthAdjust="spacing" textLength="74" x="1186.2717" y="261.0669">assigned to</text></g><!--link MissionAssignment to Employee--><g id="link_MissionAssignment_Employee"><path codeLine="157" d="M1068.3777,169.07 C1056.7447,204.571 1043.2117,251.876 1037.2677,295 C1022.4607,402.429 1036.5397,430.558 1037.2677,539 C1037.4347,563.964 1037.7607,591.28 1038.1007,615.627 " fill="none" id="MissionAssignment-Employee" style="stroke:#E7E7E7;stroke-width:1.0;"/><text fill="#FFFFFF" font-family="sans-serif" font-size="13" lengthAdjust="spacing" textLength="125" x="1038.2677" y="421.5669">assigned employee</text></g><!--reverse link Agency to Account--><g id="link_Agency_Account"><path codeLine="158" d="M757.9481,212.4166 C736.9641,252.0896 717.8707,288.188 696.8957,327.843 " fill="none" id="Agency-backto-Account" style="stroke:#E7E7E7;stroke-width:1.0;"/><polygon fill="#E7E7E7" points="763.5587,201.809,757.2175,205.2426,757.9481,212.4166,764.2893,208.983,763.5587,201.809" style="stroke:#E7E7E7;stroke-width:1.0;"/><text fill="#FFFFFF" font-family="sans-serif" font-size="13" lengthAdjust="spacing" textLength="8" x="751.3594" y="221.8829">1</text><text fill="#FFFFFF" font-family="sans-serif" font-size="13" lengthAdjust="spacing" textLength="23" x="676.8047" y="316.8955">0..*</text></g><!--reverse link Agency to Employee--><g id="link_Agency_Employee"><path codeLine="159" d="M849.865,212.8401 C895.126,326.3881 968.4867,510.429 1010.4417,615.683 " fill="none" id="Agency-backto-Employee" style="stroke:#E7E7E7;stroke-width:1.0;"/><polygon fill="#E7E7E7" points="845.4217,201.693,843.9277,208.7476,849.865,212.8401,851.359,205.7854,845.4217,201.693" style="stroke:#E7E7E7;stroke-width:1.0;"/><text fill="#FFFFFF" font-family="sans-serif" font-size="13" lengthAdjust="spacing" textLength="8" x="840.099" y="222.059">1</text><text fill="#FFFFFF" font-family="sans-serif" font-size="13" lengthAdjust="spacing" textLength="23" x="983.4721" y="604.8118">0..*</text></g><!--reverse link Simulation to Client--><g id="link_Simulation_Client"><path codeLine="160" d="M1720.5162,144.4522 C1802.7162,169.6122 1892.4417,212.452 1943.2717,295 C2000.1317,387.343 1998.4717,445.656 1943.2717,539 C1898.7217,614.33 1801.0317,654.138 1735.9417,673.12 " fill="none" id="Simulation-backto-Client" style="stroke:#E7E7E7;stroke-width:1.0;"/><polygon fill="#E7E7E7" points="1709.0417,140.94,1713.6082,146.5209,1720.5162,144.4522,1715.9497,138.8712,1709.0417,140.94" style="stroke:#E7E7E7;stroke-width:1.0;"/><text fill="#FFFFFF" font-family="sans-serif" font-size="13" lengthAdjust="spacing" textLength="8" x="1716.9496" y="139.2879">1</text><text fill="#FFFFFF" font-family="sans-serif" font-size="13" lengthAdjust="spacing" textLength="23" x="1743.6936" y="667.8036">0..*</text></g><!--reverse link Simulation to Employee--><g id="link_Simulation_Employee"><path codeLine="161" d="M1504.3459,228.4731 C1489.3259,252.9521 1480.8517,269.201 1469.2717,295 C1423.0117,398.034 1473.6117,454.859 1398.2717,539 C1335.9217,608.628 1235.9617,646.528 1157.3317,666.651 " fill="none" id="Simulation-backto-Employee" style="stroke:#E7E7E7;stroke-width:1.0;"/><polygon fill="#E7E7E7" points="1510.6217,218.245,1504.0744,221.2671,1504.3459,228.4731,1510.8932,225.451,1510.6217,218.245" style="stroke:#E7E7E7;stroke-width:1.0;"/><text fill="#FFFFFF" font-family="sans-serif" font-size="13" lengthAdjust="spacing" textLength="8" x="1497.4718" y="237.9261">1</text><text fill="#FFFFFF" font-family="sans-serif" font-size="13" lengthAdjust="spacing" textLength="23" x="1165.227" y="661.9097">0..*</text></g><!--reverse link Credit to Employee--><g id="link_Credit_Employee"><path codeLine="162" d="M1502.4098,548.5047 C1487.4198,566.1787 1478.1417,573.459 1459.2717,586 C1368.9617,646.018 1246.7917,670.779 1157.4917,680.963 " fill="none" id="Credit-backto-Employee" style="stroke:#E7E7E7;stroke-width:1.0;"/><polygon fill="#E7E7E7" points="1510.1717,539.353,1503.2402,541.3415,1502.4098,548.5047,1509.3413,546.5161,1510.1717,539.353" style="stroke:#E7E7E7;stroke-width:1.0;"/><text fill="#FFFFFF" font-family="sans-serif" font-size="13" lengthAdjust="spacing" textLength="8" x="1497.9553" y="558.5368">1</text><text fill="#FFFFFF" font-family="sans-serif" font-size="13" lengthAdjust="spacing" textLength="23" x="1165.3968" y="693.0079">0..*</text></g><!--reverse link Credit to Client--><g id="link_Credit_Client"><path codeLine="163" d="M1626.9687,550.5757 C1639.9087,589.8287 1649.6117,619.26 1659.1517,648.201 " fill="none" id="Credit-backto-Client" style="stroke:#E7E7E7;stroke-width:1.0;"/><polygon fill="#E7E7E7" points="1623.2117,539.179,1621.2913,546.1297,1626.9687,550.5757,1628.8891,543.625,1623.2117,539.179" style="stroke:#E7E7E7;stroke-width:1.0;"/><text fill="#FFFFFF" font-family="sans-serif" font-size="13" lengthAdjust="spacing" textLength="7" x="1618.3184" y="558.7594">*</text><text fill="#FFFFFF" font-family="sans-serif" font-size="13" lengthAdjust="spacing" textLength="8" x="1648.3162" y="637.313">1</text></g><!--reverse link Simulation to Credit--><g id="link_Simulation_Credit"><path codeLine="164" d="M1583.2717,230.027 C1583.2717,254.789 1583.2717,269.404 1583.2717,294.836 " fill="none" id="Simulation-backto-Credit" style="stroke:#E7E7E7;stroke-width:1.0;"/><polygon fill="#E7E7E7" points="1583.2717,218.027,1579.2717,224.027,1583.2717,230.027,1587.2717,224.027,1583.2717,218.027" style="stroke:#E7E7E7;stroke-width:1.0;"/><text fill="#FFFFFF" font-family="sans-serif" font-size="13" lengthAdjust="spacing" textLength="8" x="1574.9905" y="238.0469">1</text><text fill="#FFFFFF" font-family="sans-serif" font-size="13" lengthAdjust="spacing" textLength="8" x="1575.028" y="284.0189">1</text></g><!--link Agency to Transfer--><g id="link_Agency_Transfer"><path codeLine="165" d="M802.1367,201.701 C794.3067,333.584 796.4457,585.517 903.2677,762 C928.2037,803.198 965.5877,843.125 994.8537,871.261 " fill="none" id="Agency-Transfer" style="stroke:#E7E7E7;stroke-width:1.0;"/><text fill="#FFFFFF" font-family="sans-serif" font-size="13" lengthAdjust="spacing" textLength="144" x="833.2677" y="582.0669">"1" *-- "0..*" Employee</text></g><!--link Employee to Transfer--><g id="link_Employee_Transfer"><path codeLine="166" d="M1039.2677,762.058 C1039.2677,798.335 1039.2677,840.926 1039.2677,871.25 " fill="none" id="Employee-Transfer" style="stroke:#E7E7E7;stroke-width:1.0;"/><text fill="#FFFFFF" font-family="sans-serif" font-size="13" lengthAdjust="spacing" textLength="128" x="1040.2677" y="805.0669">"1" *-- "0..*" Agency</text></g><!--reverse link Operation to Payment--><g id="link_Operation_Payment"><path codeLine="167" d="M722.9007,997.774 C697.2327,1022.681 681.6097,1037.839 656.7147,1061.995 " fill="none" id="Operation-backto-Payment" style="stroke:#E7E7E7;stroke-width:1.0;"/><polygon fill="none" points="735.8187,985.239,718.7224,993.468,727.0791,1002.08,735.8187,985.239" style="stroke:#E7E7E7;stroke-width:1.0;"/><text fill="#FFFFFF" font-family="sans-serif" font-size="13" lengthAdjust="spacing" textLength="52" x="702.2677" y="1028.0669">extends</text></g><!--reverse link Operation to SimpleOperation--><g id="link_Operation_SimpleOperation"><path codeLine="168" d="M830.9696,1002.7786 C838.0176,1033.3406 841.9867,1050.559 848.2747,1077.828 " fill="none" id="Operation-backto-SimpleOperation" style="stroke:#E7E7E7;stroke-width:1.0;"/><polygon fill="none" points="826.9247,985.239,825.123,1004.1269,836.8161,1001.4304,826.9247,985.239" style="stroke:#E7E7E7;stroke-width:1.0;"/><text fill="#FFFFFF" font-family="sans-serif" font-size="13" lengthAdjust="spacing" textLength="52" x="839.2677" y="1028.0669">extends</text></g><!--link Payment to Account--><g id="link_Payment_Account"><path codeLine="169" d="M462.0277,1061.849 C285.6337,966.657 6,780.75 141.2677,616 C252.8287,480.124 374.2007,621.841 529.2677,539 C545.5137,530.321 560.9877,518.748 575.1107,506.193 " fill="none" id="Payment-Account" style="stroke:#E7E7E7;stroke-width:1.0;"/><text fill="#FFFFFF" font-family="sans-serif" font-size="13" lengthAdjust="spacing" textLength="31" x="140.2677" y="805.0669">from</text><text fill="#FFFFFF" font-family="sans-serif" font-size="13" lengthAdjust="spacing" textLength="8" x="439.4546" y="1051.0052">1</text><text fill="#FFFFFF" font-family="sans-serif" font-size="13" lengthAdjust="spacing" textLength="8" x="560.3081" y="526.559">1</text></g><!--link Payment to Account--><g id="link_Payment_Account"><path codeLine="170" d="M596.5747,1061.861 C607.1467,935.092 630.8517,650.826 642.9147,506.175 " fill="none" id="Payment-Account-1" style="stroke:#E7E7E7;stroke-width:1.0;"/><text fill="#FFFFFF" font-family="sans-serif" font-size="13" lengthAdjust="spacing" textLength="13" x="620.2677" y="805.0669">to</text><text fill="#FFFFFF" font-family="sans-serif" font-size="13" lengthAdjust="spacing" textLength="8" x="588.7177" y="1051.0185">1</text><text fill="#FFFFFF" font-family="sans-serif" font-size="13" lengthAdjust="spacing" textLength="8" x="633.9391" y="526.5395">1</text></g><!--SRC=[ZLPBRvj04BxxLw2SsbI9cglL2p6eHOeniccZdAmrJ1masANBajPg-z-xJzXTWvEBvPt7D-yPYXfrNH0M1Uan2_uiWk06gKVQDmUWow32J50Fg4QuW6LGalvGWo0L512h28uGutJnAwWTGwplbi4k3_FlEqxvT0GMsfWVFXfKmRfNm88uG0lwoa8NJ8qlM3jfGX2raN-BHI43MVMK0cPEFEGLQ4dHC_CCR0pTCZq0xT1hXO-T0yHz1WeTsyfu7Qp4Oat1PK0xWXKC9Wrtd56EBvujTzYbb1maHLNNgOIRn3AeeNqX66nPL7ApdKqIxgIaaTcnQPcqSqQER6DUddDZyKmhL6Oj-bY2kk8L2E0t0rowaHUa1BlqA_uspJ3enqrRanF094A3kBMYhmSOcQmj5BHdq72xOxgWGLNjkRqswcuBHYw6buLO04r5kkPPgwPYyqjSGbVGgXNTx3baPs2-TD6eVy6FaFyUiGX0ULJ2eMVkRF9yEWG5hiNyi9NiG1tCRLgWSZBrU9cdjp2cjmDgn3pva-X2k0cvi0T22JOrR-4HS76QgWnglFcHdUmCf3TZCtNYG1DZ8T7EPyyRei7Fd2BSFGFL2wOS_6IQiI_7z8tBgMhwsYg1fTSGp5xgqxv59pKEuxe-44h9BoZt1MehXcgRvwbrUzmt0oOFgQ_zcYMbcu-rGiWKmDaslzV6Lyhs6TzLxtWZkF1RwSDKgNb_b9LkUUosO7cvzUIf0dL4OXLeW-ZF7fnsA7lLc_wAdMZLzxJeUC707B1uY56RFry0seUf5j8fc-uWL0YrFQj4r-V9EkRsrfbadrfEscJnDioJJPe_PV5CPNCFI717ABifsngyvM3xymw372pcDNIb958MFgtZDEV_7fFyMxGD7yC7_eZYRBDBya5HVGz8ZN2L9p-4YIJLVsqXXHfcsNRp8uw4WJYDalIhn5mz92adSdbp_x_ylRdnFowMvaAvKjwNmxdKrTrLSCq5hpxVtbvVZUjqJa0Tr3ckEPUBuMxEufjxDOTmVaUua55Q1aZIeGmOcHOTFB1amO3hZUpPra7DS0VFh8KtdPnvWG53xuctsDUQVNSHMt2bWl6S4uTTldoxHXV55UHY72NPLsREnuRo1Fm170MDgh2ZlTU9NmRFb3GN1HZv3m00]--></g></svg>